{
.appVersion = "1247";
DisplayStrings = (
X,
mn,
m
);
copyright = "Copyright (c) 2010 by Anton Koovit.";
customParameters = (
{
name = glyphOrder;
value = (
.notdef,
CR,
A,
B,
C,
D,
E,
F,
G,
H,
I,
J,
K,
L,
M,
N,
O,
P,
Q,
R,
S,
T,
U,
V,
W,
X,
Y,
Z,
space,
underscore,
a,
b,
c,
d,
e,
f,
g,
h,
i,
j,
k,
l,
m,
n,
o,
p,
q,
r,
s,
t,
u,
v,
w,
x,
y,
z,
comma,
hyphen,
period,
zero,
one,
two,
three,
four,
five,
six,
seven,
eight,
nine,
exclam,
percent,
ampersand,
quotesingle,
quotedbl,
parenleft,
parenright,
asterisk,
plus,
slash,
at,
bracketleft,
backslash,
bracketright,
bullet,
paragraph,
germandbls,
registered,
copyright,
guillemotleft,
guillemotright,
ellipsis,
endash,
emdash,
quotedblleft,
quotedblright,
quoteleft,
quoteright,
guilsinglleft,
guilsinglright,
plusminus,
minus,
numbersign,
less,
equal,
greater,
question,
dollar,
braceleft,
bar,
braceright,
asciitilde,
sterling,
cent,
multiply,
colon,
semicolon,
circumflex,
tilde,
macron,
breve,
cedilla,
hungarumlaut,
ogonek,
caron,
degree,
grave,
acute,
dieresis,
ring,
dotaccent,
dotlessi,
AE,
ae,
thorn,
Thorn,
onesuperior,
twosuperior,
threesuperior,
ordmasculine,
ordfeminine,
currency,
logicalnot,
mu,
periodcentered,
exclamdown,
questiondown,
asciicircum,
brokenbar,
fraction,
onequarter,
onehalf,
threequarters,
Oslash,
oslash,
Eth,
eth,
adieresis,
ccaron.001,
otilde,
odieresis,
udieresis,
scaron.001,
zcaron.001,
Adieresis,
Ccaron,
Odieresis,
Otilde,
Udieresis,
Scaron,
Zcaron,
Agrave,
Aacute,
Acircumflex,
Atilde,
Aring,
Ccedilla,
Egrave,
Eacute,
Ecircumflex,
Edieresis,
Igrave,
Iacute,
Icircumflex,
Idieresis,
Ograve,
Ntilde,
Oacute,
Ocircumflex,
Ugrave,
Uacute,
Ucircumflex,
Yacute,
agrave,
aacute,
acircumflex,
atilde,
aring,
ccedilla,
egrave,
eacute,
ecircumflex,
edieresis,
igrave,
iacute,
icircumflex,
idieresis,
ograve,
ntilde,
oacute,
ocircumflex,
ugrave,
uacute,
ucircumflex,
yacute,
divisionslash,
divide,
yen,
twoinferior,
fourinferior,
quotedblbase,
foursuperior,
section,
Ydieresis,
ydieresis,
scaron,
zcaron,
ccaron
);

glyphs = (
{
glyphname = .notdef;
layers = (
{
associatedMasterId = "5ff15c72-4ade-48a9-9f0f-2c5166e9b845";
layerId = "5f0a847c-3ecf-40d8-833d-a0a2a194d8a6";
name = img;
width = 0;
},
{
layerId = "5bc31741-97d3-4d5f-bc2e-c74aacfe0c49";
paths = (
{
closed = 1;
nodes = (
"102 0 LINE",
"1038 0 LINE",
"1038 1516 LINE",
"102 1516 LINE"
);
},
{
closed = 1;
nodes = (
"205 1413 LINE",
"936 1413 LINE",
"936 102 LINE",
"205 102 LINE"
);
}
);
width = 1141;
},
{
layerId = "5ff15c72-4ade-48a9-9f0f-2c5166e9b845";
paths = (
{
closed = 1;
nodes = (
"102 0 LINE",
"1038 0 LINE",
"1038 1516 LINE",
"102 1516 LINE"
);
},
{
closed = 1;
nodes = (
"205 1413 LINE",
"936 1413 LINE",
"936 102 LINE",
"205 102 LINE"
);
}
);
width = 1141;
}
);
},
{
glyphname = A;
layers = (
{
anchors = (
{
name = top;
position = "{739, 1516}";
}
);
associatedMasterId = "5ff15c72-4ade-48a9-9f0f-2c5166e9b845";
layerId = "5f0a847c-3ecf-40d8-833d-a0a2a194d8a6";
name = img;
width = 0;
},
{
anchors = (
{
name = top;
position = "{756, 1516}";
}
);
layerId = "5bc31741-97d3-4d5f-bc2e-c74aacfe0c49";
paths = (
{
closed = 1;
nodes = (
"1040 0 LINE",
"1532 0 LINE",
"1532 172 LINE",
"1380 172 LINE",
"909 1516 LINE",
"614 1516 LINE",
"141 172 LINE",
"10 172 LINE",
"10 0 LINE",
"502 0 LINE",
"502 172 LINE",
"345 172 LINE",
"463 516 LINE",
"1046 516 LINE",
"1166 172 LINE",
"1040 172 LINE"
);
},
{
closed = 1;
nodes = (
"751 1360 LINE",
"988 682 LINE",
"519 682 LINE"
);
}
);
width = 1542;
},
{
anchors = (
{
name = top;
position = "{739, 1516}";
}
);
layerId = "5ff15c72-4ade-48a9-9f0f-2c5166e9b845";
paths = (
{
closed = 1;
nodes = (
"894 0 LINE",
"1468 0 LINE",
"1468 274 LINE",
"1358 274 LINE",
"954 1516 LINE",
"553 1516 LINE",
"140 274 LINE",
"28 274 LINE",
"28 0 LINE",
"602 0 LINE",
"602 274 LINE",
"442 274 LINE",
"510 492 LINE",
"976 492 LINE",
"1044 274 LINE",
"894 274 LINE"
);
},
{
closed = 1;
nodes = (
"741 1241 LINE",
"895 748 LINE",
"589 748 LINE"
);
}
);
width = 1491;
}
);
unicode = 0041;
},
{
glyphname = B;
layers = (
{
anchors = (
{
name = top;
position = "{764, 1434}";
}
);
associatedMasterId = "5ff15c72-4ade-48a9-9f0f-2c5166e9b845";
layerId = "5f0a847c-3ecf-40d8-833d-a0a2a194d8a6";
name = img;
width = 0;
},
{
anchors = (
{
name = top;
position = "{686, 1434}";
}
);
guideLines = (
{
angle = 90;
position = "{1249, 0}";
}
);
layerId = "5bc31741-97d3-4d5f-bc2e-c74aacfe0c49";
paths = (
{
closed = 1;
nodes = (
"143 0 LINE",
"805 0 LINE SMOOTH",
"1051 0 OFFCURVE",
"1247 199 OFFCURVE",
"1247 451 CURVE SMOOTH",
"1247 580 OFFCURVE",
"1162 700 OFFCURVE",
"1032 768 CURVE",
"1163 832 OFFCURVE",
"1239 944 OFFCURVE",
"1239 1073 CURVE SMOOTH",
"1239 1321 OFFCURVE",
"1042 1516 OFFCURVE",
"797 1516 CURVE",
"143 1518 LINE",
"143 1343 LINE",
"258 1343 LINE",
"258 172 LINE",
"143 172 LINE"
);
},
{
closed = 1;
nodes = (
"807 674 LINE",
"932 674 OFFCURVE",
"1034 563 OFFCURVE",
"1034 446 CURVE SMOOTH",
"1034 311 OFFCURVE",
"934 172 OFFCURVE",
"807 172 CURVE SMOOTH",
"455 172 LINE",
"455 674 LINE"
);
},
{
closed = 1;
nodes = (
"799 1343 LINE",
"924 1343 OFFCURVE",
"1026 1210 OFFCURVE",
"1026 1079 CURVE SMOOTH",
"1026 958 OFFCURVE",
"926 848 OFFCURVE",
"799 848 CURVE SMOOTH",
"455 848 LINE",
"455 1343 LINE"
);
}
);
width = 1323;
},
{
anchors = (
{
name = top;
position = "{764, 1434}";
}
);
guideLines = (
{
angle = 90;
position = "{1327, 0}";
}
);
layerId = "5ff15c72-4ade-48a9-9f0f-2c5166e9b845";
paths = (
{
closed = 1;
nodes = (
"113 0 LINE",
"874 0 LINE SMOOTH",
"1133 0 OFFCURVE",
"1333 195 OFFCURVE",
"1333 469 CURVE SMOOTH",
"1333 603 OFFCURVE",
"1271 696 OFFCURVE",
"1171 759 CURVE",
"1265 817 OFFCURVE",
"1319 911 OFFCURVE",
"1319 1057 CURVE SMOOTH",
"1319 1307 OFFCURVE",
"1126 1516 OFFCURVE",
"852 1516 CURVE",
"113 1518 LINE",
"113 1241 LINE",
"268 1241 LINE",
"268 274 LINE",
"113 274 LINE"
);
},
{
closed = 1;
nodes = (
"852 627 LINE",
"928 627 OFFCURVE",
"991 551 OFFCURVE",
"991 453 CURVE SMOOTH",
"991 360 OFFCURVE",
"930 274 OFFCURVE",
"852 274 CURVE SMOOTH",
"600 274 LINE",
"600 627 LINE"
);
},
{
closed = 1;
nodes = (
"838 1241 LINE",
"913 1241 OFFCURVE",
"975 1149 OFFCURVE",
"975 1067 CURVE SMOOTH",
"975 983 OFFCURVE",
"913 901 OFFCURVE",
"838 901 CURVE SMOOTH",
"600 901 LINE",
"600 1241 LINE"
);
}
);
width = 1386;
}
);
unicode = 0042;
},
{
glyphname = C;
layers = (
{
anchors = (
{
name = bottom;
position = "{793, 0}";
},
{
name = top;
position = "{793, 1516}";
}
);
associatedMasterId = "5ff15c72-4ade-48a9-9f0f-2c5166e9b845";
layerId = "5f0a847c-3ecf-40d8-833d-a0a2a194d8a6";
name = img;
width = 0;
},
{
anchors = (
{
name = bottom;
position = "{782, 0}";
},
{
name = top;
position = "{782, 1516}";
}
);
layerId = "5bc31741-97d3-4d5f-bc2e-c74aacfe0c49";
paths = (
{
closed = 1;
nodes = (
"1432 1116 LINE",
"1432 1294 LINE",
"1328 1294 LINE",
"1228 1424 OFFCURVE",
"1041 1544 OFFCURVE",
"788 1544 CURVE SMOOTH",
"365 1544 OFFCURVE",
"66 1186 OFFCURVE",
"66 760 CURVE SMOOTH",
"66 336 OFFCURVE",
"362 -25 OFFCURVE",
"788 -25 CURVE SMOOTH",
"1100 -25 OFFCURVE",
"1315 152 OFFCURVE",
"1438 412 CURVE",
"1257 494 LINE",
"1153 274 OFFCURVE",
"1018 164 OFFCURVE",
"788 164 CURVE SMOOTH",
"481 164 OFFCURVE",
"268 440 OFFCURVE",
"268 760 CURVE SMOOTH",
"268 1079 OFFCURVE",
"479 1358 OFFCURVE",
"788 1358 CURVE SMOOTH",
"995 1358 OFFCURVE",
"1124 1268 OFFCURVE",
"1212 1116 CURVE"
);
}
);
width = 1503;
},
{
anchors = (
{
name = bottom;
position = "{793, 0}";
},
{
name = top;
position = "{793, 1516}";
}
);
layerId = "5ff15c72-4ade-48a9-9f0f-2c5166e9b845";
paths = (
{
closed = 1;
nodes = (
"1415 1055 LINE",
"1415 1393 LINE",
"1194 1393 LINE",
"1097 1496 OFFCURVE",
"946 1544 OFFCURVE",
"799 1544 CURVE SMOOTH",
"389 1544 OFFCURVE",
"66 1194 OFFCURVE",
"66 760 CURVE SMOOTH",
"66 324 OFFCURVE",
"389 -27 OFFCURVE",
"799 -27 CURVE SMOOTH",
"1124 -27 OFFCURVE",
"1370 170 OFFCURVE",
"1452 430 CURVE",
"1130 520 LINE",
"1081 401 OFFCURVE",
"958 289 OFFCURVE",
"799 289 CURVE SMOOTH",
"571 289 OFFCURVE",
"406 502 OFFCURVE",
"406 760 CURVE SMOOTH",
"406 1016 OFFCURVE",
"575 1231 OFFCURVE",
"799 1231 CURVE SMOOTH",
"938 1231 OFFCURVE",
"1051 1149 OFFCURVE",
"1106 1055 CURVE"
);
}
);
width = 1554;
}
);
unicode = 0043;
},
{
glyphname = D;
layers = (
{
anchors = (
{
name = top;
position = "{713, 1434}";
}
);
associatedMasterId = "5ff15c72-4ade-48a9-9f0f-2c5166e9b845";
layerId = "5f0a847c-3ecf-40d8-833d-a0a2a194d8a6";
name = img;
width = 0;
},
{
anchors = (
{
name = top;
position = "{717, 1434}";
}
);
layerId = "5bc31741-97d3-4d5f-bc2e-c74aacfe0c49";
paths = (
{
closed = 1;
nodes = (
"143 1343 LINE",
"299 1343 LINE",
"299 172 LINE",
"143 172 LINE",
"143 0 LINE",
"719 0 LINE SMOOTH",
"1134 0 OFFCURVE",
"1448 340 OFFCURVE",
"1448 762 CURVE SMOOTH",
"1448 1180 OFFCURVE",
"1134 1516 OFFCURVE",
"719 1516 CURVE SMOOTH",
"143 1516 LINE"
);
},
{
closed = 1;
nodes = (
"731 1343 LINE",
"1012 1343 OFFCURVE",
"1239 1087 OFFCURVE",
"1239 762 CURVE SMOOTH",
"1239 432 OFFCURVE",
"1012 172 OFFCURVE",
"731 172 CURVE SMOOTH",
"496 172 LINE",
"496 1343 LINE"
);
}
);
width = 1520;
},
{
anchors = (
{
name = top;
position = "{713, 1434}";
}
);
layerId = "5ff15c72-4ade-48a9-9f0f-2c5166e9b845";
paths = (
{
closed = 1;
nodes = (
"82 1241 LINE",
"203 1241 LINE",
"203 274 LINE",
"82 274 LINE",
"82 0 LINE",
"664 0 LINE SMOOTH",
"1079 0 OFFCURVE",
"1407 340 OFFCURVE",
"1407 760 CURVE SMOOTH",
"1407 1180 OFFCURVE",
"1079 1516 OFFCURVE",
"664 1516 CURVE SMOOTH",
"82 1516 LINE"
);
},
{
closed = 1;
nodes = (
"662 1241 LINE",
"879 1241 OFFCURVE",
"1055 1030 OFFCURVE",
"1055 760 CURVE SMOOTH",
"1055 489 OFFCURVE",
"879 274 OFFCURVE",
"662 274 CURVE SMOOTH",
"535 274 LINE",
"535 1241 LINE"
);
}
);
width = 1468;
}
);
unicode = 0044;
},
{
glyphname = E;
layers = (
{
anchors = (
{
name = top;
position = "{741, 1516}";
}
);
associatedMasterId = "5ff15c72-4ade-48a9-9f0f-2c5166e9b845";
layerId = "5f0a847c-3ecf-40d8-833d-a0a2a194d8a6";
name = img;
width = 0;
},
{
anchors = (
{
name = top;
position = "{725, 1516}";
}
);
guideLines = (
{
position = "{0, 893}";
},
{
angle = 90;
position = "{82, 0}";
}
);
layerId = "5bc31741-97d3-4d5f-bc2e-c74aacfe0c49";
paths = (
{
closed = 1;
nodes = (
"143 1343 LINE",
"287 1343 LINE",
"287 172 LINE",
"143 172 LINE",
"143 0 LINE",
"1228 0 LINE",
"1228 428 LINE",
"1024 428 LINE",
"1024 172 LINE",
"484 172 LINE",
"484 686 LINE",
"938 686 LINE",
"938 858 LINE",
"484 858 LINE",
"484 1343 LINE",
"1024 1343 LINE",
"1024 1087 LINE",
"1228 1087 LINE",
"1228 1516 LINE",
"143 1516 LINE"
);
}
);
width = 1286;
},
{
anchors = (
{
name = top;
position = "{741, 1516}";
}
);
guideLines = (
{
position = "{0, 893}";
},
{
angle = 90;
position = "{135, 0}";
}
);
layerId = "5ff15c72-4ade-48a9-9f0f-2c5166e9b845";
paths = (
{
closed = 1;
nodes = (
"113 1214 LINE",
"273 1214 LINE",
"273 274 LINE",
"113 274 LINE",
"113 0 LINE",
"1319 0 LINE",
"1319 543 LINE",
"993 543 LINE",
"993 274 LINE",
"605 274 LINE",
"605 625 LINE",
"905 625 LINE",
"905 915 LINE",
"605 915 LINE",
"605 1214 LINE",
"993 1214 LINE",
"993 999 LINE",
"1319 999 LINE",
"1319 1516 LINE",
"113 1516 LINE"
);
}
);
width = 1380;
}
);
unicode = 0045;
},
{
glyphname = F;
layers = (
{
anchors = (
{
name = top;
position = "{731, 1434}";
}
);
associatedMasterId = "5ff15c72-4ade-48a9-9f0f-2c5166e9b845";
layerId = "5f0a847c-3ecf-40d8-833d-a0a2a194d8a6";
name = img;
width = 0;
},
{
anchors = (
{
name = top;
position = "{686, 1434}";
}
);
layerId = "5bc31741-97d3-4d5f-bc2e-c74aacfe0c49";
paths = (
{
closed = 1;
nodes = (
"147 1343 LINE",
"283 1343 LINE",
"283 172 LINE",
"143 172 LINE",
"143 0 LINE",
"635 0 LINE",
"635 172 LINE",
"480 172 LINE",
"480 688 LINE",
"1008 688 LINE",
"1008 856 LINE",
"480 856 LINE",
"480 1343 LINE",
"1028 1343 LINE",
"1028 1087 LINE",
"1233 1087 LINE",
"1233 1516 LINE",
"147 1516 LINE"
);
}
);
width = 1247;
},
{
anchors = (
{
name = top;
position = "{731, 1434}";
}
);
layerId = "5ff15c72-4ade-48a9-9f0f-2c5166e9b845";
paths = (
{
closed = 1;
nodes = (
"113 1212 LINE",
"271 1212 LINE",
"271 274 LINE",
"112 274 LINE",
"112 0 LINE",
"761 0 LINE",
"761 274 LINE",
"603 274 LINE",
"603 602 LINE",
"913 602 LINE",
"913 893 LINE",
"603 893 LINE",
"603 1212 LINE",
"961 1212 LINE",
"961 999 LINE",
"1286 999 LINE",
"1286 1516 LINE",
"113 1516 LINE"
);
}
);
width = 1286;
}
);
unicode = 0046;
},
{
glyphname = G;
layers = (
{
guideLines = (
{
angle = 45;
position = "{0, 1403}";
},
{
angle = 315;
position = "{0, 1403}";
},
{
angle = 90;
position = "{799, 0}";
},
{
angle = 90;
position = "{0, 0}";
}
);
layerId = "5bc31741-97d3-4d5f-bc2e-c74aacfe0c49";
paths = (
{
closed = 1;
nodes = (
"1493 -5 LINE",
"1492 644 LINE",
"1492 721 LINE",
"852 721 LINE",
"852 549 LINE",
"1276 549 LINE",
"1211 285 OFFCURVE",
"1045 164 OFFCURVE",
"788 164 CURVE SMOOTH",
"481 164 OFFCURVE",
"268 440 OFFCURVE",
"268 760 CURVE SMOOTH",
"268 1079 OFFCURVE",
"479 1358 OFFCURVE",
"788 1358 CURVE SMOOTH",
"995 1358 OFFCURVE",
"1124 1268 OFFCURVE",
"1212 1116 CURVE",
"1427 1116 LINE",
"1427 1294 LINE",
"1379 1307 OFFCURVE",
"1330 1320 OFFCURVE",
"1282 1333 CURVE",
"1184 1448 OFFCURVE",
"1011 1544 OFFCURVE",
"788 1544 CURVE SMOOTH",
"365 1544 OFFCURVE",
"66 1186 OFFCURVE",
"66 760 CURVE SMOOTH",
"66 532 OFFCURVE",
"152 326 OFFCURVE",
"295 180 CURVE SMOOTH",
"421 51 OFFCURVE",
"600 -12 OFFCURVE",
"774 -12 CURVE",
"992 -12 OFFCURVE",
"1206 87 OFFCURVE",
"1306 296 CURVE",
"1306 -5 LINE"
);
}
);
width = 1677;
},
{
guideLines = (
{
angle = 45;
position = "{0, 1270}";
},
{
angle = 315;
position = "{0, 483}";
},
{
angle = 90;
position = "{799, 0}";
},
{
angle = 90;
position = "{0, 0}";
}
);
layerId = "5ff15c72-4ade-48a9-9f0f-2c5166e9b845";
paths = (
{
closed = 1;
nodes = (
"1511 1 LINE",
"1511 674 LINE",
"1511 809 LINE",
"808 809 LINE",
"808 534 LINE",
"1098 534 LINE",
"1052 393 OFFCURVE",
"940 317 OFFCURVE",
"799 317 CURVE SMOOTH",
"578 317 OFFCURVE",
"403 518 OFFCURVE",
"403 760 CURVE SMOOTH",
"403 1006 OFFCURVE",
"575 1206 OFFCURVE",
"799 1206 CURVE SMOOTH",
"938 1206 OFFCURVE",
"1051 1149 OFFCURVE",
"1106 1055 CURVE",
"1415 1055 LINE",
"1415 1393 LINE",
"1328 1415 OFFCURVE",
"1240 1438 OFFCURVE",
"1153 1460 CURVE",
"1049 1516 OFFCURVE",
"926 1542 OFFCURVE",
"799 1542 CURVE SMOOTH",
"389 1542 OFFCURVE",
"66 1190 OFFCURVE",
"66 760 CURVE SMOOTH",
"66 530 OFFCURVE",
"158 328 OFFCURVE",
"305 180 CURVE SMOOTH",
"424 61 OFFCURVE",
"592 -8 OFFCURVE",
"758 -12 CURVE",
"941 -15 OFFCURVE",
"1118 65 OFFCURVE",
"1212 260 CURVE",
"1212 1 LINE"
);
}
);
width = 1636;
}
);
unicode = 0047;
},
{
glyphname = H;
layers = (
{
anchors = (
{
name = top;
position = "{795, 1434}";
}
);
associatedMasterId = "5ff15c72-4ade-48a9-9f0f-2c5166e9b845";
layerId = "5f0a847c-3ecf-40d8-833d-a0a2a194d8a6";
name = img;
width = 0;
},
{
anchors = (
{
name = top;
position = "{799, 1434}";
}
);
guideLines = (
{
angle = 90;
position = "{145, 0}";
},
{
angle = 90;
position = "{758, 0}";
}
);
layerId = "5bc31741-97d3-4d5f-bc2e-c74aacfe0c49";
paths = (
{
closed = 1;
nodes = (
"1208 1344 LINE",
"1360 1344 LINE",
"1360 885 LINE",
"484 885 LINE",
"484 1344 LINE",
"635 1344 LINE",
"635 1516 LINE",
"143 1516 LINE",
"143 1344 LINE",
"287 1344 LINE",
"287 172 LINE",
"143 172 LINE",
"143 0 LINE",
"635 0 LINE",
"635 172 LINE",
"484 172 LINE",
"484 717 LINE",
"1360 717 LINE",
"1360 172 LINE",
"1208 172 LINE",
"1208 0 LINE",
"1700 0 LINE",
"1700 172 LINE",
"1557 172 LINE",
"1557 1344 LINE",
"1700 1344 LINE",
"1700 1516 LINE",
"1208 1516 LINE"
);
}
);
width = 1843;
},
{
anchors = (
{
name = top;
position = "{795, 1434}";
}
);
guideLines = (
{
angle = 90;
position = "{113, 0}";
},
{
angle = 90;
position = "{764, 0}";
}
);
layerId = "5ff15c72-4ade-48a9-9f0f-2c5166e9b845";
paths = (
{
closed = 1;
nodes = (
"1128 1241 LINE",
"1286 1241 LINE",
"1286 926 LINE",
"603 926 LINE",
"603 1241 LINE",
"761 1241 LINE",
"761 1516 LINE",
"112 1516 LINE",
"112 1241 LINE",
"271 1241 LINE",
"271 274 LINE",
"112 274 LINE",
"112 0 LINE",
"761 0 LINE",
"761 274 LINE",
"603 274 LINE",
"603 662 LINE",
"1286 662 LINE",
"1286 274 LINE",
"1128 274 LINE",
"1128 0 LINE",
"1777 0 LINE",
"1777 274 LINE",
"1618 274 LINE",
"1618 1241 LINE",
"1777 1241 LINE",
"1777 1516 LINE",
"1128 1516 LINE"
);
}
);
width = 1890;
}
);
unicode = 0048;
},
{
glyphname = I;
layers = (
{
anchors = (
{
name = top;
position = "{430, 1516}";
}
);
associatedMasterId = "5ff15c72-4ade-48a9-9f0f-2c5166e9b845";
layerId = "5f0a847c-3ecf-40d8-833d-a0a2a194d8a6";
name = img;
width = 0;
},
{
anchors = (
{
name = top;
position = "{385, 1516}";
}
);
guideLines = (
{
angle = 90;
position = "{121, 0}";
},
{
angle = 90;
position = "{635, 0}";
},
{
angle = 90;
position = "{418, 0}";
}
);
layerId = "5bc31741-97d3-4d5f-bc2e-c74aacfe0c49";
paths = (
{
closed = 1;
nodes = (
"145 1344 LINE",
"283 1344 LINE",
"283 172 LINE",
"143 172 LINE",
"143 0 LINE",
"635 0 LINE",
"635 172 LINE",
"480 172 LINE",
"480 1344 LINE",
"637 1344 LINE",
"637 1516 LINE",
"145 1516 LINE"
);
}
);
width = 780;
},
{
anchors = (
{
name = top;
position = "{430, 1516}";
}
);
guideLines = (
{
angle = 90;
position = "{80, 0}";
},
{
angle = 90;
position = "{674, 0}";
},
{
angle = 90;
position = "{377, 0}";
}
);
layerId = "5ff15c72-4ade-48a9-9f0f-2c5166e9b845";
paths = (
{
closed = 1;
nodes = (
"112 1241 LINE",
"271 1241 LINE",
"271 274 LINE",
"112 274 LINE",
"112 0 LINE",
"761 0 LINE",
"761 274 LINE",
"603 274 LINE",
"603 1241 LINE",
"761 1241 LINE",
"761 1516 LINE",
"112 1516 LINE"
);
}
);
width = 874;
}
);
unicode = 0049;
},
{
glyphname = J;
layers = (
{
anchors = (
{
name = top;
position = "{176, 1352}";
}
);
associatedMasterId = "5ff15c72-4ade-48a9-9f0f-2c5166e9b845";
layerId = "5f0a847c-3ecf-40d8-833d-a0a2a194d8a6";
name = img;
width = 0;
},
{
anchors = (
{
name = top;
position = "{176, 1352}";
}
);
layerId = "5bc31741-97d3-4d5f-bc2e-c74aacfe0c49";
paths = (
{
closed = 1;
nodes = (
"150 1343 LINE",
"315 1343 LINE",
"315 205 LINE SMOOTH",
"315 94 OFFCURVE",
"102 -223 OFFCURVE",
"102 -223 CURVE",
"274 -238 LINE",
"274 -238 OFFCURVE",
"514 55 OFFCURVE",
"514 172 CURVE SMOOTH",
"514 1343 LINE",
"641 1343 LINE",
"641 1516 LINE",
"150 1516 LINE"
);
}
);
width = 682;
},
{
anchors = (
{
name = top;
position = "{176, 1352}";
}
);
layerId = "5ff15c72-4ade-48a9-9f0f-2c5166e9b845";
paths = (
{
closed = 1;
nodes = (
"82 1212 LINE",
"223 1212 LINE",
"223 205 LINE SMOOTH",
"223 94 OFFCURVE",
"10 -223 OFFCURVE",
"10 -223 CURVE",
"289 -238 LINE",
"289 -238 OFFCURVE",
"549 55 OFFCURVE",
"549 172 CURVE SMOOTH",
"549 1212 LINE",
"655 1212 LINE",
"655 1516 LINE",
"82 1516 LINE"
);
}
);
width = 686;
}
);
unicode = 004A;
},
{
glyphname = K;
layers = (
{
guideLines = (
{
position = "{0, 1221}";
},
{
position = "{0, 297}";
},
{
position = "{0, 170}";
},
{
angle = 90;
position = "{1034, 0}";
},
{
angle = 90;
position = "{0, 0}";
},
{
angle = 90;
position = "{0, 0}";
}
);
layerId = "5bc31741-97d3-4d5f-bc2e-c74aacfe0c49";
paths = (
{
closed = 1;
nodes = (
"112 1241 LINE",
"271 1241 LINE",
"271 274 LINE",
"112 274 LINE",
"112 0 LINE",
"761 0 LINE",
"761 274 LINE",
"603 274 LINE",
"603 784 LINE",
"1090 297 LINE",
"1090 0 LINE",
"1593 0 LINE",
"1593 297 LINE",
"1470 297 LINE",
"986 787 LINE",
"1491 1221 LINE",
"1604 1221 LINE",
"1604 1516 LINE",
"1087 1516 LINE",
"1087 1223 LINE",
"603 801 LINE",
"603 1241 LINE",
"761 1241 LINE",
"761 1516 LINE",
"112 1516 LINE"
);
}
);
width = 1563;
},
{
guideLines = (
{
position = "{0, 1184}";
},
{
position = "{0, 297}";
},
{
position = "{0, 170}";
},
{
angle = 90;
position = "{1090, 0}";
},
{
angle = 90;
position = "{55, 0}";
},
{
angle = 90;
position = "{55, 0}";
}
);
layerId = "5ff15c72-4ade-48a9-9f0f-2c5166e9b845";
paths = (
{
closed = 1;
nodes = (
"112 1241 LINE",
"271 1241 LINE",
"271 274 LINE",
"112 274 LINE",
"112 0 LINE",
"761 0 LINE",
"761 274 LINE",
"603 274 LINE",
"603 784 LINE",
"1090 297 LINE",
"1090 0 LINE",
"1593 0 LINE",
"1593 297 LINE",
"1470 297 LINE",
"986 787 LINE",
"1491 1221 LINE",
"1604 1221 LINE",
"1604 1516 LINE",
"1087 1516 LINE",
"1087 1223 LINE",
"603 801 LINE",
"603 1241 LINE",
"761 1241 LINE",
"761 1516 LINE",
"112 1516 LINE"
);
}
);
width = 1655;
}
);
unicode = 004B;
},
{
glyphname = L;
layers = (
{
anchors = (
{
name = top;
position = "{750, 1434}";
}
);
associatedMasterId = "5ff15c72-4ade-48a9-9f0f-2c5166e9b845";
layerId = "5f0a847c-3ecf-40d8-833d-a0a2a194d8a6";
name = img;
width = 0;
},
{
anchors = (
{
name = top;
position = "{711, 1434}";
}
);
guideLines = (
{
angle = 90;
position = "{143, 0}";
}
);
layerId = "5bc31741-97d3-4d5f-bc2e-c74aacfe0c49";
paths = (
{
closed = 1;
nodes = (
"143 1344 LINE",
"281 1344 LINE",
"281 172 LINE",
"143 172 LINE",
"143 0 LINE",
"1286 0 LINE",
"1286 449 LINE",
"1090 449 LINE",
"1090 258 LINE SMOOTH",
"1090 215 OFFCURVE",
"1042 172 OFFCURVE",
"999 172 CURVE SMOOTH",
"478 172 LINE",
"478 1344 LINE",
"635 1344 LINE",
"635 1516 LINE",
"143 1516 LINE"
);
}
);
width = 1296;
},
{
anchors = (
{
name = top;
position = "{750, 1434}";
}
);
guideLines = (
{
angle = 90;
position = "{113, 0}";
}
);
layerId = "5ff15c72-4ade-48a9-9f0f-2c5166e9b845";
paths = (
{
closed = 1;
nodes = (
"112 1241 LINE",
"271 1241 LINE",
"271 274 LINE",
"113 274 LINE",
"113 0 LINE",
"1325 0 LINE",
"1325 557 LINE",
"1001 557 LINE",
"1001 354 LINE SMOOTH",
"1001 319 OFFCURVE",
"967 274 OFFCURVE",
"932 274 CURVE SMOOTH",
"603 274 LINE",
"603 1241 LINE",
"761 1241 LINE",
"761 1516 LINE",
"112 1516 LINE"
);
}
);
width = 1346;
}
);
unicode = 004C;
},
{
glyphname = M;
layers = (
{
anchors = (
{
name = top;
position = "{1024, 1434}";
}
);
associatedMasterId = "5ff15c72-4ade-48a9-9f0f-2c5166e9b845";
layerId = "5f0a847c-3ecf-40d8-833d-a0a2a194d8a6";
name = img;
width = 0;
},
{
anchors = (
{
name = top;
position = "{1014, 1434}";
}
);
guideLines = (
{
position = "{0, 848}";
},
{
angle = 90;
position = "{61, 0}";
},
{
angle = 90;
position = "{1925, 0}";
}
);
layerId = "5bc31741-97d3-4d5f-bc2e-c74aacfe0c49";
paths = (
{
closed = 1;
nodes = (
"156 0 LINE",
"648 0 LINE",
"648 172 LINE",
"492 172 LINE",
"492 1336 LINE",
"1028 0 LINE",
"1198 0 LINE",
"1729 1338 LINE",
"1729 172 LINE",
"1577 172 LINE",
"1577 0 LINE",
"2069 0 LINE",
"2069 172 LINE",
"1915 172 LINE",
"1915 1325 LINE",
"2073 1325 LINE",
"2073 1516 LINE",
"1604 1516 LINE",
"1116 207 LINE",
"635 1516 LINE",
"143 1516 LINE",
"143 1325 LINE",
"299 1325 LINE",
"299 172 LINE",
"156 172 LINE"
);
}
);
width = 2175;
},
{
anchors = (
{
name = top;
position = "{1024, 1434}";
}
);
guideLines = (
{
position = "{0, 848}";
},
{
angle = 90;
position = "{154, 0}";
},
{
angle = 90;
position = "{2234, 0}";
}
);
layerId = "5ff15c72-4ade-48a9-9f0f-2c5166e9b845";
paths = (
{
closed = 1;
nodes = (
"112 0 LINE",
"680 0 LINE",
"680 274 LINE",
"567 274 LINE",
"575 1116 LINE",
"1032 18 LINE",
"1313 18 LINE",
"1767 1146 LINE",
"1767 274 LINE",
"1662 274 LINE",
"1662 0 LINE",
"2230 0 LINE",
"2230 274 LINE",
"2091 274 LINE",
"2091 1241 LINE",
"2232 1241 LINE",
"2232 1516 LINE",
"1599 1516 LINE",
"1184 422 LINE",
"737 1516 LINE",
"113 1516 LINE",
"113 1241 LINE",
"254 1241 LINE",
"254 274 LINE",
"112 274 LINE"
);
}
);
width = 2345;
}
);
unicode = 004D;
},
{
glyphname = N;
layers = (
{
anchors = (
{
name = top;
position = "{854, 1516}";
}
);
associatedMasterId = "5ff15c72-4ade-48a9-9f0f-2c5166e9b845";
layerId = "5f0a847c-3ecf-40d8-833d-a0a2a194d8a6";
name = img;
width = 0;
},
{
anchors = (
{
name = top;
position = "{825, 1516}";
}
);
guideLines = (
{
position = "{0, 807}";
},
{
angle = 90;
position = "{104, 0}";
}
);
layerId = "5bc31741-97d3-4d5f-bc2e-c74aacfe0c49";
paths = (
{
closed = 1;
nodes = (
"1077 1344 LINE",
"1247 1344 LINE",
"1247 268 LINE",
"547 1518 LINE",
"147 1518 LINE",
"147 1343 LINE",
"283 1343 LINE",
"283 172 LINE",
"143 172 LINE",
"143 0 LINE",
"635 0 LINE",
"635 172 LINE",
"479 172 LINE",
"479 1257 LINE",
"1184 0 LINE",
"1440 0 LINE",
"1440 1344 LINE",
"1569 1344 LINE",
"1569 1516 LINE",
"1077 1516 LINE"
);
}
);
width = 1606;
},
{
anchors = (
{
name = top;
position = "{854, 1516}";
}
);
guideLines = (
{
position = "{0, 807}";
},
{
angle = 90;
position = "{154, 0}";
}
);
layerId = "5ff15c72-4ade-48a9-9f0f-2c5166e9b845";
paths = (
{
closed = 1;
nodes = (
"1072 1241 LINE",
"1200 1241 LINE",
"1200 523 LINE",
"573 1518 LINE",
"115 1518 LINE",
"115 1241 LINE",
"238 1241 LINE",
"238 274 LINE",
"114 274 LINE",
"114 0 LINE",
"688 0 LINE",
"688 274 LINE",
"561 274 LINE",
"561 980 LINE",
"1192 0 LINE",
"1524 0 LINE",
"1524 1241 LINE",
"1646 1241 LINE",
"1646 1516 LINE",
"1072 1516 LINE"
);
}
);
width = 1698;
}
);
unicode = 004E;
},
{
glyphname = O;
layers = (
{
anchors = (
{
name = top;
position = "{793, 1516}";
}
);
associatedMasterId = "5ff15c72-4ade-48a9-9f0f-2c5166e9b845";
layerId = "5f0a847c-3ecf-40d8-833d-a0a2a194d8a6";
name = img;
width = 0;
},
{
anchors = (
{
name = top;
position = "{797, 1516}";
}
);
layerId = "5bc31741-97d3-4d5f-bc2e-c74aacfe0c49";
paths = (
{
closed = 1;
nodes = (
"1229 -31 OFFCURVE",
"1530 322 OFFCURVE",
"1530 758 CURVE SMOOTH",
"1530 1196 OFFCURVE",
"1233 1546 OFFCURVE",
"803 1546 CURVE SMOOTH",
"377 1546 OFFCURVE",
"76 1196 OFFCURVE",
"76 758 CURVE SMOOTH",
"76 322 OFFCURVE",
"375 -31 OFFCURVE",
"803 -31 CURVE"
);
},
{
closed = 1;
nodes = (
"487 158 OFFCURVE",
"281 436 OFFCURVE",
"281 758 CURVE SMOOTH",
"281 1079 OFFCURVE",
"485 1360 OFFCURVE",
"803 1360 CURVE SMOOTH",
"1118 1360 OFFCURVE",
"1323 1077 OFFCURVE",
"1323 758 CURVE SMOOTH",
"1323 436 OFFCURVE",
"1120 158 OFFCURVE",
"803 158 CURVE"
);
}
);
width = 1602;
},
{
anchors = (
{
name = top;
position = "{793, 1516}";
}
);
layerId = "5ff15c72-4ade-48a9-9f0f-2c5166e9b845";
paths = (
{
closed = 1;
nodes = (
"1210 -27 OFFCURVE",
"1534 324 OFFCURVE",
"1534 758 CURVE SMOOTH",
"1534 1194 OFFCURVE",
"1210 1544 OFFCURVE",
"799 1544 CURVE SMOOTH",
"389 1544 OFFCURVE",
"66 1194 OFFCURVE",
"66 758 CURVE SMOOTH",
"66 324 OFFCURVE",
"389 -27 OFFCURVE",
"799 -27 CURVE"
);
},
{
closed = 1;
nodes = (
"571 287 OFFCURVE",
"406 502 OFFCURVE",
"406 758 CURVE SMOOTH",
"406 1016 OFFCURVE",
"571 1231 OFFCURVE",
"799 1231 CURVE SMOOTH",
"1028 1231 OFFCURVE",
"1192 1016 OFFCURVE",
"1192 758 CURVE SMOOTH",
"1192 502 OFFCURVE",
"1032 287 OFFCURVE",
"799 287 CURVE"
);
}
);
width = 1599;
}
);
unicode = 004F;
},
{
glyphname = P;
layers = (
{
anchors = (
{
name = top;
position = "{702, 1434}";
}
);
associatedMasterId = "5ff15c72-4ade-48a9-9f0f-2c5166e9b845";
layerId = "5f0a847c-3ecf-40d8-833d-a0a2a194d8a6";
name = img;
width = 0;
},
{
anchors = (
{
name = top;
position = "{684, 1434}";
}
);
guideLines = (
{
position = "{0, 948}";
},
{
angle = 90;
position = "{133, 0}";
}
);
layerId = "5bc31741-97d3-4d5f-bc2e-c74aacfe0c49";
paths = (
{
closed = 1;
nodes = (
"143 1343 LINE",
"311 1343 LINE",
"311 172 LINE",
"147 172 LINE",
"147 0 LINE",
"639 0 LINE",
"639 172 LINE",
"508 172 LINE",
"508 702 LINE",
"776 702 LINE SMOOTH",
"1059 702 OFFCURVE",
"1247 885 OFFCURVE",
"1247 1106 CURVE SMOOTH",
"1247 1374 OFFCURVE",
"1051 1516 OFFCURVE",
"780 1516 CURVE",
"143 1518 LINE"
);
},
{
closed = 1;
nodes = (
"756 1343 LINE",
"954 1343 OFFCURVE",
"1040 1255 OFFCURVE",
"1040 1106 CURVE SMOOTH",
"1040 948 OFFCURVE",
"932 866 OFFCURVE",
"780 866 CURVE SMOOTH",
"508 866 LINE",
"508 1343 LINE"
);
}
);
width = 1296;
},
{
anchors = (
{
name = top;
position = "{702, 1434}";
}
);
guideLines = (
{
position = "{0, 948}";
},
{
angle = 90;
position = "{43, 0}";
}
);
layerId = "5ff15c72-4ade-48a9-9f0f-2c5166e9b845";
paths = (
{
closed = 1;
nodes = (
"113 1241 LINE",
"271 1241 LINE",
"271 274 LINE",
"113 274 LINE",
"113 0 LINE",
"742 0 LINE",
"742 274 LINE",
"603 274 LINE",
"603 563 LINE",
"813 563 LINE SMOOTH",
"1182 563 OFFCURVE",
"1348 786 OFFCURVE",
"1348 1069 CURVE SMOOTH",
"1348 1305 OFFCURVE",
"1124 1516 OFFCURVE",
"813 1516 CURVE SMOOTH",
"113 1516 LINE"
);
},
{
closed = 1;
nodes = (
"739 1241 LINE",
"901 1241 OFFCURVE",
"987 1163 OFFCURVE",
"987 1034 CURVE SMOOTH",
"987 895 OFFCURVE",
"891 834 OFFCURVE",
"739 834 CURVE SMOOTH",
"603 834 LINE",
"603 1241 LINE"
);
}
);
width = 1298;
}
);
unicode = 0050;
},
{
glyphname = Q;
layers = (
{
anchors = (
{
name = top;
position = "{850, 1434}";
}
);
associatedMasterId = "5ff15c72-4ade-48a9-9f0f-2c5166e9b845";
layerId = "5f0a847c-3ecf-40d8-833d-a0a2a194d8a6";
name = img;
width = 0;
},
{
anchors = (
{
name = top;
position = "{850, 1434}";
}
);
layerId = "5bc31741-97d3-4d5f-bc2e-c74aacfe0c49";
paths = (
{
closed = 1;
nodes = (
"702 -203 LINE",
"721 -195 OFFCURVE",
"758 -190 OFFCURVE",
"786 -190 CURVE SMOOTH",
"940 -190 OFFCURVE",
"987 -326 OFFCURVE",
"1214 -326 CURVE SMOOTH",
"1341 -326 OFFCURVE",
"1493 -250 OFFCURVE",
"1526 -100 CURVE",
"1374 -31 LINE",
"1356 -109 OFFCURVE",
"1290 -147 OFFCURVE",
"1214 -147 CURVE",
"1057 -147 OFFCURVE",
"1012 -59 OFFCURVE",
"894 -25 CURVE",
"1271 21 OFFCURVE",
"1530 354 OFFCURVE",
"1530 758 CURVE SMOOTH",
"1530 1196 OFFCURVE",
"1233 1546 OFFCURVE",
"803 1546 CURVE SMOOTH",
"377 1546 OFFCURVE",
"76 1196 OFFCURVE",
"76 758 CURVE SMOOTH",
"76 357 OFFCURVE",
"328 27 OFFCURVE",
"702 -24 CURVE"
);
},
{
closed = 1;
nodes = (
"487 158 OFFCURVE",
"281 436 OFFCURVE",
"281 758 CURVE SMOOTH",
"281 1079 OFFCURVE",
"485 1360 OFFCURVE",
"803 1360 CURVE SMOOTH",
"1118 1360 OFFCURVE",
"1323 1077 OFFCURVE",
"1323 758 CURVE SMOOTH",
"1323 436 OFFCURVE",
"1120 158 OFFCURVE",
"803 158 CURVE SMOOTH"
);
}
);
width = 1665;
},
{
anchors = (
{
name = top;
position = "{850, 1434}";
}
);
layerId = "5ff15c72-4ade-48a9-9f0f-2c5166e9b845";
paths = (
{
closed = 1;
nodes = (
"657 -264 LINE",
"709 -246 OFFCURVE",
"727 -252 OFFCURVE",
"770 -252 CURVE SMOOTH",
"870 -252 OFFCURVE",
"1036 -395 OFFCURVE",
"1194 -395 CURVE SMOOTH",
"1389 -395 OFFCURVE",
"1550 -268 OFFCURVE",
"1573 -74 CURVE",
"1350 37 LINE",
"1333 -66 OFFCURVE",
"1253 -106 OFFCURVE",
"1171 -106 CURVE",
"1087 -104 OFFCURVE",
"1007 -50 OFFCURVE",
"924 -15 CURVE",
"1274 47 OFFCURVE",
"1534 369 OFFCURVE",
"1534 758 CURVE SMOOTH",
"1534 1194 OFFCURVE",
"1210 1544 OFFCURVE",
"799 1544 CURVE SMOOTH",
"389 1544 OFFCURVE",
"66 1194 OFFCURVE",
"66 758 CURVE SMOOTH",
"66 375 OFFCURVE",
"318 57 OFFCURVE",
"659 -12 CURVE"
);
},
{
closed = 1;
nodes = (
"571 287 OFFCURVE",
"406 502 OFFCURVE",
"406 758 CURVE SMOOTH",
"406 1016 OFFCURVE",
"571 1231 OFFCURVE",
"799 1231 CURVE SMOOTH",
"1028 1231 OFFCURVE",
"1192 1016 OFFCURVE",
"1192 758 CURVE SMOOTH",
"1192 502 OFFCURVE",
"1032 287 OFFCURVE",
"799 287 CURVE SMOOTH"
);
}
);
width = 1634;
}
);
unicode = 0051;
},
{
glyphname = R;
layers = (
{
anchors = (
{
name = top;
position = "{752, 1352}";
}
);
associatedMasterId = "5ff15c72-4ade-48a9-9f0f-2c5166e9b845";
layerId = "5f0a847c-3ecf-40d8-833d-a0a2a194d8a6";
name = img;
width = 0;
},
{
anchors = (
{
name = top;
position = "{688, 1352}";
}
);
guideLines = (
{
position = "{0, 295}";
},
{
angle = 90;
position = "{1233, 0}";
},
{
angle = 90;
position = "{119, 0}";
}
);
layerId = "5bc31741-97d3-4d5f-bc2e-c74aacfe0c49";
paths = (
{
closed = 1;
nodes = (
"143 1343 LINE",
"293 1343 LINE",
"293 172 LINE",
"154 172 LINE",
"154 0 LINE",
"646 0 LINE",
"646 172 LINE",
"490 172 LINE",
"490 702 LINE",
"684 702 LINE SMOOTH",
"831 702 OFFCURVE",
"911 627 OFFCURVE",
"952 461 CURVE",
"1065 0 LINE",
"1360 0 LINE",
"1358 190 LINE",
"1227 190 LINE",
"1143 520 LINE",
"1114 636 OFFCURVE",
"1042 722 OFFCURVE",
"974 750 CURVE",
"1131 804 OFFCURVE",
"1247 953 OFFCURVE",
"1247 1106 CURVE SMOOTH",
"1247 1374 OFFCURVE",
"1051 1516 OFFCURVE",
"780 1516 CURVE",
"143 1518 LINE"
);
},
{
closed = 1;
nodes = (
"756 1343 LINE",
"954 1343 OFFCURVE",
"1040 1255 OFFCURVE",
"1040 1104 CURVE SMOOTH",
"1040 948 OFFCURVE",
"932 866 OFFCURVE",
"780 866 CURVE SMOOTH",
"490 866 LINE",
"490 1343 LINE"
);
}
);
width = 1464;
},
{
anchors = (
{
name = top;
position = "{752, 1352}";
}
);
guideLines = (
{
position = "{0, 295}";
},
{
angle = 90;
position = "{1321, 0}";
},
{
angle = 90;
position = "{113, 0}";
}
);
layerId = "5ff15c72-4ade-48a9-9f0f-2c5166e9b845";
paths = (
{
closed = 1;
nodes = (
"113 1241 LINE",
"271 1241 LINE",
"271 274 LINE",
"113 274 LINE",
"113 0 LINE",
"742 0 LINE",
"742 274 LINE",
"603 274 LINE",
"603 604 LINE",
"731 604 LINE SMOOTH",
"893 604 OFFCURVE",
"965 532 OFFCURVE",
"989 360 CURVE",
"1049 0 LINE",
"1489 0 LINE",
"1487 295 LINE",
"1362 295 LINE",
"1311 492 LINE",
"1285 604 OFFCURVE",
"1229 675 OFFCURVE",
"1162 710 CURVE",
"1320 786 OFFCURVE",
"1409 887 OFFCURVE",
"1409 1090 CURVE SMOOTH",
"1409 1315 OFFCURVE",
"1227 1516 OFFCURVE",
"915 1516 CURVE SMOOTH",
"113 1516 LINE"
);
},
{
closed = 1;
nodes = (
"801 1241 LINE",
"963 1241 OFFCURVE",
"1049 1171 OFFCURVE",
"1049 1055 CURVE SMOOTH",
"1049 930 OFFCURVE",
"952 874 OFFCURVE",
"801 874 CURVE SMOOTH",
"603 874 LINE",
"603 1241 LINE"
);
}
);
width = 1530;
}
);
unicode = 0052;
},
{
glyphname = S;
layers = (
{
anchors = (
{
name = bottom;
position = "{647, 0}";
},
{
name = top;
position = "{618, 1516}";
}
);
associatedMasterId = "5ff15c72-4ade-48a9-9f0f-2c5166e9b845";
layerId = "5f0a847c-3ecf-40d8-833d-a0a2a194d8a6";
name = img;
width = 0;
},
{
anchors = (
{
name = bottom;
position = "{610, 0}";
},
{
name = top;
position = "{647, 1516}";
}
);
guideLines = (
{
angle = 90;
position = "{594, 0}";
},
{
angle = 90;
position = "{778, 0}";
},
{
angle = 90;
position = "{403, 0}";
}
);
layerId = "5bc31741-97d3-4d5f-bc2e-c74aacfe0c49";
paths = (
{
closed = 1;
nodes = (
"920 1104 LINE",
"1165 1104 LINE",
"1165 1276 LINE",
"1090 1276 LINE",
"1012 1432 OFFCURVE",
"863 1538 OFFCURVE",
"647 1538 CURVE SMOOTH",
"319 1538 OFFCURVE",
"133 1352 OFFCURVE",
"133 1120 CURVE SMOOTH",
"133 891 OFFCURVE",
"262 774 OFFCURVE",
"455 715 CURVE",
"674 653 LINE",
"791 616 OFFCURVE",
"944 557 OFFCURVE",
"944 395 CURVE SMOOTH",
"944 248 OFFCURVE",
"831 160 OFFCURVE",
"649 160 CURVE SMOOTH",
"463 160 OFFCURVE",
"332 242 OFFCURVE",
"332 406 CURVE SMOOTH",
"332 455 LINE",
"80 455 LINE",
"80 283 LINE",
"156 283 LINE",
"206 122 OFFCURVE",
"328 -33 OFFCURVE",
"639 -33 CURVE SMOOTH",
"942 -33 OFFCURVE",
"1159 156 OFFCURVE",
"1159 406 CURVE SMOOTH",
"1159 637 OFFCURVE",
"1028 752 OFFCURVE",
"786 829 CURVE",
"584 895 LINE",
"477 932 OFFCURVE",
"338 956 OFFCURVE",
"338 1133 CURVE SMOOTH",
"338 1251 OFFCURVE",
"438 1352 OFFCURVE",
"641 1352 CURVE SMOOTH",
"763 1352 OFFCURVE",
"896 1284 OFFCURVE",
"920 1170 CURVE"
);
}
);
width = 1210;
},
{
anchors = (
{
name = bottom;
position = "{647, 0}";
},
{
name = top;
position = "{618, 1516}";
}
);
guideLines = (
{
angle = 90;
position = "{631, 0}";
},
{
angle = 90;
position = "{815, 0}";
},
{
angle = 90;
position = "{440, 0}";
}
);
layerId = "5ff15c72-4ade-48a9-9f0f-2c5166e9b845";
paths = (
{
closed = 1;
nodes = (
"842 1001 LINE",
"1204 1001 LINE",
"1204 1303 LINE",
"1104 1303 LINE",
"1043 1436 OFFCURVE",
"867 1561 OFFCURVE",
"618 1561 CURVE SMOOTH",
"303 1561 OFFCURVE",
"78 1397 OFFCURVE",
"78 1108 CURVE SMOOTH",
"78 860 OFFCURVE",
"238 723 OFFCURVE",
"412 670 CURVE",
"641 596 LINE SMOOTH",
"723 569 OFFCURVE",
"821 539 OFFCURVE",
"821 438 CURVE SMOOTH",
"821 340 OFFCURVE",
"756 281 OFFCURVE",
"637 281 CURVE SMOOTH",
"479 281 OFFCURVE",
"403 369 OFFCURVE",
"403 489 CURVE SMOOTH",
"403 551 LINE",
"41 551 LINE",
"41 250 LINE",
"144 250 LINE",
"217 78 OFFCURVE",
"405 -31 OFFCURVE",
"637 -31 CURVE SMOOTH",
"967 -31 OFFCURVE",
"1192 170 OFFCURVE",
"1192 463 CURVE SMOOTH",
"1192 678 OFFCURVE",
"1073 811 OFFCURVE",
"920 864 CURVE",
"645 956 LINE SMOOTH",
"551 987 OFFCURVE",
"436 1001 OFFCURVE",
"436 1120 CURVE SMOOTH",
"436 1217 OFFCURVE",
"518 1257 OFFCURVE",
"618 1257 CURVE SMOOTH",
"729 1257 OFFCURVE",
"830 1183 OFFCURVE",
"842 1089 CURVE"
);
}
);
width = 1245;
}
);
unicode = 0053;
},
{
glyphname = T;
layers = (
{
anchors = (
{
name = top;
position = "{700, 1434}";
}
);
associatedMasterId = "5ff15c72-4ade-48a9-9f0f-2c5166e9b845";
layerId = "5f0a847c-3ecf-40d8-833d-a0a2a194d8a6";
name = img;
width = 0;
},
{
anchors = (
{
name = top;
position = "{700, 1434}";
}
);
layerId = "5bc31741-97d3-4d5f-bc2e-c74aacfe0c49";
paths = (
{
closed = 1;
nodes = (
"453 0 LINE",
"945 0 LINE",
"945 172 LINE",
"789 172 LINE",
"789 1352 LINE",
"1188 1352 LINE",
"1188 1116 LINE",
"1393 1116 LINE",
"1393 1516 LINE",
"41 1516 LINE",
"41 1116 LINE",
"246 1116 LINE",
"246 1352 LINE",
"592 1352 LINE",
"592 172 LINE",
"453 172 LINE"
);
}
);
width = 1434;
},
{
anchors = (
{
name = top;
position = "{700, 1434}";
}
);
layerId = "5ff15c72-4ade-48a9-9f0f-2c5166e9b845";
paths = (
{
closed = 1;
nodes = (
"373 0 LINE",
"1022 0 LINE",
"1022 274 LINE",
"863 274 LINE",
"863 1251 LINE",
"1071 1251 LINE",
"1071 1055 LINE",
"1399 1055 LINE",
"1399 1516 LINE",
"20 1516 LINE",
"20 1055 LINE",
"346 1055 LINE",
"346 1251 LINE",
"531 1251 LINE",
"531 274 LINE",
"373 274 LINE"
);
}
);
width = 1419;
}
);
unicode = 0054;
},
{
glyphname = U;
layers = (
{
anchors = (
{
name = top;
position = "{776, 1516}";
}
);
associatedMasterId = "5ff15c72-4ade-48a9-9f0f-2c5166e9b845";
layerId = "5f0a847c-3ecf-40d8-833d-a0a2a194d8a6";
name = img;
width = 0;
},
{
anchors = (
{
name = top;
position = "{827, 1516}";
}
);
guideLines = (
{
position = "{0, 647}";
},
{
position = "{0, 422}";
},
{
angle = 90;
position = "{780, 0}";
},
{
angle = 90;
position = "{877, 0}";
}
);
layerId = "5bc31741-97d3-4d5f-bc2e-c74aacfe0c49";
paths = (
{
closed = 1;
nodes = (
"113 1344 LINE",
"252 1344 LINE",
"252 641 LINE SMOOTH",
"252 227 OFFCURVE",
"506 -20 OFFCURVE",
"825 -20 CURVE SMOOTH",
"1153 -20 OFFCURVE",
"1411 227 OFFCURVE",
"1411 659 CURVE SMOOTH",
"1411 1344 LINE",
"1547 1344 LINE",
"1547 1516 LINE",
"1055 1516 LINE",
"1055 1344 LINE",
"1196 1344 LINE",
"1196 641 LINE SMOOTH",
"1196 297 OFFCURVE",
"1051 197 OFFCURVE",
"834 197 CURVE SMOOTH",
"625 197 OFFCURVE",
"471 319 OFFCURVE",
"471 641 CURVE SMOOTH",
"471 1344 LINE",
"605 1344 LINE",
"605 1516 LINE",
"113 1516 LINE"
);
}
);
width = 1559;
},
{
anchors = (
{
name = top;
position = "{776, 1516}";
}
);
guideLines = (
{
position = "{0, 647}";
},
{
position = "{0, 422}";
},
{
angle = 90;
position = "{780, 0}";
},
{
angle = 90;
position = "{877, 0}";
}
);
layerId = "5ff15c72-4ade-48a9-9f0f-2c5166e9b845";
paths = (
{
closed = 1;
nodes = (
"51 1241 LINE",
"188 1241 LINE",
"188 633 LINE SMOOTH",
"188 225 OFFCURVE",
"449 -20 OFFCURVE",
"776 -20 CURVE SMOOTH",
"1108 -20 OFFCURVE",
"1370 225 OFFCURVE",
"1370 651 CURVE SMOOTH",
"1370 1241 LINE",
"1491 1241 LINE",
"1491 1516 LINE",
"883 1516 LINE",
"883 1241 LINE",
"1044 1241 LINE",
"1044 612 LINE SMOOTH",
"1044 367 OFFCURVE",
"940 295 OFFCURVE",
"782 295 CURVE SMOOTH",
"631 295 OFFCURVE",
"520 383 OFFCURVE",
"520 612 CURVE SMOOTH",
"520 1241 LINE",
"659 1241 LINE",
"659 1516 LINE",
"51 1516 LINE"
);
}
);
width = 1561;
}
);
unicode = 0055;
},
{
glyphname = V;
layers = (
{
anchors = (
{
name = top;
position = "{770, 1434}";
}
);
associatedMasterId = "5ff15c72-4ade-48a9-9f0f-2c5166e9b845";
layerId = "5f0a847c-3ecf-40d8-833d-a0a2a194d8a6";
name = img;
width = 0;
},
{
anchors = (
{
name = top;
position = "{756, 1434}";
}
);
layerId = "5bc31741-97d3-4d5f-bc2e-c74aacfe0c49";
paths = (
{
closed = 1;
nodes = (
"983 1344 LINE",
"1116 1344 LINE",
"739 174 LINE",
"370 1344 LINE",
"502 1344 LINE",
"502 1516 LINE",
"10 1516 LINE",
"10 1344 LINE",
"144 1344 LINE",
"584 0 LINE",
"889 0 LINE",
"1325 1344 LINE",
"1475 1344 LINE",
"1475 1516 LINE",
"983 1516 LINE"
);
}
);
width = 1485;
},
{
anchors = (
{
name = top;
position = "{770, 1434}";
}
);
layerId = "5ff15c72-4ade-48a9-9f0f-2c5166e9b845";
paths = (
{
closed = 1;
nodes = (
"860 1241 LINE",
"1035 1241 LINE",
"772 381 LINE",
"508 1241 LINE",
"669 1241 LINE",
"669 1516 LINE",
"20 1516 LINE",
"20 1241 LINE",
"166 1241 LINE",
"559 0 LINE",
"969 0 LINE",
"1374 1241 LINE",
"1509 1241 LINE",
"1509 1516 LINE",
"860 1516 LINE"
);
}
);
width = 1530;
}
);
unicode = 0056;
},
{
glyphname = W;
layers = (
{
anchors = (
{
name = top;
position = "{1202, 1434}";
}
);
associatedMasterId = "5ff15c72-4ade-48a9-9f0f-2c5166e9b845";
layerId = "5f0a847c-3ecf-40d8-833d-a0a2a194d8a6";
name = img;
width = 0;
},
{
anchors = (
{
name = top;
position = "{1184, 1434}";
}
);
layerId = "5bc31741-97d3-4d5f-bc2e-c74aacfe0c49";
paths = (
{
closed = 1;
nodes = (
"1767 1344 LINE",
"1944 1344 LINE",
"1604 178 LINE",
"1247 1516 LINE",
"1042 1516 LINE",
"678 178 LINE",
"343 1344 LINE",
"498 1344 LINE",
"498 1516 LINE",
"6 1516 LINE",
"6 1344 LINE",
"137 1344 LINE",
"537 0 LINE",
"815 0 LINE",
"1137 1171 LINE",
"1460 0 LINE",
"1739 0 LINE",
"2134 1344 LINE",
"2259 1344 LINE",
"2259 1516 LINE",
"1767 1516 LINE"
);
}
);
width = 2294;
},
{
anchors = (
{
name = top;
position = "{1202, 1434}";
}
);
layerId = "5ff15c72-4ade-48a9-9f0f-2c5166e9b845";
paths = (
{
closed = 1;
nodes = (
"1687 1241 LINE",
"1864 1241 LINE",
"1640 424 LINE",
"1376 1513 LINE",
"1004 1513 LINE",
"735 424 LINE",
"512 1241 LINE",
"669 1241 LINE",
"669 1516 LINE",
"20 1516 LINE",
"20 1241 LINE",
"173 1241 LINE",
"528 0 LINE",
"956 0 LINE",
"1190 946 LINE",
"1419 0 LINE",
"1851 0 LINE",
"2200 1241 LINE",
"2336 1241 LINE",
"2336 1516 LINE",
"1687 1516 LINE"
);
}
);
width = 2357;
}
);
unicode = 0057;
},
{
glyphname = X;
lastChange = "2019-07-24 20:02:11 +0000";
layers = (
{
anchors = (
{
name = top;
position = "{778, 1434}";
}
);
associatedMasterId = "5ff15c72-4ade-48a9-9f0f-2c5166e9b845";
layerId = "5f0a847c-3ecf-40d8-833d-a0a2a194d8a6";
name = img;
width = 0;
},
{
anchors = (
{
name = top;
position = "{778, 1434}";
}
);
guideLines = (
{
position = "{0, 723}";
},
{
angle = 90;
position = "{778, 0}";
},
{
angle = 90;
position = "{1516, 0}";
},
{
angle = 90;
position = "{170, 0}";
}
);
layerId = "5bc31741-97d3-4d5f-bc2e-c74aacfe0c49";
paths = (
{
closed = 1;
nodes = (
"662 0 LINE",
"662 172 LINE",
"485 172 LINE",
"811 623 LINE",
"1135 172 LINE",
"950 172 LINE",
"950 0 LINE",
"1442 0 LINE",
"1442 172 LINE",
"1348 172 LINE",
"920 774 LINE",
"1331 1344 LINE",
"1442 1344 LINE",
"1442 1516 LINE",
"950 1516 LINE",
"950 1344 LINE",
"1109 1344 LINE",
"811 928 LINE",
"515 1344 LINE",
"662 1344 LINE",
"662 1516 LINE",
"170 1516 LINE",
"170 1344 LINE",
"292 1344 LINE",
"701 775 LINE",
"269 172 LINE",
"170 172 LINE",
"170 0 LINE"
);
}
);
width = 1552;
},
{
anchors = (
{
name = top;
position = "{778, 1434}";
}
);
guideLines = (
{
position = "{0, 723}";
},
{
angle = 90;
position = "{778, 0}";
},
{
angle = 90;
position = "{1462, 0}";
},
{
angle = 90;
position = "{150, 0}";
}
);
layerId = "5ff15c72-4ade-48a9-9f0f-2c5166e9b845";
paths = (
{
closed = 1;
nodes = (
"676 0 LINE",
"676 274 LINE",
"540 274 LINE",
"773 522 LINE",
"1007 274 LINE",
"855 274 LINE",
"855 0 LINE",
"1497 0 LINE",
"1497 274 LINE",
"1446 274 LINE",
"990 754 LINE",
"1447 1241 LINE",
"1501 1241 LINE",
"1501 1516 LINE",
"859 1516 LINE",
"859 1241 LINE",
"1013 1241 LINE",
"771 984 LINE",
"527 1241 LINE",
"680 1241 LINE",
"680 1516 LINE",
"38 1516 LINE",
"38 1241 LINE",
"95 1241 LINE",
"554 754 LINE",
"102 274 LINE",
"34 274 LINE",
"34 0 LINE"
);
}
);
width = 1577;
}
);
unicode = 0058;
},
{
glyphname = Y;
layers = (
{
anchors = (
{
name = top;
position = "{786, 1516}";
}
);
associatedMasterId = "5ff15c72-4ade-48a9-9f0f-2c5166e9b845";
layerId = "5f0a847c-3ecf-40d8-833d-a0a2a194d8a6";
name = img;
width = 0;
},
{
anchors = (
{
name = top;
position = "{705, 1516}";
}
);
guideLines = (
{
angle = 90;
position = "{786, 0}";
}
);
layerId = "5bc31741-97d3-4d5f-bc2e-c74aacfe0c49";
paths = (
{
closed = 1;
nodes = (
"51 1344 LINE",
"168 1344 LINE",
"571 702 LINE",
"571 172 LINE",
"432 172 LINE",
"432 0 LINE",
"924 0 LINE",
"924 172 LINE",
"768 172 LINE",
"768 697 LINE",
"1195 1344 LINE",
"1324 1344 LINE",
"1324 1516 LINE",
"832 1516 LINE",
"832 1344 LINE",
"989 1344 LINE",
"684 856 LINE",
"398 1344 LINE",
"543 1344 LINE",
"543 1516 LINE",
"51 1516 LINE"
);
}
);
width = 1354;
},
{
anchors = (
{
name = top;
position = "{786, 1516}";
}
);
guideLines = (
{
angle = 90;
position = "{786, 0}";
}
);
layerId = "5ff15c72-4ade-48a9-9f0f-2c5166e9b845";
paths = (
{
closed = 1;
nodes = (
"47 1241 LINE",
"180 1241 LINE",
"604 633 LINE",
"604 274 LINE",
"436 274 LINE",
"436 0 LINE",
"1112 0 LINE",
"1112 274 LINE",
"928 274 LINE",
"928 629 LINE",
"1379 1241 LINE",
"1491 1241 LINE",
"1491 1516 LINE",
"842 1516 LINE",
"842 1241 LINE",
"987 1241 LINE",
"772 893 LINE",
"569 1241 LINE",
"696 1241 LINE",
"696 1516 LINE",
"47 1516 LINE"
);
}
);
width = 1536;
}
);
unicode = 0059;
},
{
glyphname = Z;
layers = (
{
anchors = (
{
name = top;
position = "{672, 1516}";
}
);
associatedMasterId = "5ff15c72-4ade-48a9-9f0f-2c5166e9b845";
layerId = "5f0a847c-3ecf-40d8-833d-a0a2a194d8a6";
name = img;
width = 0;
},
{
anchors = (
{
name = top;
position = "{616, 1516}";
}
);
layerId = "5bc31741-97d3-4d5f-bc2e-c74aacfe0c49";
paths = (
{
closed = 1;
nodes = (
"1163 1516 LINE",
"68 1516 LINE",
"68 1087 LINE",
"264 1087 LINE",
"264 1343 LINE",
"951 1343 LINE",
"51 227 LINE",
"51 0 LINE",
"1157 0 LINE",
"1157 424 LINE",
"961 424 LINE",
"961 172 LINE",
"250 172 LINE",
"1163 1292 LINE"
);
}
);
width = 1214;
},
{
anchors = (
{
name = top;
position = "{672, 1516}";
}
);
layerId = "5ff15c72-4ade-48a9-9f0f-2c5166e9b845";
paths = (
{
closed = 1;
nodes = (
"1214 1516 LINE",
"63 1516 LINE",
"63 979 LINE",
"389 979 LINE",
"389 1219 LINE",
"798 1219 LINE",
"61 313 LINE",
"61 0 LINE",
"1212 0 LINE",
"1212 532 LINE",
"887 532 LINE",
"887 297 LINE",
"459 297 LINE",
"1214 1202 LINE"
);
}
);
width = 1276;
}
);
unicode = 005A;
},
{
glyphname = underscore;
layers = (
{
hints = (
{
horizontal = 1;
place = "{-256, 102}";
type = Stem;
},
{
place = "{0, 1024}";
type = Stem;
}
);
layerId = "5bc31741-97d3-4d5f-bc2e-c74aacfe0c49";
paths = (
{
closed = 1;
nodes = (
"0 -256 LINE",
"1024 -256 LINE",
"1024 -154 LINE",
"0 -154 LINE"
);
}
);
width = 1024;
},
{
hints = (
{
horizontal = 1;
place = "{-256, 102}";
type = Stem;
},
{
place = "{0, 1024}";
type = Stem;
}
);
layerId = "5ff15c72-4ade-48a9-9f0f-2c5166e9b845";
paths = (
{
closed = 1;
nodes = (
"0 -346 LINE",
"1024 -346 LINE",
"1024 -90 LINE",
"0 -90 LINE"
);
}
);
width = 1024;
}
);
unicode = 005F;
},
{
glyphname = a;
layers = (
{
anchors = (
{
name = top;
position = "{520, 1036}";
}
);
layerId = "5bc31741-97d3-4d5f-bc2e-c74aacfe0c49";
paths = (
{
closed = 1;
nodes = (
"690 0 LINE",
"991 0 LINE",
"991 172 LINE",
"874 172 LINE",
"875 344 OFFCURVE",
"877 518 OFFCURVE",
"877 690 CURVE SMOOTH",
"877 948 OFFCURVE",
"729 1059 OFFCURVE",
"489 1059 CURVE SMOOTH",
"358 1059 OFFCURVE",
"215 1012 OFFCURVE",
"117 948 CURVE",
"178 819 LINE",
"238 858 OFFCURVE",
"346 895 OFFCURVE",
"471 895 CURVE SMOOTH",
"604 895 OFFCURVE",
"692 827 OFFCURVE",
"692 680 CURVE",
"691 586 LINE",
"639 599 OFFCURVE",
"569 606 OFFCURVE",
"481 606 CURVE SMOOTH",
"301 606 OFFCURVE",
"51 535 OFFCURVE",
"51 274 CURVE SMOOTH",
"51 109 OFFCURVE",
"195 -29 OFFCURVE",
"397 -29 CURVE SMOOTH",
"517 -29 OFFCURVE",
"612 23 OFFCURVE",
"690 96 CURVE"
);
},
{
closed = 1;
nodes = (
"315 127 OFFCURVE",
"231 184 OFFCURVE",
"231 295 CURVE SMOOTH",
"231 412 OFFCURVE",
"332 477 OFFCURVE",
"475 477 CURVE SMOOTH",
"691 477 LINE",
"690 239 LINE",
"639 180 OFFCURVE",
"538 127 OFFCURVE",
"438 127 CURVE SMOOTH"
);
}
);
width = 1042;
},
{
anchors = (
{
name = top;
position = "{520, 1036}";
}
);
layerId = "5ff15c72-4ade-48a9-9f0f-2c5166e9b845";
paths = (
{
closed = 1;
nodes = (
"717 0 LINE",
"1148 0 LINE",
"1148 274 LINE",
"1010 274 LINE",
"1010 399 OFFCURVE",
"1010 526 OFFCURVE",
"1010 651 CURVE SMOOTH",
"1010 950 OFFCURVE",
"823 1059 OFFCURVE",
"563 1059 CURVE SMOOTH",
"397 1059 OFFCURVE",
"248 1008 OFFCURVE",
"113 915 CURVE",
"209 721 LINE",
"297 768 OFFCURVE",
"387 793 OFFCURVE",
"512 793 CURVE SMOOTH",
"633 793 OFFCURVE",
"717 748 OFFCURVE",
"717 643 CURVE SMOOTH",
"717 611 LINE",
"651 626 OFFCURVE",
"573 637 OFFCURVE",
"479 637 CURVE SMOOTH",
"221 637 OFFCURVE",
"72 500 OFFCURVE",
"72 307 CURVE SMOOTH",
"72 119 OFFCURVE",
"219 -25 OFFCURVE",
"467 -25 CURVE SMOOTH",
"566 -25 OFFCURVE",
"625 -3 OFFCURVE",
"717 56 CURVE"
);
},
{
closed = 1;
nodes = (
"399 211 OFFCURVE",
"354 258 OFFCURVE",
"354 319 CURVE SMOOTH",
"354 385 OFFCURVE",
"416 422 OFFCURVE",
"477 422 CURVE SMOOTH",
"717 422 LINE",
"717 290 LINE",
"663 246 OFFCURVE",
"583 211 OFFCURVE",
"489 211 CURVE SMOOTH"
);
}
);
width = 1190;
}
);
unicode = 0061;
},
{
glyphname = b;
layers = (
{
anchors = (
{
name = top;
position = "{608, 1036}";
}
);
layerId = "5bc31741-97d3-4d5f-bc2e-c74aacfe0c49";
paths = (
{
closed = 1;
nodes = (
"57 1385 LINE",
"207 1385 LINE",
"207 0 LINE",
"393 0 LINE",
"393 65 LINE",
"456 17 OFFCURVE",
"551 -16 OFFCURVE",
"653 -16 CURVE SMOOTH",
"948 -16 OFFCURVE",
"1161 205 OFFCURVE",
"1161 537 CURVE SMOOTH",
"1161 848 OFFCURVE",
"969 1061 OFFCURVE",
"698 1061 CURVE SMOOTH",
"588 1061 OFFCURVE",
"481 1017 OFFCURVE",
"393 950 CURVE",
"393 1556 LINE",
"387 1556 LINE",
"387 1557 LINE",
"57 1557 LINE"
);
},
{
closed = 1;
nodes = (
"825 897 OFFCURVE",
"969 764 OFFCURVE",
"969 530 CURVE SMOOTH",
"969 274 OFFCURVE",
"815 145 OFFCURVE",
"643 145 CURVE SMOOTH",
"519 145 OFFCURVE",
"436 185 OFFCURVE",
"393 229 CURVE",
"393 786 LINE",
"458 854 OFFCURVE",
"552 897 OFFCURVE",
"649 897 CURVE SMOOTH"
);
}
);
width = 1253;
},
{
anchors = (
{
name = top;
position = "{674, 1036}";
}
);
layerId = "5ff15c72-4ade-48a9-9f0f-2c5166e9b845";
paths = (
{
closed = 1;
nodes = (
"28 1282 LINE",
"175 1282 LINE",
"175 0 LINE",
"482 0 LINE",
"482 28 LINE",
"550 -1 OFFCURVE",
"625 -18 OFFCURVE",
"709 -18 CURVE SMOOTH",
"1020 -18 OFFCURVE",
"1244 225 OFFCURVE",
"1244 524 CURVE SMOOTH",
"1244 821 OFFCURVE",
"1016 1067 OFFCURVE",
"709 1067 CURVE SMOOTH",
"630 1067 OFFCURVE",
"554 1048 OFFCURVE",
"482 1013 CURVE",
"482 1556 LINE",
"481 1556 LINE",
"481 1557 LINE",
"28 1557 LINE"
);
},
{
closed = 1;
nodes = (
"826 791 OFFCURVE",
"938 688 OFFCURVE",
"938 522 CURVE SMOOTH",
"938 360 OFFCURVE",
"824 258 OFFCURVE",
"687 258 CURVE SMOOTH",
"599 258 OFFCURVE",
"525 301 OFFCURVE",
"482 365 CURVE",
"482 676 LINE",
"530 750 OFFCURVE",
"602 791 OFFCURVE",
"689 791 CURVE SMOOTH"
);
}
);
width = 1305;
}
);
unicode = 0062;
},
{
glyphname = c;
layers = (
{
anchors = (
{
name = bottom;
position = "{612, 0}";
},
{
name = top;
position = "{614, 1036}";
}
);
associatedMasterId = "5ff15c72-4ade-48a9-9f0f-2c5166e9b845";
layerId = "5f0a847c-3ecf-40d8-833d-a0a2a194d8a6";
name = img;
width = 0;
},
{
anchors = (
{
name = bottom;
position = "{596, 0}";
},
{
name = top;
position = "{610, 1036}";
}
);
layerId = "5bc31741-97d3-4d5f-bc2e-c74aacfe0c49";
paths = (
{
closed = 1;
nodes = (
"847 760 LINE",
"847 759 OFFCURVE",
"847 758 OFFCURVE",
"848 758 CURVE",
"849 759 OFFCURVE",
"851 759 OFFCURVE",
"852 760 CURVE",
"1034 760 LINE",
"1034 932 LINE",
"929 932 LINE",
"842 1023 OFFCURVE",
"720 1069 OFFCURVE",
"590 1069 CURVE SMOOTH",
"313 1069 OFFCURVE",
"90 840 OFFCURVE",
"90 520 CURVE SMOOTH",
"90 199 OFFCURVE",
"299 -29 OFFCURVE",
"588 -29 CURVE SMOOTH",
"786 -29 OFFCURVE",
"944 78 OFFCURVE",
"1024 248 CURVE",
"973 273 OFFCURVE",
"921 299 OFFCURVE",
"870 324 CURVE",
"815 205 OFFCURVE",
"717 141 OFFCURVE",
"590 141 CURVE SMOOTH",
"418 141 OFFCURVE",
"276 289 OFFCURVE",
"276 520 CURVE SMOOTH",
"276 756 OFFCURVE",
"416 905 OFFCURVE",
"590 905 CURVE SMOOTH",
"703 905 OFFCURVE",
"790 859 OFFCURVE",
"846 760 CURVE"
);
}
);
width = 1116;
},
{
anchors = (
{
name = bottom;
position = "{612, 0}";
},
{
name = top;
position = "{614, 1036}";
}
);
layerId = "5ff15c72-4ade-48a9-9f0f-2c5166e9b845";
paths = (
{
closed = 1;
nodes = (
"852 692 LINE",
"852 692 OFFCURVE",
"852 692 OFFCURVE",
"852 692 CURVE",
"883 692 OFFCURVE",
"913 692 OFFCURVE",
"944 692 CURVE SMOOTH",
"1128 692 LINE",
"1128 993 LINE",
"929 993 LINE",
"835 1049 OFFCURVE",
"727 1081 OFFCURVE",
"616 1081 CURVE SMOOTH",
"303 1081 OFFCURVE",
"72 842 OFFCURVE",
"72 530 CURVE SMOOTH",
"72 221 OFFCURVE",
"299 -25 OFFCURVE",
"616 -25 CURVE SMOOTH",
"922 -25 OFFCURVE",
"1100 188 OFFCURVE",
"1145 352 CURVE",
"1053 379 OFFCURVE",
"962 405 OFFCURVE",
"870 432 CURVE",
"838 350 OFFCURVE",
"756 260 OFFCURVE",
"631 260 CURVE SMOOTH",
"483 260 OFFCURVE",
"371 371 OFFCURVE",
"371 528 CURVE SMOOTH",
"371 684 OFFCURVE",
"477 797 OFFCURVE",
"631 797 CURVE SMOOTH",
"727 797 OFFCURVE",
"795 758 OFFCURVE",
"852 692 CURVE"
);
}
);
width = 1180;
}
);
unicode = 0063;
},
{
glyphname = d;
layers = (
{
anchors = (
{
name = top;
position = "{641, 1036}";
}
);
guideLines = (
{
position = "{0, 528}";
},
{
angle = 90;
position = "{586, 0}";
}
);
layerId = "5bc31741-97d3-4d5f-bc2e-c74aacfe0c49";
paths = (
{
closed = 1;
nodes = (
"710 1385 LINE",
"852 1385 LINE",
"852 987 LINE",
"776 1041 OFFCURVE",
"696 1061 OFFCURVE",
"596 1061 CURVE SMOOTH",
"293 1061 OFFCURVE",
"92 848 OFFCURVE",
"92 528 CURVE SMOOTH",
"92 176 OFFCURVE",
"305 -23 OFFCURVE",
"586 -23 CURVE SMOOTH",
"697 -23 OFFCURVE",
"786 18 OFFCURVE",
"852 85 CURVE",
"852 0 LINE",
"1192 0 LINE",
"1192 172 LINE",
"1038 172 LINE",
"1038 1385 LINE",
"1040 1385 LINE",
"1040 1557 LINE",
"710 1557 LINE"
);
},
{
closed = 1;
nodes = (
"420 139 OFFCURVE",
"285 274 OFFCURVE",
"285 530 CURVE SMOOTH",
"285 764 OFFCURVE",
"428 897 OFFCURVE",
"604 897 CURVE SMOOTH",
"694 897 OFFCURVE",
"786 873 OFFCURVE",
"852 817 CURVE",
"852 237 LINE",
"806 186 OFFCURVE",
"726 139 OFFCURVE",
"610 139 CURVE SMOOTH"
);
}
);
width = 1268;
},
{
anchors = (
{
name = top;
position = "{641, 1036}";
}
);
guideLines = (
{
position = "{0, 528}";
},
{
angle = 90;
position = "{586, 0}";
}
);
layerId = "5ff15c72-4ade-48a9-9f0f-2c5166e9b845";
paths = (
{
closed = 1;
nodes = (
"641 1282 LINE",
"786 1282 LINE",
"786 1019 LINE",
"717 1049 OFFCURVE",
"638 1067 OFFCURVE",
"555 1067 CURVE SMOOTH",
"240 1067 OFFCURVE",
"20 829 OFFCURVE",
"20 526 CURVE SMOOTH",
"20 223 OFFCURVE",
"244 -20 OFFCURVE",
"561 -20 CURVE SMOOTH",
"638 -20 OFFCURVE",
"715 3 OFFCURVE",
"786 40 CURVE",
"786 0 LINE",
"1297 0 LINE",
"1297 274 LINE",
"1094 274 LINE",
"1094 1324 LINE",
"1094 1440 LINE",
"1094 1557 LINE",
"641 1557 LINE"
);
},
{
closed = 1;
nodes = (
"440 258 OFFCURVE",
"326 358 OFFCURVE",
"326 524 CURVE SMOOTH",
"326 686 OFFCURVE",
"440 791 OFFCURVE",
"578 791 CURVE SMOOTH",
"660 791 OFFCURVE",
"740 749 OFFCURVE",
"786 680 CURVE",
"786 376 LINE",
"740 304 OFFCURVE",
"665 258 OFFCURVE",
"578 258 CURVE SMOOTH"
);
}
);
width = 1358;
}
);
unicode = 0064;
},
{
glyphname = e;
layers = (
{
anchors = (
{
name = top;
position = "{582, 1036}";
}
);
associatedMasterId = "5ff15c72-4ade-48a9-9f0f-2c5166e9b845";
layerId = "5f0a847c-3ecf-40d8-833d-a0a2a194d8a6";
name = img;
width = 0;
},
{
anchors = (
{
name = top;
position = "{580, 1036}";
}
);
guideLines = (
{
position = "{0, 772}";
},
{
position = "{0, 530}";
},
{
position = "{0, 672}";
},
{
angle = 90;
position = "{592, 0}";
},
{
angle = 90;
position = "{0, 0}";
},
{
angle = 90;
position = "{0, 0}";
}
);
layerId = "5bc31741-97d3-4d5f-bc2e-c74aacfe0c49";
paths = (
{
closed = 1;
nodes = (
"1022 494 LINE",
"1022 543 OFFCURVE",
"1020 596 OFFCURVE",
"1014 647 CURVE",
"987 856 OFFCURVE",
"891 1063 OFFCURVE",
"580 1063 CURVE SMOOTH",
"258 1063 OFFCURVE",
"92 819 OFFCURVE",
"92 522 CURVE SMOOTH",
"92 158 OFFCURVE",
"297 -29 OFFCURVE",
"578 -29 CURVE SMOOTH",
"725 -29 OFFCURVE",
"862 16 OFFCURVE",
"997 109 CURVE",
"922 236 LINE",
"811 172 OFFCURVE",
"711 143 OFFCURVE",
"604 143 CURVE SMOOTH",
"467 143 OFFCURVE",
"350 211 OFFCURVE",
"301 344 CURVE",
"285 388 OFFCURVE",
"276 436 OFFCURVE",
"276 494 CURVE"
);
},
{
closed = 1;
nodes = (
"750 907 OFFCURVE",
"813 793 OFFCURVE",
"823 639 CURVE",
"286 639 LINE",
"312 805 OFFCURVE",
"394 907 OFFCURVE",
"567 907 CURVE SMOOTH"
);
}
);
width = 1118;
},
{
anchors = (
{
name = top;
position = "{582, 1036}";
}
);
guideLines = (
{
position = "{0, 772}";
},
{
position = "{0, 530}";
},
{
position = "{0, 672}";
},
{
angle = 90;
position = "{608, 0}";
},
{
angle = 90;
position = "{16, 0}";
},
{
angle = 90;
position = "{16, 0}";
}
);
layerId = "5ff15c72-4ade-48a9-9f0f-2c5166e9b845";
paths = (
{
closed = 1;
nodes = (
"1112 453 LINE",
"1114 487 OFFCURVE",
"1114 520 OFFCURVE",
"1110 553 CURVE",
"1102 850 OFFCURVE",
"922 1081 OFFCURVE",
"596 1081 CURVE SMOOTH",
"272 1081 OFFCURVE",
"51 836 OFFCURVE",
"51 532 CURVE SMOOTH",
"51 227 OFFCURVE",
"254 -27 OFFCURVE",
"614 -27 CURVE SMOOTH",
"805 -27 OFFCURVE",
"889 12 OFFCURVE",
"1042 104 CURVE",
"932 309 LINE",
"834 272 OFFCURVE",
"741 240 OFFCURVE",
"621 240 CURVE SMOOTH",
"500 240 OFFCURVE",
"381 303 OFFCURVE",
"352 422 CURVE",
"351 432 OFFCURVE",
"350 442 OFFCURVE",
"349 453 CURVE"
);
},
{
closed = 1;
nodes = (
"729 831 OFFCURVE",
"772 754 OFFCURVE",
"791 664 CURVE",
"358 664 LINE",
"381 752 OFFCURVE",
"440 831 OFFCURVE",
"588 831 CURVE SMOOTH"
);
}
);
width = 1186;
}
);
unicode = 0065;
},
{
glyphname = f;
layers = (
{
anchors = (
{
name = top;
position = "{446, 1036}";
}
);
guideLines = (
{
angle = 90;
position = "{1276, 0}";
},
{
angle = 90;
position = "{709, 0}";
}
);
layerId = "5bc31741-97d3-4d5f-bc2e-c74aacfe0c49";
paths = (
{
closed = 1;
nodes = (
"426 1204 LINE",
"426 1337 OFFCURVE",
"494 1407 OFFCURVE",
"604 1407 CURVE SMOOTH",
"678 1407 OFFCURVE",
"752 1389 OFFCURVE",
"795 1366 CURVE",
"852 1499 LINE",
"799 1526 OFFCURVE",
"719 1556 OFFCURVE",
"578 1556 CURVE SMOOTH",
"375 1556 OFFCURVE",
"242 1438 OFFCURVE",
"242 1198 CURVE SMOOTH",
"242 1036 LINE",
"41 1036 LINE",
"41 885 LINE",
"242 885 LINE",
"242 172 LINE",
"96 172 LINE",
"96 0 LINE",
"588 0 LINE",
"588 172 LINE",
"426 172 LINE",
"426 885 LINE",
"666 885 LINE",
"666 1036 LINE",
"426 1036 LINE"
);
}
);
width = 729;
},
{
anchors = (
{
name = top;
position = "{537, 1036}";
}
);
guideLines = (
{
angle = 90;
position = "{78, 0}";
},
{
angle = 90;
position = "{719, 0}";
}
);
layerId = "5ff15c72-4ade-48a9-9f0f-2c5166e9b845";
paths = (
{
closed = 1;
nodes = (
"531 1182 LINE",
"531 1272 OFFCURVE",
"588 1319 OFFCURVE",
"660 1319 CURVE SMOOTH",
"715 1319 OFFCURVE",
"752 1305 OFFCURVE",
"782 1282 CURVE",
"897 1493 LINE",
"860 1528 OFFCURVE",
"772 1579 OFFCURVE",
"621 1579 CURVE SMOOTH",
"416 1579 OFFCURVE",
"234 1450 OFFCURVE",
"234 1208 CURVE SMOOTH",
"234 1036 LINE",
"76 1036 LINE",
"76 774 LINE",
"234 774 LINE",
"234 274 LINE",
"79 274 LINE",
"79 0 LINE",
"721 0 LINE",
"721 274 LINE",
"531 274 LINE",
"531 774 LINE",
"719 774 LINE",
"719 1036 LINE",
"531 1036 LINE"
);
}
);
width = 815;
}
);
unicode = 0066;
},
{
glyphname = g;
layers = (
{
layerId = "5bc31741-97d3-4d5f-bc2e-c74aacfe0c49";
paths = (
{
closed = 1;
nodes = (
"866 76 LINE",
"866 -207 OFFCURVE",
"772 -281 OFFCURVE",
"567 -281 CURVE SMOOTH",
"442 -281 OFFCURVE",
"311 -231 OFFCURVE",
"231 -162 CURVE",
"198 -212 OFFCURVE",
"164 -263 OFFCURVE",
"131 -313 CURVE",
"254 -416 OFFCURVE",
"428 -457 OFFCURVE",
"573 -457 CURVE SMOOTH",
"901 -457 OFFCURVE",
"1055 -287 OFFCURVE",
"1055 41 CURVE SMOOTH",
"1055 1036 LINE",
"866 1036 LINE",
"866 983 LINE",
"788 1040 OFFCURVE",
"707 1061 OFFCURVE",
"604 1061 CURVE SMOOTH",
"301 1061 OFFCURVE",
"100 848 OFFCURVE",
"100 528 CURVE SMOOTH",
"100 176 OFFCURVE",
"313 -23 OFFCURVE",
"594 -23 CURVE SMOOTH",
"708 -23 OFFCURVE",
"799 20 OFFCURVE",
"866 91 CURVE"
);
},
{
closed = 1;
nodes = (
"428 139 OFFCURVE",
"293 274 OFFCURVE",
"293 530 CURVE SMOOTH",
"293 764 OFFCURVE",
"436 897 OFFCURVE",
"612 897 CURVE SMOOTH",
"705 897 OFFCURVE",
"799 872 OFFCURVE",
"866 812 CURVE",
"866 245 LINE",
"822 190 OFFCURVE",
"740 139 OFFCURVE",
"618 139 CURVE SMOOTH"
);
}
);
width = 1208;
},
{
layerId = "5ff15c72-4ade-48a9-9f0f-2c5166e9b845";
paths = (
{
closed = 1;
nodes = (
"838 49 LINE",
"838 -145 OFFCURVE",
"731 -201 OFFCURVE",
"588 -201 CURVE SMOOTH",
"457 -201 OFFCURVE",
"350 -164 OFFCURVE",
"258 -106 CURVE",
"216 -180 OFFCURVE",
"175 -254 OFFCURVE",
"133 -328 CURVE",
"252 -412 OFFCURVE",
"410 -465 OFFCURVE",
"590 -465 CURVE SMOOTH",
"883 -465 OFFCURVE",
"1141 -305 OFFCURVE",
"1141 43 CURVE SMOOTH",
"1141 1061 LINE",
"838 1061 LINE",
"838 1024 LINE",
"766 1057 OFFCURVE",
"687 1077 OFFCURVE",
"596 1077 CURVE SMOOTH",
"281 1077 OFFCURVE",
"61 831 OFFCURVE",
"61 535 CURVE SMOOTH",
"61 225 OFFCURVE",
"293 -6 OFFCURVE",
"612 -6 CURVE SMOOTH",
"689 -6 OFFCURVE",
"764 12 OFFCURVE",
"838 54 CURVE"
);
},
{
closed = 1;
nodes = (
"477 272 OFFCURVE",
"367 373 OFFCURVE",
"367 535 CURVE SMOOTH",
"367 686 OFFCURVE",
"481 797 OFFCURVE",
"618 797 CURVE SMOOTH",
"708 797 OFFCURVE",
"794 745 OFFCURVE",
"838 663 CURVE",
"838 400 LINE",
"794 323 OFFCURVE",
"713 272 OFFCURVE",
"618 272 CURVE SMOOTH"
);
}
);
width = 1284;
}
);
unicode = 0067;
},
{
glyphname = h;
layers = (
{
anchors = (
{
name = top;
position = "{686, 1036}";
}
);
layerId = "5bc31741-97d3-4d5f-bc2e-c74aacfe0c49";
paths = (
{
closed = 1;
nodes = (
"106 1385 LINE",
"248 1385 LINE",
"248 172 LINE",
"92 172 LINE",
"92 0 LINE",
"584 0 LINE",
"584 172 LINE",
"434 172 LINE",
"434 780 LINE",
"511 841 OFFCURVE",
"603 887 OFFCURVE",
"688 887 CURVE SMOOTH",
"838 887 OFFCURVE",
"922 803 OFFCURVE",
"922 645 CURVE SMOOTH",
"922 172 LINE",
"780 172 LINE",
"780 0 LINE",
"1272 0 LINE",
"1272 172 LINE",
"1116 172 LINE",
"1116 668 LINE SMOOTH",
"1116 936 OFFCURVE",
"975 1055 OFFCURVE",
"754 1055 CURVE SMOOTH",
"629 1055 OFFCURVE",
"524 997 OFFCURVE",
"434 922 CURVE",
"434 1385 LINE",
"436 1385 LINE",
"436 1557 LINE",
"106 1557 LINE"
);
}
);
width = 1354;
},
{
anchors = (
{
name = top;
position = "{758, 1036}";
}
);
layerId = "5ff15c72-4ade-48a9-9f0f-2c5166e9b845";
paths = (
{
closed = 1;
nodes = (
"51 1282 LINE",
"218 1282 LINE",
"218 274 LINE",
"68 274 LINE",
"68 0 LINE",
"676 0 LINE",
"676 274 LINE",
"525 274 LINE",
"525 664 LINE",
"597 728 OFFCURVE",
"670 762 OFFCURVE",
"730 762 CURVE SMOOTH",
"820 762 OFFCURVE",
"883 690 OFFCURVE",
"883 575 CURVE SMOOTH",
"883 274 LINE",
"872 274 LINE",
"872 0 LINE",
"1345 0 LINE",
"1345 274 LINE",
"1194 274 LINE",
"1194 645 LINE SMOOTH",
"1194 911 OFFCURVE",
"1041 1055 OFFCURVE",
"809 1055 CURVE SMOOTH",
"696 1055 OFFCURVE",
"603 1011 OFFCURVE",
"525 941 CURVE",
"525 1556 LINE",
"524 1556 LINE",
"524 1557 LINE",
"51 1557 LINE"
);
}
);
width = 1386;
}
);
unicode = 0068;
},
{
glyphname = i;
layers = (
{
anchors = (
{
name = top;
position = "{338, 1036}";
}
);
guideLines = (
{
angle = 90;
position = "{84, 0}";
}
);
layerId = "5bc31741-97d3-4d5f-bc2e-c74aacfe0c49";
paths = (
{
closed = 1;
nodes = (
"91 865 LINE",
"242 865 LINE",
"242 172 LINE",
"94 172 LINE",
"94 0 LINE",
"586 0 LINE",
"586 172 LINE",
"430 172 LINE",
"430 1036 LINE",
"421 1036 LINE",
"421 1037 LINE",
"91 1037 LINE"
);
},
{
closed = 1;
nodes = (
"207 1331 OFFCURVE",
"266 1270 OFFCURVE",
"338 1270 CURVE SMOOTH",
"408 1270 OFFCURVE",
"467 1331 OFFCURVE",
"467 1403 CURVE SMOOTH",
"467 1473 OFFCURVE",
"408 1532 OFFCURVE",
"338 1532 CURVE SMOOTH",
"266 1532 OFFCURVE",
"207 1473 OFFCURVE",
"207 1403 CURVE SMOOTH"
);
}
);
width = 657;
},
{
anchors = (
{
name = top;
position = "{416, 1036}";
}
);
guideLines = (
{
angle = 90;
position = "{61, 0}";
}
);
layerId = "5ff15c72-4ade-48a9-9f0f-2c5166e9b845";
paths = (
{
closed = 1;
nodes = (
"60 762 LINE",
"217 762 LINE",
"217 274 LINE",
"61 274 LINE",
"61 0 LINE",
"669 0 LINE",
"669 274 LINE",
"527 274 LINE",
"527 1036 LINE",
"520 1036 LINE",
"520 1037 LINE",
"60 1037 LINE"
);
},
{
closed = 1;
nodes = (
"201 1272 OFFCURVE",
"279 1192 OFFCURVE",
"379 1192 CURVE SMOOTH",
"476 1192 OFFCURVE",
"555 1272 OFFCURVE",
"555 1370 CURVE SMOOTH",
"555 1468 OFFCURVE",
"476 1548 OFFCURVE",
"379 1548 CURVE SMOOTH",
"279 1548 OFFCURVE",
"201 1468 OFFCURVE",
"201 1370 CURVE SMOOTH"
);
}
);
width = 721;
}
);
unicode = 0069;
},
{
glyphname = j;
layers = (
{
anchors = (
{
name = top;
position = "{252, 1036}";
}
);
layerId = "5bc31741-97d3-4d5f-bc2e-c74aacfe0c49";
paths = (
{
closed = 1;
nodes = (
"83 865 LINE",
"231 865 LINE",
"231 -59 LINE SMOOTH",
"231 -215 OFFCURVE",
"180 -315 OFFCURVE",
"61 -332 CURVE",
"67 -378 OFFCURVE",
"74 -425 OFFCURVE",
"80 -471 CURVE",
"295 -465 OFFCURVE",
"420 -317 OFFCURVE",
"420 -80 CURVE SMOOTH",
"420 1036 LINE",
"413 1036 LINE",
"413 1037 LINE",
"83 1037 LINE"
);
},
{
closed = 1;
nodes = (
"207 1337 OFFCURVE",
"260 1282 OFFCURVE",
"325 1282 CURVE SMOOTH",
"391 1282 OFFCURVE",
"444 1337 OFFCURVE",
"444 1403 CURVE SMOOTH",
"444 1466 OFFCURVE",
"391 1520 OFFCURVE",
"325 1520 CURVE SMOOTH",
"260 1520 OFFCURVE",
"207 1466 OFFCURVE",
"207 1403 CURVE SMOOTH"
);
}
);
width = 604;
},
{
anchors = (
{
name = top;
position = "{293, 1036}";
}
);
layerId = "5ff15c72-4ade-48a9-9f0f-2c5166e9b845";
paths = (
{
closed = 1;
nodes = (
"51 762 LINE",
"198 762 LINE",
"198 -39 LINE SMOOTH",
"198 -160 OFFCURVE",
"151 -238 OFFCURVE",
"57 -242 CURVE",
"58 -318 OFFCURVE",
"60 -393 OFFCURVE",
"61 -469 CURVE",
"346 -469 OFFCURVE",
"506 -334 OFFCURVE",
"506 -18 CURVE SMOOTH",
"506 762 LINE",
"524 762 LINE",
"524 1037 LINE",
"51 1037 LINE"
);
},
{
closed = 1;
nodes = (
"182 1272 OFFCURVE",
"260 1192 OFFCURVE",
"360 1192 CURVE SMOOTH",
"457 1192 OFFCURVE",
"538 1272 OFFCURVE",
"538 1370 CURVE SMOOTH",
"538 1468 OFFCURVE",
"457 1548 OFFCURVE",
"360 1548 CURVE SMOOTH",
"260 1548 OFFCURVE",
"182 1468 OFFCURVE",
"182 1370 CURVE SMOOTH"
);
}
);
width = 621;
}
);
unicode = 006A;
},
{
glyphname = k;
layers = (
{
anchors = (
{
name = top;
position = "{610, 1036}";
}
);
guideLines = (
{
position = "{0, 336}";
},
{
angle = 90;
position = "{1020, 0}";
},
{
angle = 90;
position = "{92, 0}";
},
{
angle = 90;
position = "{61, 0}";
}
);
layerId = "5bc31741-97d3-4d5f-bc2e-c74aacfe0c49";
paths = (
{
closed = 1;
nodes = (
"93 1385 LINE",
"268 1385 LINE",
"268 172 LINE",
"98 172 LINE",
"98 0 LINE",
"541 0 LINE",
"541 172 LINE",
"455 172 LINE",
"455 463 LINE",
"592 463 LINE",
"733 309 OFFCURVE",
"875 154 OFFCURVE",
"1016 0 CURVE",
"1235 0 LINE",
"1235 172 LINE",
"1110 172 LINE",
"995 294 OFFCURVE",
"881 417 OFFCURVE",
"766 539 CURVE",
"871 648 OFFCURVE",
"977 756 OFFCURVE",
"1082 865 CURVE",
"1214 865 LINE",
"1214 1037 LINE",
"820 1037 LINE",
"820 865 LINE",
"882 865 LINE",
"800 780 OFFCURVE",
"717 695 OFFCURVE",
"635 610 CURVE",
"455 610 LINE",
"455 1385 LINE",
"457 1385 LINE",
"457 1557 LINE",
"93 1557 LINE"
);
}
);
width = 1276;
},
{
anchors = (
{
name = top;
position = "{745, 1036}";
}
);
guideLines = (
{
position = "{0, 336}";
},
{
angle = 90;
position = "{1155, 0}";
},
{
angle = 90;
position = "{227, 0}";
},
{
angle = 90;
position = "{82, 0}";
}
);
layerId = "5ff15c72-4ade-48a9-9f0f-2c5166e9b845";
paths = (
{
closed = 1;
nodes = (
"51 1282 LINE",
"244 1282 LINE",
"244 274 LINE",
"83 274 LINE",
"83 0 LINE",
"657 0 LINE",
"657 274 LINE",
"551 274 LINE",
"551 444 LINE",
"657 444 LINE",
"769 296 OFFCURVE",
"881 148 OFFCURVE",
"993 0 CURVE",
"1274 0 LINE",
"1274 301 LINE",
"1102 301 LINE",
"1036 380 OFFCURVE",
"971 460 OFFCURVE",
"905 539 CURVE",
"969 613 OFFCURVE",
"1034 688 OFFCURVE",
"1098 762 CURVE",
"1284 762 LINE",
"1284 1037 LINE",
"743 1037 LINE",
"743 762 LINE",
"754 762 LINE",
"728 728 OFFCURVE",
"702 693 OFFCURVE",
"676 659 CURVE",
"551 659 LINE",
"551 1377 LINE",
"551 1377 LINE",
"551 1557 LINE",
"51 1557 LINE"
);
}
);
width = 1346;
}
);
unicode = 006B;
},
{
glyphname = l;
layers = (
{
anchors = (
{
name = top;
position = "{338, 1036}";
}
);
guideLines = (
{
angle = 90;
position = "{92, 0}";
},
{
angle = 90;
position = "{686, 0}";
}
);
layerId = "5bc31741-97d3-4d5f-bc2e-c74aacfe0c49";
paths = (
{
closed = 1;
nodes = (
"93 1385 LINE",
"242 1385 LINE",
"242 172 LINE",
"92 172 LINE",
"92 0 LINE",
"584 0 LINE",
"584 172 LINE",
"428 172 LINE",
"427 1556 LINE",
"427 1557 LINE",
"93 1557 LINE"
);
}
);
width = 666;
},
{
anchors = (
{
name = top;
position = "{432, 1036}";
}
);
guideLines = (
{
angle = 90;
position = "{63, 0}";
},
{
angle = 90;
position = "{684, 0}";
}
);
layerId = "5ff15c72-4ade-48a9-9f0f-2c5166e9b845";
paths = (
{
closed = 1;
nodes = (
"62 1282 LINE",
"220 1282 LINE",
"220 274 LINE",
"64 274 LINE",
"64 0 LINE",
"685 0 LINE",
"685 274 LINE",
"527 274 LINE",
"528 1282 LINE",
"528 1557 LINE",
"62 1557 LINE"
);
}
);
width = 737;
}
);
unicode = 006C;
},
{
glyphname = m;
lastChange = "2019-07-24 20:23:02 +0000";
layers = (
{
anchors = (
{
name = top;
position = "{1030, 1036}";
}
);
layerId = "5bc31741-97d3-4d5f-bc2e-c74aacfe0c49";
paths = (
{
closed = 1;
nodes = (
"586 0 LINE",
"586 172 LINE",
"438 172 LINE",
"438 779 LINE",
"516 840 OFFCURVE",
"608 887 OFFCURVE",
"694 887 CURVE SMOOTH",
"843 887 OFFCURVE",
"927 803 OFFCURVE",
"927 645 CURVE SMOOTH",
"927 172 LINE",
"780 172 LINE",
"780 0 LINE",
"1272 0 LINE",
"1272 172 LINE",
"1122 172 LINE",
"1122 668 LINE SMOOTH",
"1122 705 OFFCURVE",
"1119 739 OFFCURVE",
"1114 771 CURVE",
"1194 836 OFFCURVE",
"1291 887 OFFCURVE",
"1380 887 CURVE SMOOTH",
"1530 887 OFFCURVE",
"1613 803 OFFCURVE",
"1613 645 CURVE SMOOTH",
"1613 172 LINE",
"1466 172 LINE",
"1466 0 LINE",
"1958 0 LINE",
"1958 172 LINE",
"1808 172 LINE",
"1808 668 LINE SMOOTH",
"1808 936 OFFCURVE",
"1667 1055 OFFCURVE",
"1446 1055 CURVE SMOOTH",
"1296 1055 OFFCURVE",
"1169 970 OFFCURVE",
"1067 874 CURVE",
"1085 870 LINE",
"1029 997 OFFCURVE",
"914 1055 OFFCURVE",
"759 1055 CURVE SMOOTH",
"631 1055 OFFCURVE",
"524 993 OFFCURVE",
"432 915 CURVE",
"432 1037 LINE",
"92 1037 LINE",
"92 865 LINE",
"243 865 LINE",
"243 172 LINE",
"94 172 LINE",
"94 0 LINE"
);
}
);
width = 2040;
},
{
anchors = (
{
name = top;
position = "{1053, 1036}";
}
);
layerId = "5ff15c72-4ade-48a9-9f0f-2c5166e9b845";
paths = (
{
closed = 1;
nodes = (
"704 0 LINE",
"704 274 LINE",
"539 274 LINE",
"539 675 LINE",
"605 758 OFFCURVE",
"678 783 OFFCURVE",
"746 782 CURVE SMOOTH",
"846 781 OFFCURVE",
"918 707 OFFCURVE",
"918 596 CURVE SMOOTH",
"917 274 LINE",
"917 246 LINE",
"917 0 LINE",
"1390 0 LINE",
"1390 274 LINE",
"1241 274 LINE",
"1241 618 LINE SMOOTH",
"1241 634 OFFCURVE",
"1241 649 OFFCURVE",
"1240 664 CURVE",
"1306 751 OFFCURVE",
"1369 782 OFFCURVE",
"1444 782 CURVE SMOOTH",
"1553 782 OFFCURVE",
"1616 711 OFFCURVE",
"1616 594 CURVE SMOOTH",
"1616 277 LINE",
"1616 247 LINE",
"1616 0 LINE",
"2089 0 LINE",
"2089 274 LINE",
"1942 274 LINE",
"1942 645 LINE SMOOTH",
"1942 913 OFFCURVE",
"1800 1057 OFFCURVE",
"1548 1057 CURVE SMOOTH",
"1400 1057 OFFCURVE",
"1261 982 OFFCURVE",
"1171 878 CURVE",
"1188 876 LINE",
"1126 997 OFFCURVE",
"1009 1057 OFFCURVE",
"846 1057 CURVE SMOOTH",
"734 1057 OFFCURVE",
"622 1014 OFFCURVE",
"537 945 CURVE",
"537 1036 LINE",
"64 1037 LINE",
"64 762 LINE",
"215 762 LINE",
"215 274 LINE",
"62 274 LINE",
"62 0 LINE"
);
}
);
width = 2097;
}
);
unicode = 006D;
},
{
glyphname = n;
lastChange = "2019-07-24 20:09:10 +0000";
layers = (
{
anchors = (
{
name = top;
position = "{684, 1036}";
}
);
guideLines = (
{
position = "{0, 1135}";
},
{
position = "{0, 637}";
},
{
position = "{0, 1036}";
},
{
position = "{0, 336}";
},
{
angle = 90;
position = "{1247, 0}";
},
{
angle = 90;
position = "{727, 0}";
},
{
angle = 90;
position = "{729, 0}";
},
{
angle = 90;
position = "{72, 0}";
},
{
angle = 90;
position = "{57, 0}";
},
{
angle = 90;
position = "{778, 0}";
},
{
angle = 90;
position = "{586, 0}";
}
);
layerId = "5bc31741-97d3-4d5f-bc2e-c74aacfe0c49";
paths = (
{
closed = 1;
nodes = (
"586 0 LINE",
"586 172 LINE",
"438 172 LINE",
"438 779 LINE",
"516 840 OFFCURVE",
"608 887 OFFCURVE",
"694 887 CURVE SMOOTH",
"843 887 OFFCURVE",
"927 803 OFFCURVE",
"927 645 CURVE SMOOTH",
"927 172 LINE",
"778 172 LINE",
"778 0 LINE",
"1270 0 LINE",
"1270 172 LINE",
"1122 172 LINE",
"1122 668 LINE SMOOTH",
"1122 936 OFFCURVE",
"981 1055 OFFCURVE",
"759 1055 CURVE SMOOTH",
"631 1055 OFFCURVE",
"524 993 OFFCURVE",
"432 915 CURVE",
"432 1037 LINE",
"432 1037 LINE",
"432 1037 LINE",
"92 1037 LINE",
"92 865 LINE",
"243 865 LINE",
"243 172 LINE",
"94 172 LINE",
"94 0 LINE"
);
}
);
width = 1352;
},
{
anchors = (
{
name = top;
position = "{834, 1036}";
}
);
guideLines = (
{
position = "{0, 1135}";
},
{
position = "{0, 637}";
},
{
position = "{0, 1036}";
},
{
position = "{0, 336}";
},
{
angle = 90;
position = "{1436, 0}";
},
{
angle = 90;
position = "{918, 0}";
},
{
angle = 90;
position = "{920, 0}";
},
{
angle = 90;
position = "{262, 0}";
},
{
angle = 90;
position = "{63, 0}";
},
{
angle = 90;
position = "{758, 0}";
},
{
angle = 90;
position = "{565, 0}";
}
);
layerId = "5ff15c72-4ade-48a9-9f0f-2c5166e9b845";
paths = (
{
closed = 1;
nodes = (
"704 0 LINE",
"704 274 LINE",
"537 274 LINE",
"537 673 LINE",
"603 757 OFFCURVE",
"676 782 OFFCURVE",
"746 782 CURVE SMOOTH",
"846 782 OFFCURVE",
"914 711 OFFCURVE",
"914 596 CURVE SMOOTH",
"914 274 LINE",
"913 274 LINE",
"913 0 LINE",
"1386 0 LINE",
"1386 274 LINE",
"1239 274 LINE",
"1239 645 LINE SMOOTH",
"1239 911 OFFCURVE",
"1098 1055 OFFCURVE",
"850 1055 CURVE SMOOTH",
"733 1055 OFFCURVE",
"622 1013 OFFCURVE",
"535 945 CURVE",
"535 1036 LINE",
"530 1036 LINE",
"530 1037 LINE",
"64 1037 LINE",
"64 762 LINE",
"213 762 LINE",
"213 274 LINE",
"62 274 LINE",
"62 0 LINE"
);
}
);
width = 1395;
}
);
unicode = 006E;
},
{
glyphname = o;
layers = (
{
anchors = (
{
name = bottom;
position = "{610, -236}";
},
{
name = top;
position = "{608, 1036}";
}
);
guideLines = (
{
position = "{0, 336}";
},
{
angle = 90;
position = "{0, 0}";
}
);
layerId = "5bc31741-97d3-4d5f-bc2e-c74aacfe0c49";
paths = (
{
closed = 1;
nodes = (
"92 193 OFFCURVE",
"297 -31 OFFCURVE",
"608 -31 CURVE SMOOTH",
"924 -31 OFFCURVE",
"1126 190 OFFCURVE",
"1126 520 CURVE SMOOTH",
"1126 848 OFFCURVE",
"915 1067 OFFCURVE",
"608 1067 CURVE SMOOTH",
"303 1067 OFFCURVE",
"92 844 OFFCURVE",
"92 518 CURVE SMOOTH"
);
},
{
closed = 1;
nodes = (
"285 770 OFFCURVE",
"432 907 OFFCURVE",
"608 907 CURVE SMOOTH",
"793 907 OFFCURVE",
"934 770 OFFCURVE",
"934 518 CURVE SMOOTH",
"934 279 OFFCURVE",
"791 131 OFFCURVE",
"608 131 CURVE SMOOTH",
"432 131 OFFCURVE",
"285 281 OFFCURVE",
"285 518 CURVE SMOOTH"
);
}
);
width = 1219;
},
{
anchors = (
{
name = bottom;
position = "{612, -236}";
},
{
name = top;
position = "{610, 1036}";
}
);
guideLines = (
{
position = "{0, 336}";
},
{
angle = 90;
position = "{2, 0}";
}
);
layerId = "5ff15c72-4ade-48a9-9f0f-2c5166e9b845";
paths = (
{
closed = 1;
nodes = (
"72 219 OFFCURVE",
"291 -25 OFFCURVE",
"623 -25 CURVE SMOOTH",
"954 -25 OFFCURVE",
"1174 221 OFFCURVE",
"1174 522 CURVE SMOOTH",
"1174 823 OFFCURVE",
"946 1067 OFFCURVE",
"623 1067 CURVE SMOOTH",
"301 1067 OFFCURVE",
"72 823 OFFCURVE",
"72 522 CURVE SMOOTH"
);
},
{
closed = 1;
nodes = (
"371 688 OFFCURVE",
"485 791 OFFCURVE",
"623 791 CURVE SMOOTH",
"764 791 OFFCURVE",
"872 688 OFFCURVE",
"872 522 CURVE SMOOTH",
"872 362 OFFCURVE",
"764 252 OFFCURVE",
"623 252 CURVE SMOOTH",
"485 252 OFFCURVE",
"371 365 OFFCURVE",
"371 522 CURVE SMOOTH"
);
}
);
width = 1245;
}
);
unicode = 006F;
},
{
glyphname = p;
layers = (
{
anchors = (
{
name = top;
position = "{608, 1036}";
}
);
guideLines = (
{
position = "{0, -664}";
},
{
angle = 90;
position = "{51, 0}";
}
);
layerId = "5bc31741-97d3-4d5f-bc2e-c74aacfe0c49";
paths = (
{
closed = 1;
nodes = (
"59 865 LINE",
"203 865 LINE",
"203 -299 LINE",
"61 -299 LINE",
"61 -471 LINE",
"553 -471 LINE",
"553 -299 LINE",
"391 -299 LINE",
"391 36 LINE",
"465 1 OFFCURVE",
"544 -23 OFFCURVE",
"649 -23 CURVE SMOOTH",
"944 -23 OFFCURVE",
"1157 205 OFFCURVE",
"1157 537 CURVE SMOOTH",
"1157 848 OFFCURVE",
"965 1061 OFFCURVE",
"694 1061 CURVE",
"694 1061 OFFCURVE",
"694 1061 OFFCURVE",
"694 1061 CURVE",
"694 1061 LINE",
"694 1061 LINE",
"694 1061 LINE",
"584 1061 OFFCURVE",
"477 1017 OFFCURVE",
"389 950 CURVE",
"389 1037 LINE",
"59 1037 LINE"
);
},
{
closed = 1;
nodes = (
"821 897 OFFCURVE",
"965 764 OFFCURVE",
"965 530 CURVE SMOOTH",
"965 274 OFFCURVE",
"811 139 OFFCURVE",
"639 139 CURVE SMOOTH",
"517 139 OFFCURVE",
"435 182 OFFCURVE",
"391 227 CURVE",
"391 788 LINE",
"456 855 OFFCURVE",
"549 897 OFFCURVE",
"645 897 CURVE SMOOTH"
);
}
);
width = 1249;
},
{
anchors = (
{
name = top;
position = "{737, 1036}";
}
);
guideLines = (
{
position = "{0, -664}";
},
{
angle = 90;
position = "{180, 0}";
}
);
layerId = "5ff15c72-4ade-48a9-9f0f-2c5166e9b845";
paths = (
{
closed = 1;
nodes = (
"119 762 LINE",
"231 762 LINE",
"231 -197 LINE",
"61 -197 LINE",
"61 -471 LINE",
"737 -471 LINE",
"737 -197 LINE",
"539 -197 LINE",
"539 30 LINE",
"609 -1 OFFCURVE",
"685 -18 OFFCURVE",
"772 -18 CURVE SMOOTH",
"1085 -18 OFFCURVE",
"1307 225 OFFCURVE",
"1307 524 CURVE SMOOTH",
"1307 821 OFFCURVE",
"1077 1067 OFFCURVE",
"772 1067 CURVE SMOOTH",
"702 1067 OFFCURVE",
"635 1049 OFFCURVE",
"572 1021 CURVE",
"572 1037 LINE",
"539 1037 LINE",
"539 1038 LINE",
"436 1038 OFFCURVE",
"334 1038 OFFCURVE",
"231 1038 CURVE",
"231 1037 LINE",
"119 1037 LINE"
);
},
{
closed = 1;
nodes = (
"889 791 OFFCURVE",
"1001 690 OFFCURVE",
"1001 522 CURVE SMOOTH",
"1001 369 OFFCURVE",
"887 258 OFFCURVE",
"750 258 CURVE SMOOTH",
"659 258 OFFCURVE",
"581 305 OFFCURVE",
"539 373 CURVE",
"539 665 LINE",
"589 745 OFFCURVE",
"666 791 OFFCURVE",
"750 791 CURVE SMOOTH"
);
}
);
width = 1368;
}
);
unicode = 0070;
},
{
glyphname = q;
layers = (
{
anchors = (
{
name = top;
position = "{641, 1036}";
}
);
guideLines = (
{
position = "{0, 1036}";
},
{
angle = 90;
position = "{0, 0}";
}
);
layerId = "5bc31741-97d3-4d5f-bc2e-c74aacfe0c49";
paths = (
{
closed = 1;
nodes = (
"698 -471 LINE",
"1190 -471 LINE",
"1190 -299 LINE",
"1035 -299 LINE",
"1035 1036 LINE",
"848 1036 LINE",
"848 990 LINE",
"773 1041 OFFCURVE",
"694 1061 OFFCURVE",
"596 1061 CURVE SMOOTH",
"293 1061 OFFCURVE",
"93 848 OFFCURVE",
"93 528 CURVE SMOOTH",
"93 176 OFFCURVE",
"306 -23 OFFCURVE",
"586 -23 CURVE SMOOTH",
"695 -23 OFFCURVE",
"783 16 OFFCURVE",
"848 80 CURVE",
"848 -299 LINE",
"698 -299 LINE"
);
},
{
closed = 1;
nodes = (
"420 139 OFFCURVE",
"285 274 OFFCURVE",
"285 530 CURVE SMOOTH",
"285 762 OFFCURVE",
"428 897 OFFCURVE",
"605 897 CURVE SMOOTH",
"693 897 OFFCURVE",
"783 874 OFFCURVE",
"848 821 CURVE",
"848 233 LINE",
"802 183 OFFCURVE",
"723 139 OFFCURVE",
"611 139 CURVE SMOOTH"
);
}
);
width = 1206;
},
{
anchors = (
{
name = top;
position = "{655, 1036}";
}
);
guideLines = (
{
position = "{0, 1036}";
},
{
angle = 90;
position = "{6, 0}";
}
);
layerId = "5ff15c72-4ade-48a9-9f0f-2c5166e9b845";
paths = (
{
closed = 1;
nodes = (
"606 -471 LINE",
"1282 -471 LINE",
"1282 -197 LINE",
"1128 -197 LINE",
"1128 1067 LINE",
"821 1067 LINE",
"821 1021 LINE",
"753 1050 OFFCURVE",
"680 1067 OFFCURVE",
"596 1067 CURVE SMOOTH",
"281 1067 OFFCURVE",
"61 823 OFFCURVE",
"61 528 CURVE SMOOTH",
"61 223 OFFCURVE",
"285 -20 OFFCURVE",
"602 -20 CURVE SMOOTH",
"677 -20 OFFCURVE",
"751 2 OFFCURVE",
"821 37 CURVE",
"821 -197 LINE",
"606 -197 LINE"
);
},
{
closed = 1;
nodes = (
"481 258 OFFCURVE",
"367 358 OFFCURVE",
"367 524 CURVE SMOOTH",
"367 686 OFFCURVE",
"481 791 OFFCURVE",
"619 791 CURVE SMOOTH",
"698 791 OFFCURVE",
"774 751 OFFCURVE",
"821 686 CURVE",
"821 365 LINE",
"775 299 OFFCURVE",
"703 258 OFFCURVE",
"621 258 CURVE SMOOTH"
);
}
);
width = 1333;
}
);
unicode = 0071;
},
{
glyphname = r;
layers = (
{
anchors = (
{
name = top;
position = "{403, 1036}";
}
);
guideLines = (
{
position = "{0, 1264}";
},
{
position = "{0, 532}";
},
{
position = "{0, 803}";
},
{
position = "{0, 1036}";
},
{
angle = 90;
position = "{848, 0}";
},
{
angle = 90;
position = "{799, 0}";
},
{
angle = 90;
position = "{63, 0}";
},
{
angle = 90;
position = "{0, 0}";
}
);
layerId = "5bc31741-97d3-4d5f-bc2e-c74aacfe0c49";
paths = (
{
closed = 1;
nodes = (
"813 1042 LINE",
"752 1044 OFFCURVE",
"692 1044 OFFCURVE",
"623 1044 CURVE SMOOTH",
"519 1044 OFFCURVE",
"446 979 OFFCURVE",
"399 893 CURVE",
"399 1037 LINE",
"399 1037 LINE",
"399 1037 LINE",
"65 1037 LINE",
"65 865 LINE",
"211 865 LINE",
"211 172 LINE",
"65 172 LINE",
"65 0 LINE",
"582 0 LINE",
"582 172 LINE",
"406 172 LINE",
"406 672 LINE",
"432 816 OFFCURVE",
"534 881 OFFCURVE",
"623 881 CURVE",
"623 817 LINE",
"813 817 LINE"
);
}
);
width = 877;
},
{
anchors = (
{
name = top;
position = "{549, 1036}";
}
);
guideLines = (
{
position = "{0, 1264}";
},
{
position = "{0, 532}";
},
{
position = "{0, 803}";
},
{
position = "{0, 1036}";
},
{
angle = 90;
position = "{993, 0}";
},
{
angle = 90;
position = "{944, 0}";
},
{
angle = 90;
position = "{72, 0}";
},
{
angle = 90;
position = "{0, 0}";
}
);
layerId = "5ff15c72-4ade-48a9-9f0f-2c5166e9b845";
paths = (
{
closed = 1;
nodes = (
"1019 1034 LINE",
"940 1034 OFFCURVE",
"841 1036 OFFCURVE",
"753 1036 CURVE SMOOTH",
"667 1036 OFFCURVE",
"592 1010 OFFCURVE",
"534 963 CURVE",
"534 1036 LINE",
"532 1036 LINE",
"532 1037 LINE",
"72 1037 LINE",
"72 762 LINE",
"227 762 LINE",
"227 274 LINE",
"71 274 LINE",
"71 0 LINE",
"747 0 LINE",
"747 274 LINE",
"536 274 LINE",
"536 644 LINE",
"553 740 OFFCURVE",
"627 766 OFFCURVE",
"739 766 CURVE",
"739 659 LINE",
"1019 659 LINE"
);
}
);
width = 1071;
}
);
unicode = 0072;
},
{
glyphname = s;
layers = (
{
anchors = (
{
name = top;
position = "{492, 1036}";
}
);
guideLines = (
{
position = "{0, -27}";
},
{
position = "{0, 1079}";
},
{
angle = 90;
position = "{41, 0}";
},
{
angle = 90;
position = "{41, 0}";
},
{
angle = 90;
position = "{492, 0}";
},
{
angle = 90;
position = "{721, 0}";
}
);
layerId = "5bc31741-97d3-4d5f-bc2e-c74aacfe0c49";
paths = (
{
closed = 1;
nodes = (
"903 758 LINE",
"903 930 LINE",
"805 930 LINE",
"753 1004 OFFCURVE",
"647 1061 OFFCURVE",
"485 1061 CURVE SMOOTH",
"256 1061 OFFCURVE",
"123 934 OFFCURVE",
"123 762 CURVE SMOOTH",
"123 633 OFFCURVE",
"207 536 OFFCURVE",
"358 481 CURVE SMOOTH",
"526 419 OFFCURVE",
"702 393 OFFCURVE",
"702 264 CURVE SMOOTH",
"702 172 OFFCURVE",
"610 117 OFFCURVE",
"504 117 CURVE SMOOTH",
"397 117 OFFCURVE",
"289 160 OFFCURVE",
"289 283 CURVE",
"82 283 LINE",
"82 111 LINE",
"186 111 LINE",
"240 27 OFFCURVE",
"339 -29 OFFCURVE",
"500 -29 CURVE SMOOTH",
"735 -29 OFFCURVE",
"885 94 OFFCURVE",
"885 279 CURVE SMOOTH",
"885 416 OFFCURVE",
"809 516 OFFCURVE",
"639 573 CURVE",
"573 597 OFFCURVE",
"506 620 OFFCURVE",
"440 643 CURVE SMOOTH",
"342 677 OFFCURVE",
"303 713 OFFCURVE",
"303 782 CURVE SMOOTH",
"303 865 OFFCURVE",
"377 915 OFFCURVE",
"485 915 CURVE SMOOTH",
"582 915 OFFCURVE",
"698 870 OFFCURVE",
"698 758 CURVE"
);
}
);
width = 993;
},
{
anchors = (
{
name = top;
position = "{487, 1036}";
}
);
guideLines = (
{
position = "{0, -27}";
},
{
position = "{0, 1087}";
},
{
angle = 90;
position = "{20, 0}";
},
{
angle = 90;
position = "{20, 0}";
},
{
angle = 90;
position = "{356, 0}";
},
{
angle = 90;
position = "{721, 0}";
}
);
layerId = "5ff15c72-4ade-48a9-9f0f-2c5166e9b845";
paths = (
{
closed = 1;
nodes = (
"999 719 LINE",
"999 997 LINE",
"825 997 LINE",
"764 1045 OFFCURVE",
"671 1087 OFFCURVE",
"504 1087 CURVE SMOOTH",
"260 1087 OFFCURVE",
"61 954 OFFCURVE",
"61 754 CURVE SMOOTH",
"61 612 OFFCURVE",
"148 513 OFFCURVE",
"316 457 CURVE SMOOTH",
"451 413 OFFCURVE",
"709 403 OFFCURVE",
"709 305 CURVE SMOOTH",
"709 256 OFFCURVE",
"657 221 OFFCURVE",
"537 221 CURVE SMOOTH",
"431 221 OFFCURVE",
"338 264 OFFCURVE",
"338 344 CURVE",
"55 344 LINE",
"55 66 LINE",
"236 66 LINE",
"299 13 OFFCURVE",
"387 -25 OFFCURVE",
"537 -25 CURVE SMOOTH",
"766 -25 OFFCURVE",
"1010 94 OFFCURVE",
"1010 332 CURVE SMOOTH",
"1010 459 OFFCURVE",
"948 557 OFFCURVE",
"770 616 CURVE SMOOTH",
"685 644 OFFCURVE",
"565 664 OFFCURVE",
"461 684 CURVE SMOOTH",
"387 698 OFFCURVE",
"371 729 OFFCURVE",
"371 760 CURVE SMOOTH",
"371 825 OFFCURVE",
"453 840 OFFCURVE",
"508 840 CURVE SMOOTH",
"655 840 OFFCURVE",
"741 784 OFFCURVE",
"741 719 CURVE"
);
}
);
width = 1102;
}
);
unicode = 0073;
},
{
glyphname = t;
layers = (
{
layerId = "5bc31741-97d3-4d5f-bc2e-c74aacfe0c49";
paths = (
{
closed = 1;
nodes = (
"401 1370 LINE",
"219 1284 LINE",
"217 1036 LINE",
"51 1036 LINE",
"51 885 LINE",
"216 885 LINE",
"213 315 LINE",
"213 53 OFFCURVE",
"305 -25 OFFCURVE",
"485 -25 CURVE SMOOTH",
"580 -25 OFFCURVE",
"647 -4 OFFCURVE",
"711 29 CURVE",
"668 154 LINE",
"618 135 OFFCURVE",
"567 121 OFFCURVE",
"524 121 CURVE SMOOTH",
"446 121 OFFCURVE",
"395 152 OFFCURVE",
"395 287 CURVE",
"398 885 LINE",
"643 885 LINE",
"643 1036 LINE",
"399 1036 LINE"
);
}
);
width = 762;
},
{
layerId = "5ff15c72-4ade-48a9-9f0f-2c5166e9b845";
paths = (
{
closed = 1;
nodes = (
"473 1432 LINE",
"162 1284 LINE",
"160 1036 LINE",
"10 1036 LINE",
"10 774 LINE",
"159 774 LINE",
"156 315 LINE SMOOTH",
"154 88 OFFCURVE",
"299 -25 OFFCURVE",
"461 -25 CURVE SMOOTH",
"575 -25 OFFCURVE",
"655 2 OFFCURVE",
"723 45 CURVE",
"680 238 LINE",
"641 225 OFFCURVE",
"606 213 OFFCURVE",
"555 213 CURVE SMOOTH",
"500 213 OFFCURVE",
"467 236 OFFCURVE",
"467 336 CURVE",
"469 774 LINE",
"678 774 LINE",
"678 1036 LINE",
"471 1036 LINE"
);
}
);
width = 743;
}
);
unicode = 0074;
},
{
glyphname = u;
layers = (
{
anchors = (
{
name = top;
position = "{575, 1036}";
}
);
layerId = "5bc31741-97d3-4d5f-bc2e-c74aacfe0c49";
paths = (
{
closed = 1;
nodes = (
"683 865 LINE",
"824 865 LINE",
"824 234 LINE",
"745 181 OFFCURVE",
"649 150 OFFCURVE",
"568 150 CURVE SMOOTH",
"431 150 OFFCURVE",
"355 233 OFFCURVE",
"355 391 CURVE SMOOTH",
"355 1036 LINE",
"350 1037 LINE",
"20 1037 LINE",
"20 865 LINE",
"160 865 LINE",
"160 369 LINE SMOOTH",
"160 100 OFFCURVE",
"293 -18 OFFCURVE",
"502 -18 CURVE SMOOTH",
"627 -18 OFFCURVE",
"739 25 OFFCURVE",
"832 96 CURVE",
"832 0 LINE",
"1132 0 LINE",
"1132 172 LINE",
"1018 172 LINE",
"1018 1036 LINE",
"1013 1037 LINE",
"683 1037 LINE"
);
}
);
width = 1198;
},
{
anchors = (
{
name = top;
position = "{641, 1036}";
}
);
layerId = "5ff15c72-4ade-48a9-9f0f-2c5166e9b845";
paths = (
{
closed = 1;
nodes = (
"694 762 LINE",
"860 762 LINE",
"860 356 LINE",
"831 273 OFFCURVE",
"759 219 OFFCURVE",
"679 219 CURVE SMOOTH",
"567 219 OFFCURVE",
"489 287 OFFCURVE",
"489 426 CURVE SMOOTH",
"489 1036 LINE",
"483 1037 LINE",
"30 1037 LINE",
"30 762 LINE",
"165 762 LINE",
"165 426 LINE SMOOTH",
"165 131 OFFCURVE",
"352 -12 OFFCURVE",
"581 -12 CURVE SMOOTH",
"704 -12 OFFCURVE",
"800 24 OFFCURVE",
"870 88 CURVE",
"870 0 LINE",
"1308 0 LINE",
"1308 274 LINE",
"1183 274 LINE",
"1183 1036 LINE",
"1147 1037 LINE",
"694 1037 LINE"
);
}
);
width = 1350;
}
);
unicode = 0075;
},
{
glyphname = v;
layers = (
{
anchors = (
{
name = top;
position = "{535, 1036}";
}
);
guideLines = (
{
position = "{0, 969}";
},
{
angle = 90;
position = "{0, 0}";
}
);
layerId = "5bc31741-97d3-4d5f-bc2e-c74aacfe0c49";
paths = (
{
closed = 1;
nodes = (
"38 865 LINE",
"121 865 LINE",
"438 -16 LINE",
"625 -16 LINE",
"942 865 LINE",
"1032 865 LINE",
"1032 1037 LINE",
"702 1037 LINE",
"702 865 LINE",
"766 865 LINE",
"532 150 LINE",
"298 865 LINE",
"368 865 LINE",
"368 1037 LINE",
"38 1037 LINE"
);
}
);
width = 1067;
},
{
anchors = (
{
name = top;
position = "{598, 1036}";
}
);
guideLines = (
{
position = "{0, 969}";
},
{
angle = 90;
position = "{-33, 0}";
}
);
layerId = "5ff15c72-4ade-48a9-9f0f-2c5166e9b845";
paths = (
{
closed = 1;
nodes = (
"40 762 LINE",
"155 762 LINE",
"464 -4 LINE",
"770 -4 LINE",
"1079 762 LINE",
"1216 762 LINE",
"1216 1037 LINE",
"675 1037 LINE",
"675 762 LINE",
"788 762 LINE",
"624 317 LINE",
"455 762 LINE",
"581 762 LINE",
"581 1037 LINE",
"40 1037 LINE"
);
}
);
width = 1257;
}
);
unicode = 0076;
},
{
glyphname = w;
layers = (
{
anchors = (
{
name = top;
position = "{762, 1036}";
}
);
guideLines = (
{
position = "{0, 1710}";
},
{
position = "{0, -170}";
},
{
position = "{0, 301}";
},
{
position = "{0, 969}";
},
{
angle = 90;
position = "{-1319, 0}";
},
{
angle = 90;
position = "{0, 0}";
},
{
angle = 90;
position = "{0, 0}";
},
{
angle = 90;
position = "{0, 0}";
}
);
layerId = "5bc31741-97d3-4d5f-bc2e-c74aacfe0c49";
paths = (
{
closed = 1;
nodes = (
"-17 865 LINE",
"71 865 LINE",
"354 -16 LINE",
"528 -16 LINE",
"762 811 LINE",
"768 811 LINE",
"997 -16 LINE",
"1169 -16 LINE",
"1454 865 LINE",
"1544 865 LINE",
"1544 1037 LINE",
"1214 1037 LINE",
"1214 865 LINE",
"1275 865 LINE",
"1085 205 LINE",
"848 1036 LINE",
"692 1036 LINE",
"444 203 LINE",
"264 865 LINE",
"313 865 LINE",
"313 1037 LINE",
"-17 1037 LINE"
);
}
);
width = 1507;
},
{
anchors = (
{
name = top;
position = "{854, 1036}";
}
);
guideLines = (
{
position = "{0, 1710}";
},
{
position = "{0, -170}";
},
{
position = "{0, 301}";
},
{
position = "{0, 969}";
},
{
angle = 90;
position = "{-1227, 0}";
},
{
angle = 90;
position = "{-4, 0}";
},
{
angle = 90;
position = "{-4, 0}";
},
{
angle = 90;
position = "{-4, 0}";
}
);
layerId = "5ff15c72-4ade-48a9-9f0f-2c5166e9b845";
paths = (
{
closed = 1;
nodes = (
"40 762 LINE",
"157 762 LINE",
"414 -4 LINE",
"704 -4 LINE",
"926 657 LINE",
"930 657 LINE",
"1143 -4 LINE",
"1442 -4 LINE",
"1719 762 LINE",
"1857 762 LINE",
"1857 1037 LINE",
"1316 1037 LINE",
"1316 762 LINE",
"1428 762 LINE",
"1296 360 LINE",
"1081 1036 LINE",
"788 1036 LINE",
"575 393 LINE",
"465 762 LINE",
"581 762 LINE",
"581 1037 LINE",
"40 1037 LINE"
);
}
);
width = 1898;
}
);
unicode = 0077;
},
{
glyphname = x;
layers = (
{
anchors = (
{
name = top;
position = "{541, 1036}";
}
);
guideLines = (
{
position = "{0, 1036}";
},
{
angle = 90;
position = "{1116, 0}";
},
{
angle = 90;
position = "{150, 0}";
},
{
angle = 90;
position = "{573, 0}";
},
{
angle = 90;
position = "{698, 0}";
}
);
layerId = "5bc31741-97d3-4d5f-bc2e-c74aacfe0c49";
paths = (
{
closed = 1;
nodes = (
"684 0 LINE",
"1028 0 LINE",
"1028 172 LINE",
"952 172 LINE",
"848 290 OFFCURVE",
"745 408 OFFCURVE",
"641 526 CURVE",
"739 639 OFFCURVE",
"838 752 OFFCURVE",
"936 865 CURVE",
"1024 865 LINE",
"1024 1037 LINE",
"680 1037 LINE",
"680 865 LINE",
"731 865 LINE",
"666 783 OFFCURVE",
"602 700 OFFCURVE",
"537 618 CURVE",
"472 699 OFFCURVE",
"409 782 OFFCURVE",
"345 865 CURVE",
"385 865 LINE",
"385 1037 LINE",
"41 1037 LINE",
"41 865 LINE",
"144 865 LINE",
"243 756 OFFCURVE",
"343 647 OFFCURVE",
"442 538 CURVE",
"337 416 OFFCURVE",
"232 294 OFFCURVE",
"127 172 CURVE",
"43 172 LINE",
"43 0 LINE",
"387 0 LINE",
"387 172 LINE",
"336 172 LINE",
"403 257 OFFCURVE",
"470 343 OFFCURVE",
"537 428 CURVE",
"600 339 OFFCURVE",
"673 257 OFFCURVE",
"742 172 CURVE",
"684 172 LINE"
);
}
);
width = 1085;
},
{
anchors = (
{
name = top;
position = "{627, 1036}";
}
);
guideLines = (
{
position = "{0, 1036}";
},
{
angle = 90;
position = "{1130, 0}";
},
{
angle = 90;
position = "{104, 0}";
},
{
angle = 90;
position = "{555, 0}";
},
{
angle = 90;
position = "{680, 0}";
}
);
layerId = "5ff15c72-4ade-48a9-9f0f-2c5166e9b845";
paths = (
{
closed = 1;
nodes = (
"687 0 LINE",
"1174 0 LINE",
"1174 274 LINE",
"1071 274 LINE",
"987 358 OFFCURVE",
"902 441 OFFCURVE",
"818 525 CURVE",
"898 604 OFFCURVE",
"977 683 OFFCURVE",
"1057 762 CURVE",
"1172 762 LINE",
"1172 1037 LINE",
"685 1037 LINE",
"685 762 LINE",
"739 762 LINE",
"700 726 OFFCURVE",
"662 691 OFFCURVE",
"623 655 CURVE",
"581 676 OFFCURVE",
"538 729 OFFCURVE",
"502 762 CURVE",
"549 762 LINE",
"549 1037 LINE",
"62 1037 LINE",
"62 762 LINE",
"183 762 LINE",
"262 683 OFFCURVE",
"342 605 OFFCURVE",
"421 526 CURVE",
"335 442 OFFCURVE",
"250 358 OFFCURVE",
"164 274 CURVE",
"62 274 LINE",
"62 0 LINE",
"549 0 LINE",
"549 274 LINE",
"482 274 LINE",
"527 315 OFFCURVE",
"571 356 OFFCURVE",
"616 397 CURVE",
"658 355 OFFCURVE",
"702 314 OFFCURVE",
"745 274 CURVE",
"687 274 LINE"
);
}
);
width = 1235;
}
);
unicode = 0078;
},
{
glyphname = y;
layers = (
{
anchors = (
{
name = top;
position = "{555, 1036}";
}
);
layerId = "5bc31741-97d3-4d5f-bc2e-c74aacfe0c49";
paths = (
{
closed = 1;
nodes = (
"32 865 LINE",
"115 865 LINE",
"461 -14 LINE",
"351 -299 LINE",
"224 -299 LINE",
"224 -471 LINE",
"643 -471 LINE",
"643 -299 LINE",
"501 -299 LINE",
"963 865 LINE",
"1071 865 LINE",
"1071 1037 LINE",
"677 1037 LINE",
"677 865 LINE",
"799 865 LINE",
"544 203 LINE",
"301 865 LINE",
"426 865 LINE",
"426 1037 LINE",
"32 1037 LINE"
);
}
);
width = 1176;
},
{
anchors = (
{
name = top;
position = "{618, 1036}";
}
);
layerId = "5ff15c72-4ade-48a9-9f0f-2c5166e9b845";
paths = (
{
closed = 1;
nodes = (
"52 762 LINE",
"156 762 LINE",
"479 -1 LINE",
"402 -197 LINE",
"222 -197 LINE",
"222 -471 LINE",
"864 -471 LINE",
"864 -197 LINE",
"685 -197 LINE",
"1087 762 LINE",
"1200 762 LINE",
"1200 1037 LINE",
"693 1037 LINE",
"693 762 LINE",
"781 762 LINE",
"628 373 LINE",
"479 762 LINE",
"559 762 LINE",
"559 1037 LINE",
"52 1037 LINE"
);
}
);
width = 1241;
}
);
unicode = 0079;
},
{
glyphname = z;
layers = (
{
anchors = (
{
name = top;
position = "{512, 1036}";
}
);
associatedMasterId = "5ff15c72-4ade-48a9-9f0f-2c5166e9b845";
layerId = "5f0a847c-3ecf-40d8-833d-a0a2a194d8a6";
name = img;
width = 0;
},
{
anchors = (
{
name = top;
position = "{459, 1036}";
}
);
guideLines = (
{
position = "{0, -639}";
},
{
angle = 90;
position = "{0, 0}";
}
);
layerId = "5bc31741-97d3-4d5f-bc2e-c74aacfe0c49";
paths = (
{
closed = 1;
nodes = (
"76 0 LINE",
"850 0 LINE",
"850 332 LINE",
"657 332 LINE",
"657 156 LINE",
"303 156 LINE",
"827 918 LINE",
"827 1036 LINE",
"86 1036 LINE",
"86 735 LINE",
"270 735 LINE",
"270 881 LINE",
"601 881 LINE",
"76 115 LINE"
);
}
);
width = 924;
},
{
anchors = (
{
name = top;
position = "{512, 1036}";
}
);
guideLines = (
{
position = "{0, -639}";
},
{
angle = 90;
position = "{0, 0}";
}
);
layerId = "5ff15c72-4ade-48a9-9f0f-2c5166e9b845";
paths = (
{
closed = 1;
nodes = (
"94 0 LINE",
"1010 0 LINE",
"1010 467 LINE",
"748 467 LINE",
"748 268 LINE",
"518 268 LINE",
"969 856 LINE",
"969 1036 LINE",
"61 1036 LINE",
"61 614 LINE",
"322 614 LINE",
"322 770 LINE",
"523 770 LINE",
"94 164 LINE"
);
}
);
width = 1081;
}
);
unicode = 007A;
},
{
glyphname = comma;
layers = (
{
layerId = "5bc31741-97d3-4d5f-bc2e-c74aacfe0c49";
paths = (
{
closed = 1;
nodes = (
"20 -287 LINE",
"164 -340 LINE",
"424 197 LINE",
"205 283 LINE"
);
}
);
width = 569;
},
{
layerId = "5ff15c72-4ade-48a9-9f0f-2c5166e9b845";
paths = (
{
closed = 1;
nodes = (
"20 -287 LINE",
"225 -365 LINE",
"510 176 LINE",
"205 283 LINE"
);
}
);
width = 532;
}
);
unicode = 002C;
},
{
glyphname = hyphen;
layers = (
{
layerId = "5bc31741-97d3-4d5f-bc2e-c74aacfe0c49";
paths = (
{
closed = 1;
nodes = (
"645 496 LINE",
"645 668 LINE",
"94 668 LINE",
"94 496 LINE"
);
}
);
width = 737;
},
{
layerId = "5ff15c72-4ade-48a9-9f0f-2c5166e9b845";
paths = (
{
closed = 1;
nodes = (
"688 449 LINE",
"688 723 LINE",
"61 723 LINE",
"61 449 LINE"
);
}
);
width = 770;
}
);
unicode = 002D;
},
{
glyphname = zero;
layers = (
{
guideLines = (
{
position = "{0, 1229}";
},
{
position = "{0, -14}";
}
);
layerId = "5bc31741-97d3-4d5f-bc2e-c74aacfe0c49";
paths = (
{
closed = 1;
nodes = (
"1090 -18 OFFCURVE",
"1227 328 OFFCURVE",
"1227 762 CURVE SMOOTH",
"1227 1167 OFFCURVE",
"1102 1540 OFFCURVE",
"657 1540 CURVE SMOOTH",
"215 1540 OFFCURVE",
"88 1169 OFFCURVE",
"88 756 CURVE SMOOTH",
"88 324 OFFCURVE",
"223 -18 OFFCURVE",
"655 -18 CURVE SMOOTH"
);
},
{
closed = 1;
nodes = (
"342 160 OFFCURVE",
"293 432 OFFCURVE",
"293 762 CURVE SMOOTH",
"293 1079 OFFCURVE",
"344 1368 OFFCURVE",
"657 1368 CURVE SMOOTH",
"965 1368 OFFCURVE",
"1024 1079 OFFCURVE",
"1024 762 CURVE SMOOTH",
"1024 432 OFFCURVE",
"971 160 OFFCURVE",
"655 160 CURVE SMOOTH"
);
}
);
width = 1221;
},
{
guideLines = (
{
position = "{0, 1229}";
},
{
position = "{0, -14}";
}
);
layerId = "5ff15c72-4ade-48a9-9f0f-2c5166e9b845";
paths = (
{
closed = 1;
nodes = (
"1100 -14 OFFCURVE",
"1264 332 OFFCURVE",
"1264 762 CURVE SMOOTH",
"1264 1186 OFFCURVE",
"1106 1534 OFFCURVE",
"674 1534 CURVE SMOOTH",
"236 1534 OFFCURVE",
"82 1180 OFFCURVE",
"82 754 CURVE SMOOTH",
"82 322 OFFCURVE",
"246 -14 OFFCURVE",
"672 -14 CURVE SMOOTH"
);
},
{
closed = 1;
nodes = (
"436 293 OFFCURVE",
"406 492 OFFCURVE",
"406 762 CURVE SMOOTH",
"406 1026 OFFCURVE",
"436 1231 OFFCURVE",
"674 1231 CURVE SMOOTH",
"909 1231 OFFCURVE",
"938 1026 OFFCURVE",
"938 762 CURVE SMOOTH",
"938 492 OFFCURVE",
"909 293 OFFCURVE",
"672 293 CURVE SMOOTH"
);
}
);
width = 1296;
}
);
unicode = 0030;
},
{
glyphname = one;
layers = (
{
layerId = "5bc31741-97d3-4d5f-bc2e-c74aacfe0c49";
paths = (
{
closed = 1;
nodes = (
"242 0 LINE",
"734 0 LINE",
"734 172 LINE",
"584 172 LINE",
"584 1559 LINE",
"504 1559 LINE",
"82 1323 LINE",
"82 1114 LINE",
"389 1281 LINE",
"389 172 LINE",
"242 172 LINE"
);
}
);
width = 858;
},
{
layerId = "5ff15c72-4ade-48a9-9f0f-2c5166e9b845";
paths = (
{
closed = 1;
nodes = (
"114 0 LINE",
"763 0 LINE",
"763 274 LINE",
"604 274 LINE",
"604 1518 LINE",
"459 1520 LINE",
"41 1274 LINE",
"41 926 LINE",
"274 1065 LINE",
"274 274 LINE",
"114 274 LINE"
);
}
);
width = 815;
}
);
unicode = 0031;
},
{
glyphname = two;
layers = (
{
layerId = "5bc31741-97d3-4d5f-bc2e-c74aacfe0c49";
paths = (
{
closed = 1;
nodes = (
"88 0 LINE",
"977 0 LINE",
"977 176 LINE",
"330 176 LINE",
"803 739 LINE",
"938 901 OFFCURVE",
"979 1020 OFFCURVE",
"979 1116 CURVE SMOOTH",
"979 1358 OFFCURVE",
"799 1542 OFFCURVE",
"528 1542 CURVE SMOOTH",
"293 1542 OFFCURVE",
"88 1358 OFFCURVE",
"86 1104 CURVE",
"266 1104 LINE",
"272 1270 OFFCURVE",
"387 1358 OFFCURVE",
"526 1358 CURVE SMOOTH",
"680 1358 OFFCURVE",
"791 1249 OFFCURVE",
"791 1116 CURVE SMOOTH",
"791 989 OFFCURVE",
"692 877 OFFCURVE",
"621 791 CURVE",
"88 147 LINE"
);
}
);
width = 1100;
},
{
layerId = "5ff15c72-4ade-48a9-9f0f-2c5166e9b845";
paths = (
{
closed = 1;
nodes = (
"127 0 LINE",
"1116 0 LINE",
"1116 307 LINE",
"551 307 LINE",
"983 774 LINE",
"1065 866 OFFCURVE",
"1118 965 OFFCURVE",
"1118 1083 CURVE SMOOTH",
"1118 1378 OFFCURVE",
"887 1540 OFFCURVE",
"623 1540 CURVE SMOOTH",
"342 1540 OFFCURVE",
"119 1360 OFFCURVE",
"119 1044 CURVE",
"420 1044 LINE",
"424 1151 OFFCURVE",
"487 1241 OFFCURVE",
"618 1241 CURVE SMOOTH",
"727 1241 OFFCURVE",
"793 1161 OFFCURVE",
"793 1083 CURVE SMOOTH",
"793 993 OFFCURVE",
"741 905 OFFCURVE",
"651 817 CURVE",
"127 260 LINE"
);
}
);
width = 1178;
}
);
unicode = 0032;
},
{
glyphname = three;
layers = (
{
layerId = "5bc31741-97d3-4d5f-bc2e-c74aacfe0c49";
paths = (
{
closed = 1;
nodes = (
"780 981 OFFCURVE",
"674 870 OFFCURVE",
"498 870 CURVE SMOOTH",
"428 870 LINE",
"428 719 LINE",
"514 719 LINE SMOOTH",
"668 719 OFFCURVE",
"799 612 OFFCURVE",
"799 444 CURVE SMOOTH",
"799 285 OFFCURVE",
"666 166 OFFCURVE",
"526 166 CURVE SMOOTH",
"373 166 OFFCURVE",
"272 242 OFFCURVE",
"233 365 CURVE",
"41 365 LINE",
"49 324 OFFCURVE",
"61 285 OFFCURVE",
"78 250 CURVE",
"156 76 OFFCURVE",
"319 -14 OFFCURVE",
"506 -14 CURVE SMOOTH",
"772 -14 OFFCURVE",
"987 180 OFFCURVE",
"987 442 CURVE SMOOTH",
"987 624 OFFCURVE",
"884 748 OFFCURVE",
"759 797 CURVE",
"911 871 OFFCURVE",
"971 1001 OFFCURVE",
"971 1130 CURVE SMOOTH",
"971 1339 OFFCURVE",
"786 1546 OFFCURVE",
"500 1546 CURVE SMOOTH",
"270 1546 OFFCURVE",
"78 1368 OFFCURVE",
"53 1153 CURVE",
"246 1151 LINE",
"246 1190 LINE SMOOTH",
"246 1237 OFFCURVE",
"348 1372 OFFCURVE",
"502 1372 CURVE SMOOTH",
"692 1372 OFFCURVE",
"780 1225 OFFCURVE",
"780 1120 CURVE SMOOTH"
);
}
);
width = 1110;
},
{
layerId = "5ff15c72-4ade-48a9-9f0f-2c5166e9b845";
paths = (
{
closed = 1;
nodes = (
"727 991 OFFCURVE",
"659 924 OFFCURVE",
"541 924 CURVE SMOOTH",
"399 924 LINE",
"399 651 LINE",
"539 651 LINE SMOOTH",
"668 651 OFFCURVE",
"748 573 OFFCURVE",
"748 465 CURVE SMOOTH",
"748 365 OFFCURVE",
"655 283 OFFCURVE",
"541 283 CURVE SMOOTH",
"414 283 OFFCURVE",
"338 348 OFFCURVE",
"330 487 CURVE",
"16 487 LINE",
"16 457 OFFCURVE",
"20 434 OFFCURVE",
"25 416 CURVE",
"43 170 OFFCURVE",
"258 -18 OFFCURVE",
"537 -18 CURVE SMOOTH",
"834 -18 OFFCURVE",
"1061 205 OFFCURVE",
"1061 467 CURVE SMOOTH",
"1061 617 OFFCURVE",
"984 743 OFFCURVE",
"889 797 CURVE",
"981 862 OFFCURVE",
"1038 974 OFFCURVE",
"1038 1102 CURVE SMOOTH",
"1038 1339 OFFCURVE",
"819 1550 OFFCURVE",
"535 1550 CURVE SMOOTH",
"236 1550 OFFCURVE",
"43 1325 OFFCURVE",
"39 1065 CURVE",
"350 1063 LINE",
"350 1098 LINE SMOOTH",
"350 1180 OFFCURVE",
"436 1251 OFFCURVE",
"535 1251 CURVE SMOOTH",
"651 1251 OFFCURVE",
"727 1163 OFFCURVE",
"727 1083 CURVE SMOOTH"
);
}
);
width = 1087;
}
);
unicode = 0033;
},
{
glyphname = four;
layers = (
{
layerId = "5bc31741-97d3-4d5f-bc2e-c74aacfe0c49";
paths = (
{
closed = 1;
nodes = (
"90 438 LINE",
"719 438 LINE",
"719 172 LINE",
"573 172 LINE",
"573 0 LINE",
"1065 0 LINE",
"1065 172 LINE",
"915 172 LINE",
"915 438 LINE",
"1141 438 LINE",
"1141 610 LINE",
"915 610 LINE",
"915 874 LINE",
"719 860 LINE",
"719 610 LINE",
"331 610 LINE",
"844 1516 LINE",
"631 1516 LINE",
"92 596 LINE"
);
}
);
width = 1251;
},
{
layerId = "5ff15c72-4ade-48a9-9f0f-2c5166e9b845";
paths = (
{
closed = 1;
nodes = (
"10 414 LINE",
"672 414 LINE",
"672 274 LINE",
"528 274 LINE",
"528 0 LINE",
"1177 0 LINE",
"1177 274 LINE",
"985 274 LINE",
"985 414 LINE",
"1196 414 LINE",
"1196 668 LINE",
"985 668 LINE",
"985 965 LINE",
"672 961 LINE",
"672 668 LINE",
"352 668 LINE",
"883 1516 LINE",
"549 1516 LINE",
"10 670 LINE"
);
}
);
width = 1231;
}
);
unicode = 0034;
},
{
glyphname = five;
layers = (
{
layerId = "5bc31741-97d3-4d5f-bc2e-c74aacfe0c49";
paths = (
{
closed = 1;
nodes = (
"317 1350 LINE",
"1006 1350 LINE",
"1006 1516 LINE",
"152 1516 LINE",
"152 725 LINE",
"299 702 LINE",
"358 766 OFFCURVE",
"453 807 OFFCURVE",
"559 807 CURVE SMOOTH",
"748 807 OFFCURVE",
"897 664 OFFCURVE",
"897 475 CURVE SMOOTH",
"897 289 OFFCURVE",
"750 137 OFFCURVE",
"559 137 CURVE SMOOTH",
"408 137 OFFCURVE",
"281 236 OFFCURVE",
"238 373 CURVE",
"74 291 LINE",
"145 104 OFFCURVE",
"322 -29 OFFCURVE",
"559 -29 CURVE SMOOTH",
"870 -29 OFFCURVE",
"1077 203 OFFCURVE",
"1077 475 CURVE SMOOTH",
"1077 745 OFFCURVE",
"866 973 OFFCURVE",
"567 973 CURVE SMOOTH",
"466 973 OFFCURVE",
"391 946 OFFCURVE",
"317 896 CURVE"
);
}
);
width = 1139;
},
{
layerId = "5ff15c72-4ade-48a9-9f0f-2c5166e9b845";
paths = (
{
closed = 1;
nodes = (
"436 1210 LINE",
"1110 1210 LINE",
"1110 1516 LINE",
"147 1516 LINE",
"147 709 LINE",
"418 659 LINE",
"483 690 OFFCURVE",
"541 707 OFFCURVE",
"627 707 CURVE SMOOTH",
"764 707 OFFCURVE",
"854 602 OFFCURVE",
"854 492 CURVE SMOOTH",
"854 362 OFFCURVE",
"768 260 OFFCURVE",
"639 260 CURVE SMOOTH",
"524 260 OFFCURVE",
"436 336 OFFCURVE",
"420 461 CURVE",
"111 377 LINE",
"160 106 OFFCURVE",
"379 -31 OFFCURVE",
"639 -31 CURVE SMOOTH",
"903 -31 OFFCURVE",
"1165 147 OFFCURVE",
"1165 485 CURVE SMOOTH",
"1165 799 OFFCURVE",
"930 969 OFFCURVE",
"659 969 CURVE SMOOTH",
"574 969 OFFCURVE",
"499 950 OFFCURVE",
"436 926 CURVE"
);
}
);
width = 1206;
}
);
unicode = 0035;
},
{
glyphname = six;
layers = (
{
layerId = "5bc31741-97d3-4d5f-bc2e-c74aacfe0c49";
paths = (
{
closed = 1;
nodes = (
"580 1518 LINE",
"211 850 LINE",
"145 725 OFFCURVE",
"94 614 OFFCURVE",
"94 496 CURVE SMOOTH",
"94 193 OFFCURVE",
"346 -12 OFFCURVE",
"618 -12 CURVE SMOOTH",
"905 -12 OFFCURVE",
"1151 182 OFFCURVE",
"1151 520 CURVE SMOOTH",
"1151 797 OFFCURVE",
"920 991 OFFCURVE",
"674 991 CURVE SMOOTH",
"622 991 OFFCURVE",
"556 992 OFFCURVE",
"475 957 CURVE",
"813 1518 LINE"
);
},
{
closed = 1;
nodes = (
"793 827 OFFCURVE",
"965 713 OFFCURVE",
"965 494 CURVE SMOOTH",
"965 297 OFFCURVE",
"805 162 OFFCURVE",
"623 162 CURVE SMOOTH",
"428 162 OFFCURVE",
"281 285 OFFCURVE",
"281 494 CURVE SMOOTH",
"281 555 OFFCURVE",
"290 610 OFFCURVE",
"307 658 CURVE",
"369 765 OFFCURVE",
"467 827 OFFCURVE",
"596 827 CURVE SMOOTH"
);
}
);
width = 1249;
},
{
layerId = "5ff15c72-4ade-48a9-9f0f-2c5166e9b845";
paths = (
{
closed = 1;
nodes = (
"563 1518 LINE",
"188 840 LINE SMOOTH",
"125 725 OFFCURVE",
"66 618 OFFCURVE",
"66 485 CURVE SMOOTH",
"66 205 OFFCURVE",
"303 -12 OFFCURVE",
"586 -12 CURVE SMOOTH",
"874 -12 OFFCURVE",
"1112 205 OFFCURVE",
"1112 496 CURVE SMOOTH",
"1112 733 OFFCURVE",
"934 926 OFFCURVE",
"707 969 CURVE SMOOTH",
"674 975 OFFCURVE",
"640 979 OFFCURVE",
"604 977 CURVE",
"913 1518 LINE"
);
},
{
closed = 1;
nodes = (
"709 694 OFFCURVE",
"815 612 OFFCURVE",
"815 487 CURVE SMOOTH",
"815 356 OFFCURVE",
"696 281 OFFCURVE",
"588 281 CURVE SMOOTH",
"430 281 OFFCURVE",
"360 397 OFFCURVE",
"360 489 CURVE SMOOTH",
"360 535 OFFCURVE",
"373 574 OFFCURVE",
"390 607 CURVE",
"432 663 OFFCURVE",
"501 694 OFFCURVE",
"582 694 CURVE SMOOTH"
);
}
);
width = 1163;
}
);
unicode = 0036;
},
{
glyphname = seven;
layers = (
{
layerId = "5bc31741-97d3-4d5f-bc2e-c74aacfe0c49";
paths = (
{
closed = 1;
nodes = (
"182 0 LINE",
"625 0 LINE",
"625 172 LINE",
"499 172 LINE",
"643 579 OFFCURVE",
"859 1020 OFFCURVE",
"1036 1366 CURVE",
"1036 1516 LINE",
"41 1516 LINE",
"41 1206 LINE",
"233 1206 LINE",
"233 1323 LINE",
"801 1323 LINE",
"658 1032 OFFCURVE",
"442 584 OFFCURVE",
"299 172 CURVE",
"182 172 LINE"
);
}
);
width = 1077;
},
{
layerId = "5ff15c72-4ade-48a9-9f0f-2c5166e9b845";
paths = (
{
closed = 1;
nodes = (
"229 0 LINE",
"770 0 LINE",
"770 274 LINE",
"671 274 LINE",
"824 617 OFFCURVE",
"993 969 OFFCURVE",
"1149 1290 CURVE",
"1149 1516 LINE",
"41 1516 LINE",
"41 1032 LINE",
"328 1032 LINE",
"328 1204 LINE",
"751 1204 LINE",
"627 930 OFFCURVE",
"472 590 OFFCURVE",
"335 274 CURVE",
"229 274 LINE"
);
}
);
width = 1190;
}
);
unicode = 0037;
},
{
glyphname = eight;
layers = (
{
layerId = "5bc31741-97d3-4d5f-bc2e-c74aacfe0c49";
paths = (
{
closed = 1;
nodes = (
"393 1544 OFFCURVE",
"205 1366 OFFCURVE",
"205 1147 CURVE SMOOTH",
"205 1018 OFFCURVE",
"269 903 OFFCURVE",
"370 830 CURVE",
"231 750 OFFCURVE",
"139 606 OFFCURVE",
"139 442 CURVE SMOOTH",
"139 190 OFFCURVE",
"358 -16 OFFCURVE",
"627 -16 CURVE SMOOTH",
"893 -16 OFFCURVE",
"1112 190 OFFCURVE",
"1112 442 CURVE SMOOTH",
"1112 605 OFFCURVE",
"1020 748 OFFCURVE",
"884 829 CURVE",
"986 901 OFFCURVE",
"1053 1017 OFFCURVE",
"1053 1147 CURVE SMOOTH",
"1053 1366 OFFCURVE",
"860 1544 OFFCURVE",
"631 1544 CURVE SMOOTH"
);
},
{
closed = 1;
nodes = (
"322 602 OFFCURVE",
"459 731 OFFCURVE",
"627 731 CURVE SMOOTH",
"793 731 OFFCURVE",
"930 602 OFFCURVE",
"930 446 CURVE SMOOTH",
"930 289 OFFCURVE",
"793 158 OFFCURVE",
"627 158 CURVE SMOOTH",
"459 158 OFFCURVE",
"322 289 OFFCURVE",
"322 446 CURVE SMOOTH"
);
},
{
closed = 1;
nodes = (
"377 1274 OFFCURVE",
"485 1382 OFFCURVE",
"631 1382 CURVE SMOOTH",
"766 1382 OFFCURVE",
"881 1274 OFFCURVE",
"881 1143 CURVE SMOOTH",
"881 1010 OFFCURVE",
"766 903 OFFCURVE",
"631 903 CURVE SMOOTH",
"485 903 OFFCURVE",
"377 1010 OFFCURVE",
"377 1143 CURVE SMOOTH"
);
}
);
width = 1276;
},
{
layerId = "5ff15c72-4ade-48a9-9f0f-2c5166e9b845";
paths = (
{
closed = 1;
nodes = (
"369 1544 OFFCURVE",
"150 1339 OFFCURVE",
"150 1092 CURVE SMOOTH",
"150 981 OFFCURVE",
"207 875 OFFCURVE",
"298 798 CURVE",
"185 718 OFFCURVE",
"113 597 OFFCURVE",
"113 457 CURVE SMOOTH",
"113 209 OFFCURVE",
"342 -27 OFFCURVE",
"639 -27 CURVE SMOOTH",
"936 -27 OFFCURVE",
"1165 201 OFFCURVE",
"1165 461 CURVE SMOOTH",
"1165 597 OFFCURVE",
"1094 716 OFFCURVE",
"983 795 CURVE",
"1075 873 OFFCURVE",
"1133 981 OFFCURVE",
"1133 1098 CURVE SMOOTH",
"1133 1339 OFFCURVE",
"911 1544 OFFCURVE",
"639 1544 CURVE SMOOTH"
);
},
{
closed = 1;
nodes = (
"403 571 OFFCURVE",
"506 662 OFFCURVE",
"639 662 CURVE SMOOTH",
"770 662 OFFCURVE",
"872 571 OFFCURVE",
"872 465 CURVE SMOOTH",
"872 356 OFFCURVE",
"770 262 OFFCURVE",
"639 262 CURVE SMOOTH",
"506 262 OFFCURVE",
"403 356 OFFCURVE",
"403 465 CURVE SMOOTH"
);
},
{
closed = 1;
nodes = (
"440 1174 OFFCURVE",
"526 1255 OFFCURVE",
"639 1255 CURVE SMOOTH",
"750 1255 OFFCURVE",
"840 1174 OFFCURVE",
"840 1081 CURVE SMOOTH",
"840 991 OFFCURVE",
"750 913 OFFCURVE",
"639 913 CURVE SMOOTH",
"526 913 OFFCURVE",
"440 991 OFFCURVE",
"440 1081 CURVE SMOOTH"
);
}
);
width = 1180;
}
);
unicode = 0038;
},
{
glyphname = nine;
layers = (
{
layerId = "5bc31741-97d3-4d5f-bc2e-c74aacfe0c49";
paths = (
{
closed = 1;
nodes = (
"666 -2 LINE",
"1034 666 LINE",
"1100 791 OFFCURVE",
"1151 901 OFFCURVE",
"1151 1020 CURVE SMOOTH",
"1151 1323 OFFCURVE",
"899 1528 OFFCURVE",
"627 1528 CURVE SMOOTH",
"340 1528 OFFCURVE",
"94 1333 OFFCURVE",
"94 995 CURVE SMOOTH",
"94 719 OFFCURVE",
"326 524 OFFCURVE",
"571 524 CURVE SMOOTH",
"623 524 OFFCURVE",
"688 522 OFFCURVE",
"770 558 CURVE",
"432 -2 LINE"
);
},
{
closed = 1;
nodes = (
"453 688 OFFCURVE",
"281 803 OFFCURVE",
"281 1022 CURVE SMOOTH",
"281 1219 OFFCURVE",
"440 1354 OFFCURVE",
"623 1354 CURVE SMOOTH",
"817 1354 OFFCURVE",
"965 1231 OFFCURVE",
"965 1022 CURVE SMOOTH",
"965 959 OFFCURVE",
"954 903 OFFCURVE",
"937 854 CURVE",
"874 749 OFFCURVE",
"777 688 OFFCURVE",
"649 688 CURVE SMOOTH"
);
}
);
width = 1270;
},
{
layerId = "5ff15c72-4ade-48a9-9f0f-2c5166e9b845";
paths = (
{
closed = 1;
nodes = (
"655 -2 LINE",
"1030 676 LINE SMOOTH",
"1094 791 OFFCURVE",
"1153 897 OFFCURVE",
"1153 1030 CURVE SMOOTH",
"1153 1311 OFFCURVE",
"915 1528 OFFCURVE",
"631 1528 CURVE SMOOTH",
"342 1528 OFFCURVE",
"106 1311 OFFCURVE",
"106 1020 CURVE SMOOTH",
"106 782 OFFCURVE",
"285 590 OFFCURVE",
"512 547 CURVE SMOOTH",
"542 541 OFFCURVE",
"576 536 OFFCURVE",
"612 538 CURVE",
"305 -2 LINE"
);
},
{
closed = 1;
nodes = (
"508 821 OFFCURVE",
"403 903 OFFCURVE",
"403 1028 CURVE SMOOTH",
"403 1159 OFFCURVE",
"520 1235 OFFCURVE",
"631 1235 CURVE SMOOTH",
"786 1235 OFFCURVE",
"856 1118 OFFCURVE",
"856 1026 CURVE SMOOTH",
"856 978 OFFCURVE",
"841 937 OFFCURVE",
"823 903 CURVE",
"781 849 OFFCURVE",
"714 821 OFFCURVE",
"637 821 CURVE SMOOTH"
);
}
);
width = 1151;
}
);
unicode = 0039;
},
{
glyphname = exclam;
layers = (
{
components = (
{
alignment = -1;
name = dotaccent;
transform = "{1, 0, 0, 1, 37, -1282}";
}
);
guideLines = (
{
angle = 90;
position = "{174, 0}";
},
{
angle = 90;
position = "{459, 0}";
}
);
layerId = "5bc31741-97d3-4d5f-bc2e-c74aacfe0c49";
paths = (
{
closed = 1;
nodes = (
"252 410 LINE",
"430 410 LINE",
"471 1577 LINE",
"211 1577 LINE"
);
}
);
width = 682;
},
{
components = (
{
alignment = -1;
name = dotaccent;
transform = "{1, 0, 0, 1, 47, -1225}";
}
);
guideLines = (
{
angle = 90;
position = "{174, 0}";
},
{
angle = 90;
position = "{459, 0}";
}
);
layerId = "5ff15c72-4ade-48a9-9f0f-2c5166e9b845";
paths = (
{
closed = 1;
nodes = (
"180 510 LINE",
"467 510 LINE",
"508 1577 LINE",
"139 1577 LINE"
);
}
);
width = 696;
}
);
unicode = 0021;
},
{
glyphname = percent;
layers = (
{
layerId = "5bc31741-97d3-4d5f-bc2e-c74aacfe0c49";
paths = (
{
closed = 1;
nodes = (
"193 987 OFFCURVE",
"328 834 OFFCURVE",
"535 834 CURVE SMOOTH",
"741 834 OFFCURVE",
"877 987 OFFCURVE",
"877 1167 CURVE SMOOTH",
"877 1346 OFFCURVE",
"735 1499 OFFCURVE",
"535 1499 CURVE SMOOTH",
"334 1499 OFFCURVE",
"193 1346 OFFCURVE",
"193 1167 CURVE SMOOTH"
);
},
{
closed = 1;
nodes = (
"629 1335 OFFCURVE",
"705 1264 OFFCURVE",
"705 1167 CURVE SMOOTH",
"705 1071 OFFCURVE",
"629 995 OFFCURVE",
"535 995 CURVE SMOOTH",
"440 995 OFFCURVE",
"362 1073 OFFCURVE",
"362 1167 CURVE SMOOTH",
"362 1264 OFFCURVE",
"440 1335 OFFCURVE",
"535 1335 CURVE SMOOTH"
);
},
{
closed = 1;
nodes = (
"330 -16 LINE",
"524 -16 LINE",
"1565 1540 LINE",
"1370 1540 LINE"
);
},
{
closed = 1;
nodes = (
"1059 199 OFFCURVE",
"1194 45 OFFCURVE",
"1401 45 CURVE SMOOTH",
"1608 45 OFFCURVE",
"1743 199 OFFCURVE",
"1743 379 CURVE SMOOTH",
"1743 557 OFFCURVE",
"1602 711 OFFCURVE",
"1401 711 CURVE SMOOTH",
"1200 711 OFFCURVE",
"1059 557 OFFCURVE",
"1059 379 CURVE SMOOTH"
);
},
{
closed = 1;
nodes = (
"1495 547 OFFCURVE",
"1571 475 OFFCURVE",
"1571 379 CURVE SMOOTH",
"1571 283 OFFCURVE",
"1495 207 OFFCURVE",
"1401 207 CURVE SMOOTH",
"1307 207 OFFCURVE",
"1229 285 OFFCURVE",
"1229 379 CURVE SMOOTH",
"1229 475 OFFCURVE",
"1307 547 OFFCURVE",
"1401 547 CURVE SMOOTH"
);
}
);
width = 1794;
},
{
layerId = "5ff15c72-4ade-48a9-9f0f-2c5166e9b845";
paths = (
{
closed = 1;
nodes = (
"211 969 OFFCURVE",
"362 799 OFFCURVE",
"590 799 CURVE SMOOTH",
"817 799 OFFCURVE",
"969 971 OFFCURVE",
"969 1167 CURVE SMOOTH",
"969 1366 OFFCURVE",
"811 1536 OFFCURVE",
"590 1536 CURVE SMOOTH",
"369 1536 OFFCURVE",
"211 1366 OFFCURVE",
"211 1167 CURVE SMOOTH"
);
},
{
closed = 1;
nodes = (
"668 1305 OFFCURVE",
"729 1249 OFFCURVE",
"729 1167 CURVE SMOOTH",
"729 1090 OFFCURVE",
"668 1028 OFFCURVE",
"590 1028 CURVE SMOOTH",
"512 1028 OFFCURVE",
"451 1092 OFFCURVE",
"451 1167 CURVE SMOOTH",
"451 1249 OFFCURVE",
"512 1305 OFFCURVE",
"590 1305 CURVE SMOOTH"
);
},
{
closed = 1;
nodes = (
"330 -16 LINE",
"596 -16 LINE",
"1636 1540 LINE",
"1370 1540 LINE"
);
},
{
closed = 1;
nodes = (
"1024 180 OFFCURVE",
"1176 10 OFFCURVE",
"1403 10 CURVE SMOOTH",
"1630 10 OFFCURVE",
"1782 182 OFFCURVE",
"1782 379 CURVE SMOOTH",
"1782 578 OFFCURVE",
"1624 748 OFFCURVE",
"1403 748 CURVE SMOOTH",
"1182 748 OFFCURVE",
"1024 578 OFFCURVE",
"1024 379 CURVE SMOOTH"
);
},
{
closed = 1;
nodes = (
"1481 516 OFFCURVE",
"1542 461 OFFCURVE",
"1542 379 CURVE SMOOTH",
"1542 301 OFFCURVE",
"1481 240 OFFCURVE",
"1403 240 CURVE SMOOTH",
"1325 240 OFFCURVE",
"1264 303 OFFCURVE",
"1264 379 CURVE SMOOTH",
"1264 461 OFFCURVE",
"1325 516 OFFCURVE",
"1403 516 CURVE SMOOTH"
);
}
);
width = 1833;
}
);
unicode = 0025;
},
{
glyphname = ampersand;
layers = (
{
layerId = "5bc31741-97d3-4d5f-bc2e-c74aacfe0c49";
paths = (
{
closed = 1;
nodes = (
"1209 70 OFFCURVE",
"1131 146 OFFCURVE",
"1052 222 CURVE",
"940 84 OFFCURVE",
"792 -14 OFFCURVE",
"606 -14 CURVE SMOOTH",
"348 -14 OFFCURVE",
"143 178 OFFCURVE",
"143 426 CURVE SMOOTH",
"143 608 OFFCURVE",
"270 763 OFFCURVE",
"424 829 CURVE",
"343 906 OFFCURVE",
"223 1018 OFFCURVE",
"223 1167 CURVE SMOOTH",
"223 1380 OFFCURVE",
"399 1546 OFFCURVE",
"618 1546 CURVE SMOOTH",
"850 1546 OFFCURVE",
"1024 1368 OFFCURVE",
"1024 1167 CURVE SMOOTH",
"1024 948 OFFCURVE",
"881 856 OFFCURVE",
"716 775 CURVE",
"818 680 OFFCURVE",
"920 585 OFFCURVE",
"1022 490 CURVE",
"1065 587 OFFCURVE",
"1090 687 OFFCURVE",
"1104 764 CURVE",
"1292 764 LINE",
"1269 640 OFFCURVE",
"1222 499 OFFCURVE",
"1151 371 CURVE",
"1243 286 OFFCURVE",
"1335 200 OFFCURVE",
"1427 115 CURVE",
"1381 75 OFFCURVE",
"1334 34 OFFCURVE",
"1288 -6 CURVE"
);
},
{
closed = 1;
nodes = (
"383 629 OFFCURVE",
"322 530 OFFCURVE",
"322 430 CURVE SMOOTH",
"322 276 OFFCURVE",
"451 160 OFFCURVE",
"614 160 CURVE SMOOTH",
"754 160 OFFCURVE",
"858 234 OFFCURVE",
"934 336 CURVE",
"807 458 OFFCURVE",
"681 581 OFFCURVE",
"554 703 CURVE",
"527 691 OFFCURVE",
"499 678 OFFCURVE",
"473 666 CURVE"
);
},
{
closed = 1;
nodes = (
"819 1063 OFFCURVE",
"846 1114 OFFCURVE",
"846 1167 CURVE SMOOTH",
"846 1280 OFFCURVE",
"741 1382 OFFCURVE",
"618 1382 CURVE SMOOTH",
"485 1382 OFFCURVE",
"397 1288 OFFCURVE",
"397 1169 CURVE SMOOTH",
"397 1114 OFFCURVE",
"420 1051 OFFCURVE",
"492 983 CURVE SMOOTH",
"522 955 OFFCURVE",
"551 928 OFFCURVE",
"581 900 CURVE",
"659 935 OFFCURVE",
"731 973 OFFCURVE",
"784 1026 CURVE"
);
}
);
width = 1321;
},
{
layerId = "5ff15c72-4ade-48a9-9f0f-2c5166e9b845";
paths = (
{
closed = 1;
nodes = (
"1129 20 OFFCURVE",
"1062 88 OFFCURVE",
"995 157 CURVE",
"886 53 OFFCURVE",
"747 -14 OFFCURVE",
"578 -14 CURVE SMOOTH",
"305 -14 OFFCURVE",
"90 190 OFFCURVE",
"90 455 CURVE SMOOTH",
"90 649 OFFCURVE",
"186 724 OFFCURVE",
"316 854 CURVE",
"226 959 OFFCURVE",
"168 1044 OFFCURVE",
"168 1190 CURVE SMOOTH",
"168 1409 OFFCURVE",
"356 1599 OFFCURVE",
"600 1599 CURVE SMOOTH",
"858 1599 OFFCURVE",
"1028 1403 OFFCURVE",
"1028 1192 CURVE SMOOTH",
"1028 997 OFFCURVE",
"903 881 OFFCURVE",
"776 794 CURVE",
"831 740 OFFCURVE",
"885 686 OFFCURVE",
"940 632 CURVE",
"958 691 OFFCURVE",
"971 748 OFFCURVE",
"979 797 CURVE",
"1278 797 LINE",
"1269 669 OFFCURVE",
"1233 530 OFFCURVE",
"1172 404 CURVE",
"1257 321 OFFCURVE",
"1342 237 OFFCURVE",
"1427 154 CURVE",
"1350 86 OFFCURVE",
"1273 19 OFFCURVE",
"1196 -49 CURVE"
);
},
{
closed = 1;
nodes = (
"453 592 OFFCURVE",
"406 545 OFFCURVE",
"406 461 CURVE SMOOTH",
"406 373 OFFCURVE",
"477 291 OFFCURVE",
"586 291 CURVE SMOOTH",
"669 291 OFFCURVE",
"735 322 OFFCURVE",
"788 370 CURVE",
"713 446 OFFCURVE",
"638 524 OFFCURVE",
"563 600 CURVE SMOOTH",
"551 613 OFFCURVE",
"538 625 OFFCURVE",
"526 638 CURVE"
);
},
{
closed = 1;
nodes = (
"717 1094 OFFCURVE",
"733 1135 OFFCURVE",
"733 1192 CURVE SMOOTH",
"733 1264 OFFCURVE",
"672 1325 OFFCURVE",
"600 1325 CURVE SMOOTH",
"516 1325 OFFCURVE",
"457 1268 OFFCURVE",
"457 1192 CURVE SMOOTH",
"457 1139 OFFCURVE",
"477 1085 OFFCURVE",
"512 1053 CURVE SMOOTH",
"531 1035 OFFCURVE",
"549 1016 OFFCURVE",
"568 998 CURVE",
"609 1020 OFFCURVE",
"646 1042 OFFCURVE",
"674 1063 CURVE SMOOTH"
);
}
);
width = 1337;
}
);
unicode = 0026;
},
{
glyphname = quotesingle;
layers = (
{
layerId = "5bc31741-97d3-4d5f-bc2e-c74aacfe0c49";
paths = (
{
closed = 1;
nodes = (
"324 1593 LINE",
"37 1577 LINE",
"37 1059 LINE",
"256 1059 LINE"
);
}
);
width = 340;
},
{
layerId = "5ff15c72-4ade-48a9-9f0f-2c5166e9b845";
paths = (
{
closed = 1;
nodes = (
"324 1593 LINE",
"37 1577 LINE",
"37 1059 LINE",
"256 1059 LINE"
);
}
);
width = 340;
}
);
unicode = 0027;
},
{
glyphname = quotedbl;
layers = (
{
layerId = "5bc31741-97d3-4d5f-bc2e-c74aacfe0c49";
paths = (
{
closed = 1;
nodes = (
"307 1577 LINE",
"41 1577 LINE",
"82 1059 LINE",
"289 1059 LINE"
);
},
{
closed = 1;
nodes = (
"635 1577 LINE",
"375 1577 LINE",
"389 1059 LINE",
"588 1059 LINE"
);
}
);
width = 651;
},
{
layerId = "5ff15c72-4ade-48a9-9f0f-2c5166e9b845";
paths = (
{
closed = 1;
nodes = (
"307 1577 LINE",
"41 1577 LINE",
"82 1059 LINE",
"289 1059 LINE"
);
},
{
closed = 1;
nodes = (
"635 1577 LINE",
"375 1577 LINE",
"389 1059 LINE",
"588 1059 LINE"
);
}
);
width = 651;
}
);
unicode = 0022;
},
{
glyphname = parenleft;
layers = (
{
layerId = "5bc31741-97d3-4d5f-bc2e-c74aacfe0c49";
paths = (
{
closed = 1;
nodes = (
"668 -340 LINE",
"457 -74 OFFCURVE",
"338 256 OFFCURVE",
"338 590 CURVE SMOOTH",
"338 924 OFFCURVE",
"457 1253 OFFCURVE",
"668 1520 CURVE",
"530 1630 LINE",
"291 1331 OFFCURVE",
"141 969 OFFCURVE",
"141 590 CURVE SMOOTH",
"141 211 OFFCURVE",
"291 -152 OFFCURVE",
"530 -451 CURVE"
);
}
);
width = 721;
},
{
layerId = "5ff15c72-4ade-48a9-9f0f-2c5166e9b845";
paths = (
{
closed = 1;
nodes = (
"758 -307 LINE",
"555 -37 OFFCURVE",
"434 307 OFFCURVE",
"434 647 CURVE SMOOTH",
"434 985 OFFCURVE",
"555 1329 OFFCURVE",
"760 1597 CURVE",
"514 1769 LINE",
"250 1448 OFFCURVE",
"109 1055 OFFCURVE",
"109 647 CURVE SMOOTH",
"109 242 OFFCURVE",
"250 -147 OFFCURVE",
"510 -467 CURVE"
);
}
);
width = 721;
}
);
unicode = 0028;
},
{
glyphname = parenright;
layers = (
{
layerId = "5bc31741-97d3-4d5f-bc2e-c74aacfe0c49";
paths = (
{
closed = 1;
nodes = (
"190 -451 LINE",
"430 -152 OFFCURVE",
"580 211 OFFCURVE",
"580 590 CURVE SMOOTH",
"580 969 OFFCURVE",
"430 1331 OFFCURVE",
"190 1630 CURVE",
"53 1520 LINE",
"264 1253 OFFCURVE",
"383 924 OFFCURVE",
"383 590 CURVE SMOOTH",
"383 256 OFFCURVE",
"264 -74 OFFCURVE",
"53 -340 CURVE"
);
}
);
width = 721;
},
{
layerId = "5ff15c72-4ade-48a9-9f0f-2c5166e9b845";
paths = (
{
closed = 1;
nodes = (
"252 -467 LINE",
"516 -145 OFFCURVE",
"657 248 OFFCURVE",
"657 655 CURVE SMOOTH",
"657 1061 OFFCURVE",
"516 1450 OFFCURVE",
"256 1769 CURVE",
"8 1610 LINE",
"211 1339 OFFCURVE",
"332 995 OFFCURVE",
"332 655 CURVE SMOOTH",
"332 317 OFFCURVE",
"211 -27 OFFCURVE",
"6 -295 CURVE"
);
}
);
width = 721;
}
);
unicode = 0029;
},
{
glyphname = asterisk;
layers = (
{
layerId = "5bc31741-97d3-4d5f-bc2e-c74aacfe0c49";
paths = (
{
closed = 1;
nodes = (
"483 1546 LINE",
"350 1546 LINE",
"350 1300 LINE",
"98 1382 LINE",
"59 1257 LINE",
"317 1175 LINE",
"162 963 LINE",
"270 893 LINE",
"418 1097 LINE",
"567 891 LINE",
"676 963 LINE",
"519 1177 LINE",
"768 1257 LINE",
"731 1376 LINE",
"483 1295 LINE"
);
}
);
width = 836;
},
{
layerId = "5ff15c72-4ade-48a9-9f0f-2c5166e9b845";
paths = (
{
closed = 1;
nodes = (
"629 1616 LINE",
"379 1616 LINE",
"379 1364 LINE",
"139 1442 LINE",
"61 1204 LINE",
"302 1127 LINE",
"154 922 LINE",
"356 774 LINE",
"503 980 LINE",
"651 774 LINE",
"854 922 LINE",
"705 1127 LINE",
"946 1204 LINE",
"868 1442 LINE",
"629 1364 LINE"
);
}
);
width = 1008;
}
);
unicode = 002A;
},
{
glyphname = plus;
layers = (
{
layerId = "5bc31741-97d3-4d5f-bc2e-c74aacfe0c49";
paths = (
{
closed = 1;
nodes = (
"143 608 LINE",
"563 608 LINE",
"563 186 LINE",
"745 186 LINE",
"745 608 LINE",
"1167 608 LINE",
"1167 791 LINE",
"745 791 LINE",
"745 1210 LINE",
"563 1210 LINE",
"563 791 LINE",
"143 791 LINE"
);
}
);
width = 1311;
},
{
layerId = "5ff15c72-4ade-48a9-9f0f-2c5166e9b845";
paths = (
{
closed = 1;
nodes = (
"102 436 LINE",
"465 436 LINE",
"465 72 LINE",
"762 72 LINE",
"762 436 LINE",
"1126 436 LINE",
"1126 733 LINE",
"762 733 LINE",
"762 1096 LINE",
"465 1096 LINE",
"465 733 LINE",
"102 733 LINE"
);
}
);
width = 1229;
}
);
unicode = 002B;
},
{
glyphname = slash;
layers = (
{
layerId = "5bc31741-97d3-4d5f-bc2e-c74aacfe0c49";
paths = (
{
closed = 1;
nodes = (
"49 0 LINE",
"223 0 LINE",
"811 1556 LINE",
"637 1556 LINE"
);
}
);
width = 848;
},
{
layerId = "5ff15c72-4ade-48a9-9f0f-2c5166e9b845";
paths = (
{
closed = 1;
nodes = (
"49 0 LINE",
"311 0 LINE",
"889 1556 LINE",
"633 1556 LINE"
);
}
);
width = 807;
}
);
unicode = 002F;
},
{
glyphname = at;
layers = (
{
layerId = "5bc31741-97d3-4d5f-bc2e-c74aacfe0c49";
paths = (
{
closed = 1;
nodes = (
"1405 956 LINE",
"1405 873 LINE",
"1329 922 OFFCURVE",
"1238 950 OFFCURVE",
"1141 950 CURVE SMOOTH",
"872 950 OFFCURVE",
"662 737 OFFCURVE",
"662 479 CURVE SMOOTH",
"662 219 OFFCURVE",
"862 10 OFFCURVE",
"1141 10 CURVE SMOOTH",
"1262 10 OFFCURVE",
"1370 51 OFFCURVE",
"1453 120 CURVE",
"1500 36 OFFCURVE",
"1582 -23 OFFCURVE",
"1704 -23 CURVE SMOOTH",
"1985 -23 OFFCURVE",
"2146 274 OFFCURVE",
"2146 547 CURVE SMOOTH",
"2146 1059 OFFCURVE",
"1704 1491 OFFCURVE",
"1145 1491 CURVE SMOOTH",
"592 1491 OFFCURVE",
"145 1044 OFFCURVE",
"145 494 CURVE SMOOTH",
"145 -59 OFFCURVE",
"592 -506 OFFCURVE",
"1145 -506 CURVE SMOOTH",
"1333 -506 OFFCURVE",
"1511 -453 OFFCURVE",
"1661 -362 CURVE",
"1567 -205 LINE",
"1444 -279 OFFCURVE",
"1298 -322 OFFCURVE",
"1145 -322 CURVE SMOOTH",
"692 -322 OFFCURVE",
"330 41 OFFCURVE",
"330 494 CURVE SMOOTH",
"330 944 OFFCURVE",
"692 1307 OFFCURVE",
"1145 1307 CURVE SMOOTH",
"1602 1307 OFFCURVE",
"1962 954 OFFCURVE",
"1962 547 CURVE SMOOTH",
"1962 387 OFFCURVE",
"1909 141 OFFCURVE",
"1704 141 CURVE SMOOTH",
"1620 141 OFFCURVE",
"1595 211 OFFCURVE",
"1589 293 CURVE",
"1589 956 LINE"
);
},
{
closed = 1;
nodes = (
"963 195 OFFCURVE",
"846 322 OFFCURVE",
"846 479 CURVE SMOOTH",
"846 635 OFFCURVE",
"971 766 OFFCURVE",
"1141 766 CURVE SMOOTH",
"1261 766 OFFCURVE",
"1360 698 OFFCURVE",
"1405 604 CURVE",
"1405 351 LINE",
"1360 259 OFFCURVE",
"1265 195 OFFCURVE",
"1141 195 CURVE SMOOTH"
);
}
);
width = 2310;
},
{
layerId = "5ff15c72-4ade-48a9-9f0f-2c5166e9b845";
paths = (
{
closed = 1;
nodes = (
"1321 956 LINE",
"1321 925 LINE",
"1257 952 OFFCURVE",
"1188 969 OFFCURVE",
"1110 969 CURVE SMOOTH",
"825 969 OFFCURVE",
"623 739 OFFCURVE",
"623 479 CURVE SMOOTH",
"623 213 OFFCURVE",
"836 -16 OFFCURVE",
"1130 -16 CURVE SMOOTH",
"1220 -16 OFFCURVE",
"1324 24 OFFCURVE",
"1399 89 CURVE",
"1453 21 OFFCURVE",
"1534 -18 OFFCURVE",
"1640 -18 CURVE SMOOTH",
"1942 -18 OFFCURVE",
"2103 272 OFFCURVE",
"2103 543 CURVE SMOOTH",
"2103 1034 OFFCURVE",
"1679 1448 OFFCURVE",
"1145 1448 CURVE SMOOTH",
"616 1448 OFFCURVE",
"188 1022 OFFCURVE",
"188 494 CURVE SMOOTH",
"188 -37 OFFCURVE",
"616 -463 OFFCURVE",
"1145 -463 CURVE SMOOTH",
"1323 -463 OFFCURVE",
"1507 -406 OFFCURVE",
"1671 -307 CURVE",
"1534 -80 LINE",
"1409 -154 OFFCURVE",
"1276 -199 OFFCURVE",
"1145 -199 CURVE SMOOTH",
"762 -199 OFFCURVE",
"455 111 OFFCURVE",
"455 494 CURVE SMOOTH",
"455 874 OFFCURVE",
"762 1184 OFFCURVE",
"1145 1184 CURVE SMOOTH",
"1532 1184 OFFCURVE",
"1839 885 OFFCURVE",
"1839 541 CURVE SMOOTH",
"1839 389 OFFCURVE",
"1806 211 OFFCURVE",
"1675 211 CURVE SMOOTH",
"1630 211 OFFCURVE",
"1608 252 OFFCURVE",
"1608 309 CURVE SMOOTH",
"1608 956 LINE"
);
},
{
closed = 1;
nodes = (
"1018 276 OFFCURVE",
"926 358 OFFCURVE",
"926 479 CURVE SMOOTH",
"926 594 OFFCURVE",
"1020 686 OFFCURVE",
"1133 686 CURVE SMOOTH",
"1213 686 OFFCURVE",
"1287 632 OFFCURVE",
"1321 555 CURVE",
"1321 396 LINE",
"1281 321 OFFCURVE",
"1210 276 OFFCURVE",
"1130 276 CURVE SMOOTH"
);
}
);
width = 2267;
}
);
unicode = 0040;
},
{
glyphname = bracketleft;
layers = (
{
layerId = "5bc31741-97d3-4d5f-bc2e-c74aacfe0c49";
paths = (
{
closed = 1;
nodes = (
"238 -377 LINE",
"641 -377 LINE",
"641 -225 LINE",
"422 -225 LINE",
"422 1405 LINE",
"641 1405 LINE",
"641 1556 LINE",
"238 1556 LINE"
);
}
);
width = 721;
},
{
layerId = "5ff15c72-4ade-48a9-9f0f-2c5166e9b845";
paths = (
{
closed = 1;
nodes = (
"82 -512 LINE",
"629 -512 LINE",
"629 -264 LINE",
"406 -264 LINE",
"406 1366 LINE",
"629 1366 LINE",
"629 1612 LINE",
"82 1612 LINE"
);
}
);
width = 670;
}
);
unicode = 005B;
},
{
glyphname = backslash;
layers = (
{
layerId = "5bc31741-97d3-4d5f-bc2e-c74aacfe0c49";
paths = (
{
closed = 1;
nodes = (
"745 -25 LINE",
"907 -25 LINE",
"203 1581 LINE",
"41 1581 LINE"
);
}
);
width = 948;
},
{
layerId = "5ff15c72-4ade-48a9-9f0f-2c5166e9b845";
paths = (
{
closed = 1;
nodes = (
"571 -293 LINE",
"813 -293 LINE",
"242 1384 LINE",
"6 1384 LINE"
);
}
);
width = 778;
}
);
unicode = 005C;
},
{
glyphname = bracketright;
layers = (
{
layerId = "5bc31741-97d3-4d5f-bc2e-c74aacfe0c49";
paths = (
{
closed = 1;
nodes = (
"299 -225 LINE",
"80 -225 LINE",
"80 -377 LINE",
"483 -377 LINE",
"483 1556 LINE",
"80 1556 LINE",
"80 1405 LINE",
"299 1405 LINE"
);
}
);
width = 721;
},
{
layerId = "5ff15c72-4ade-48a9-9f0f-2c5166e9b845";
paths = (
{
closed = 1;
nodes = (
"266 -264 LINE",
"43 -264 LINE",
"43 -512 LINE",
"590 -512 LINE",
"590 1612 LINE",
"43 1612 LINE",
"43 1366 LINE",
"266 1366 LINE"
);
}
);
width = 670;
}
);
unicode = 005D;
},
{
glyphname = bullet;
layers = (
{
layerId = "5bc31741-97d3-4d5f-bc2e-c74aacfe0c49";
paths = (
{
closed = 1;
nodes = (
"154 639 OFFCURVE",
"264 528 OFFCURVE",
"406 528 CURVE SMOOTH",
"545 528 OFFCURVE",
"657 639 OFFCURVE",
"657 780 CURVE SMOOTH",
"657 922 OFFCURVE",
"545 1032 OFFCURVE",
"406 1032 CURVE SMOOTH",
"264 1032 OFFCURVE",
"154 920 OFFCURVE",
"154 780 CURVE SMOOTH"
);
}
);
width = 811;
},
{
layerId = "5ff15c72-4ade-48a9-9f0f-2c5166e9b845";
paths = (
{
closed = 1;
nodes = (
"180 596 OFFCURVE",
"330 446 OFFCURVE",
"512 446 CURVE SMOOTH",
"694 446 OFFCURVE",
"842 596 OFFCURVE",
"842 778 CURVE SMOOTH",
"842 961 OFFCURVE",
"694 1108 OFFCURVE",
"512 1108 CURVE SMOOTH",
"330 1108 OFFCURVE",
"180 961 OFFCURVE",
"180 778 CURVE SMOOTH"
);
}
);
width = 1024;
}
);
unicode = 2022;
},
{
glyphname = paragraph;
layers = (
{
layerId = "5bc31741-97d3-4d5f-bc2e-c74aacfe0c49";
paths = (
{
closed = 1;
nodes = (
"465 -369 LINE",
"645 -369 LINE",
"645 1354 LINE",
"874 1354 LINE",
"874 -369 LINE",
"1055 -369 LINE",
"1055 1354 LINE",
"1135 1354 LINE",
"1135 1516 LINE",
"537 1516 LINE SMOOTH",
"236 1516 OFFCURVE",
"41 1376 OFFCURVE",
"41 1104 CURVE SMOOTH",
"41 879 OFFCURVE",
"216 718 OFFCURVE",
"465 701 CURVE"
);
}
);
width = 1274;
},
{
layerId = "5ff15c72-4ade-48a9-9f0f-2c5166e9b845";
paths = (
{
closed = 1;
nodes = (
"436 -362 LINE",
"729 -362 LINE",
"729 1241 LINE",
"901 1241 LINE",
"901 -362 LINE",
"1194 -362 LINE",
"1194 1241 LINE",
"1335 1241 LINE",
"1335 1516 LINE",
"651 1516 LINE SMOOTH",
"293 1516 OFFCURVE",
"61 1294 OFFCURVE",
"61 1014 CURVE SMOOTH",
"61 751 OFFCURVE",
"231 588 OFFCURVE",
"436 532 CURVE"
);
}
);
width = 1417;
}
);
unicode = 00B6;
},
{
glyphname = germandbls;
layers = (
{
layerId = "5bc31741-97d3-4d5f-bc2e-c74aacfe0c49";
paths = (
{
closed = 1;
nodes = (
"668 799 LINE SMOOTH",
"834 799 OFFCURVE",
"979 659 OFFCURVE",
"979 485 CURVE SMOOTH",
"979 311 OFFCURVE",
"840 170 OFFCURVE",
"666 170 CURVE SMOOTH",
"639 170 OFFCURVE",
"614 174 OFFCURVE",
"588 180 CURVE",
"588 117 OFFCURVE",
"588 55 OFFCURVE",
"588 -8 CURVE",
"614 -12 OFFCURVE",
"639 -14 OFFCURVE",
"666 -14 CURVE SMOOTH",
"942 -14 OFFCURVE",
"1165 188 OFFCURVE",
"1165 485 CURVE SMOOTH",
"1165 666 OFFCURVE",
"1077 817 OFFCURVE",
"943 904 CURVE",
"997 957 OFFCURVE",
"1049 1041 OFFCURVE",
"1049 1163 CURVE SMOOTH",
"1049 1386 OFFCURVE",
"858 1577 OFFCURVE",
"610 1577 CURVE SMOOTH",
"350 1577 OFFCURVE",
"201 1368 OFFCURVE",
"201 1180 CURVE SMOOTH",
"201 172 LINE",
"17 172 LINE",
"17 0 LINE",
"270 0 LINE",
"270 0 LINE",
"397 0 LINE",
"397 1157 LINE SMOOTH",
"397 1294 OFFCURVE",
"479 1391 OFFCURVE",
"608 1391 CURVE SMOOTH",
"754 1391 OFFCURVE",
"850 1292 OFFCURVE",
"850 1159 CURVE SMOOTH",
"850 1080 OFFCURVE",
"783 995 OFFCURVE",
"697 984 CURVE",
"687 984 OFFCURVE",
"676 985 OFFCURVE",
"666 985 CURVE SMOOTH",
"588 985 LINE",
"588 923 OFFCURVE",
"588 861 OFFCURVE",
"588 799 CURVE"
);
}
);
width = 1247;
},
{
layerId = "5ff15c72-4ade-48a9-9f0f-2c5166e9b845";
paths = (
{
closed = 1;
nodes = (
"752 694 LINE SMOOTH",
"870 694 OFFCURVE",
"963 600 OFFCURVE",
"963 483 CURVE SMOOTH",
"963 358 OFFCURVE",
"870 266 OFFCURVE",
"750 266 CURVE SMOOTH",
"729 266 OFFCURVE",
"715 266 OFFCURVE",
"694 270 CURVE",
"689 178 OFFCURVE",
"685 86 OFFCURVE",
"680 -6 CURVE",
"707 -10 OFFCURVE",
"727 -12 OFFCURVE",
"754 -12 CURVE SMOOTH",
"1057 -12 OFFCURVE",
"1288 154 OFFCURVE",
"1288 494 CURVE SMOOTH",
"1288 669 OFFCURVE",
"1205 813 OFFCURVE",
"1066 898 CURVE",
"1124 951 OFFCURVE",
"1174 1037 OFFCURVE",
"1174 1169 CURVE SMOOTH",
"1174 1393 OFFCURVE",
"993 1579 OFFCURVE",
"707 1579 CURVE SMOOTH",
"412 1579 OFFCURVE",
"244 1370 OFFCURVE",
"244 1182 CURVE SMOOTH",
"244 274 LINE",
"37 274 LINE",
"37 0 LINE",
"510 0 LINE",
"510 2 LINE",
"547 2 LINE",
"547 1126 LINE SMOOTH",
"547 1235 OFFCURVE",
"612 1305 OFFCURVE",
"707 1305 CURVE SMOOTH",
"817 1305 OFFCURVE",
"883 1233 OFFCURVE",
"883 1128 CURVE SMOOTH",
"883 1069 OFFCURVE",
"836 983 OFFCURVE",
"764 979 CURVE",
"761 979 OFFCURVE",
"757 979 OFFCURVE",
"754 979 CURVE SMOOTH",
"682 979 LINE",
"683 884 OFFCURVE",
"683 789 OFFCURVE",
"684 694 CURVE"
);
}
);
width = 1354;
}
);
unicode = 00DF;
},
{
glyphname = registered;
layers = (
{
layerId = "5bc31741-97d3-4d5f-bc2e-c74aacfe0c49";
paths = (
{
closed = 1;
nodes = (
"102 356 OFFCURVE",
"483 -25 OFFCURVE",
"958 -25 CURVE SMOOTH",
"1432 -25 OFFCURVE",
"1817 356 OFFCURVE",
"1817 831 CURVE SMOOTH",
"1817 1305 OFFCURVE",
"1432 1686 OFFCURVE",
"958 1686 CURVE SMOOTH",
"483 1686 OFFCURVE",
"102 1305 OFFCURVE",
"102 831 CURVE SMOOTH"
);
},
{
closed = 1;
nodes = (
"283 1208 OFFCURVE",
"582 1507 OFFCURVE",
"958 1507 CURVE SMOOTH",
"1335 1507 OFFCURVE",
"1634 1208 OFFCURVE",
"1634 831 CURVE SMOOTH",
"1634 453 OFFCURVE",
"1335 154 OFFCURVE",
"958 154 CURVE SMOOTH",
"582 154 OFFCURVE",
"283 453 OFFCURVE",
"283 831 CURVE SMOOTH"
);
},
{
closed = 1;
nodes = (
"555 360 LINE",
"934 360 LINE",
"934 518 LINE",
"841 518 LINE",
"841 772 LINE",
"909 772 LINE SMOOTH",
"1013 772 OFFCURVE",
"1083 725 OFFCURVE",
"1101 614 CURVE",
"1153 360 LINE",
"1409 360 LINE",
"1407 518 LINE",
"1325 518 LINE",
"1284 686 LINE",
"1268 755 OFFCURVE",
"1233 802 OFFCURVE",
"1192 825 CURVE",
"1296 870 OFFCURVE",
"1351 940 OFFCURVE",
"1351 1071 CURVE SMOOTH",
"1351 1226 OFFCURVE",
"1228 1345 OFFCURVE",
"1034 1345 CURVE SMOOTH",
"551 1345 LINE",
"551 1187 LINE",
"653 1187 LINE",
"653 518 LINE",
"555 518 LINE"
);
},
{
closed = 1;
nodes = (
"977 1187 LINE",
"1091 1187 OFFCURVE",
"1147 1138 OFFCURVE",
"1147 1056 CURVE SMOOTH",
"1147 966 OFFCURVE",
"1083 927 OFFCURVE",
"985 927 CURVE SMOOTH",
"841 927 LINE",
"841 1187 LINE"
);
}
);
width = 1919;
},
{
layerId = "5ff15c72-4ade-48a9-9f0f-2c5166e9b845";
paths = (
{
closed = 1;
nodes = (
"23 270 OFFCURVE",
"438 -145 OFFCURVE",
"958 -145 CURVE SMOOTH",
"1475 -145 OFFCURVE",
"1896 270 OFFCURVE",
"1896 791 CURVE SMOOTH",
"1896 1309 OFFCURVE",
"1475 1724 OFFCURVE",
"958 1724 CURVE SMOOTH",
"438 1724 OFFCURVE",
"23 1309 OFFCURVE",
"23 791 CURVE SMOOTH"
);
},
{
closed = 1;
nodes = (
"270 1176 OFFCURVE",
"573 1479 OFFCURVE",
"958 1479 CURVE SMOOTH",
"1343 1479 OFFCURVE",
"1647 1176 OFFCURVE",
"1647 791 CURVE SMOOTH",
"1647 403 OFFCURVE",
"1343 100 OFFCURVE",
"958 100 CURVE SMOOTH",
"573 100 OFFCURVE",
"270 403 OFFCURVE",
"270 791 CURVE SMOOTH"
);
},
{
closed = 1;
nodes = (
"500 317 LINE",
"956 317 LINE",
"956 534 LINE",
"875 534 LINE",
"875 659 LINE",
"942 659 LINE SMOOTH",
"1053 659 OFFCURVE",
"1061 616 OFFCURVE",
"1069 506 CURVE",
"1086 317 LINE",
"1425 317 LINE",
"1423 534 LINE",
"1348 534 LINE",
"1327 618 LINE",
"1311 700 OFFCURVE",
"1273 741 OFFCURVE",
"1225 761 CURVE",
"1346 811 OFFCURVE",
"1389 877 OFFCURVE",
"1389 1003 CURVE SMOOTH",
"1389 1130 OFFCURVE",
"1278 1282 OFFCURVE",
"1063 1282 CURVE SMOOTH",
"504 1282 LINE",
"504 1065 LINE",
"608 1065 LINE",
"608 534 LINE",
"500 534 LINE"
);
},
{
closed = 1;
nodes = (
"952 1065 LINE",
"1040 1065 OFFCURVE",
"1096 1028 OFFCURVE",
"1096 968 CURVE SMOOTH",
"1096 901 OFFCURVE",
"1038 876 OFFCURVE",
"942 876 CURVE SMOOTH",
"875 876 LINE",
"875 1065 LINE"
);
}
);
width = 2048;
}
);
unicode = 00AE;
},
{
glyphname = copyright;
layers = (
{
layerId = "5bc31741-97d3-4d5f-bc2e-c74aacfe0c49";
paths = (
{
closed = 1;
nodes = (
"102 356 OFFCURVE",
"483 -25 OFFCURVE",
"958 -25 CURVE SMOOTH",
"1432 -25 OFFCURVE",
"1817 356 OFFCURVE",
"1817 831 CURVE SMOOTH",
"1817 1305 OFFCURVE",
"1432 1686 OFFCURVE",
"958 1686 CURVE SMOOTH",
"483 1686 OFFCURVE",
"102 1305 OFFCURVE",
"102 831 CURVE SMOOTH"
);
},
{
closed = 1;
nodes = (
"283 1208 OFFCURVE",
"582 1507 OFFCURVE",
"958 1507 CURVE SMOOTH",
"1335 1507 OFFCURVE",
"1634 1208 OFFCURVE",
"1634 831 CURVE SMOOTH",
"1634 453 OFFCURVE",
"1335 154 OFFCURVE",
"958 154 CURVE SMOOTH",
"582 154 OFFCURVE",
"283 453 OFFCURVE",
"283 831 CURVE SMOOTH"
);
},
{
closed = 1;
nodes = (
"1331 1190 LINE",
"1255 1264 OFFCURVE",
"1133 1337 OFFCURVE",
"979 1337 CURVE SMOOTH",
"700 1337 OFFCURVE",
"477 1112 OFFCURVE",
"477 834 CURVE SMOOTH",
"477 555 OFFCURVE",
"700 332 OFFCURVE",
"979 332 CURVE SMOOTH",
"1108 332 OFFCURVE",
"1243 397 OFFCURVE",
"1305 477 CURVE",
"1171 606 LINE",
"1130 559 OFFCURVE",
"1053 526 OFFCURVE",
"979 526 CURVE SMOOTH",
"809 526 OFFCURVE",
"672 664 OFFCURVE",
"672 834 CURVE SMOOTH",
"672 1006 OFFCURVE",
"809 1147 OFFCURVE",
"979 1147 CURVE SMOOTH",
"1053 1147 OFFCURVE",
"1145 1110 OFFCURVE",
"1190 1059 CURVE"
);
}
);
width = 1919;
},
{
layerId = "5ff15c72-4ade-48a9-9f0f-2c5166e9b845";
paths = (
{
closed = 1;
nodes = (
"102 356 OFFCURVE",
"483 -25 OFFCURVE",
"958 -25 CURVE SMOOTH",
"1432 -25 OFFCURVE",
"1817 356 OFFCURVE",
"1817 831 CURVE SMOOTH",
"1817 1305 OFFCURVE",
"1432 1686 OFFCURVE",
"958 1686 CURVE SMOOTH",
"483 1686 OFFCURVE",
"102 1305 OFFCURVE",
"102 831 CURVE SMOOTH"
);
},
{
closed = 1;
nodes = (
"317 1190 OFFCURVE",
"600 1473 OFFCURVE",
"958 1473 CURVE SMOOTH",
"1317 1473 OFFCURVE",
"1599 1190 OFFCURVE",
"1599 831 CURVE SMOOTH",
"1599 471 OFFCURVE",
"1317 188 OFFCURVE",
"958 188 CURVE SMOOTH",
"600 188 OFFCURVE",
"317 471 OFFCURVE",
"317 831 CURVE SMOOTH"
);
},
{
closed = 1;
nodes = (
"1354 1178 LINE",
"1260 1280 OFFCURVE",
"1124 1343 OFFCURVE",
"971 1343 CURVE SMOOTH",
"688 1343 OFFCURVE",
"459 1116 OFFCURVE",
"459 831 CURVE SMOOTH",
"459 547 OFFCURVE",
"688 319 OFFCURVE",
"971 319 CURVE SMOOTH",
"1122 319 OFFCURVE",
"1257 383 OFFCURVE",
"1352 485 CURVE",
"1165 670 LINE",
"1120 612 OFFCURVE",
"1049 580 OFFCURVE",
"971 580 CURVE SMOOTH",
"831 580 OFFCURVE",
"721 692 OFFCURVE",
"721 831 CURVE SMOOTH",
"721 971 OFFCURVE",
"831 1083 OFFCURVE",
"971 1083 CURVE SMOOTH",
"1051 1083 OFFCURVE",
"1122 1047 OFFCURVE",
"1167 989 CURVE"
);
}
);
width = 1919;
}
);
unicode = 00A9;
},
{
glyphname = guillemotleft;
layers = (
{
layerId = "5bc31741-97d3-4d5f-bc2e-c74aacfe0c49";
paths = (
{
closed = 1;
nodes = (
"285 565 LINE",
"514 958 LINE",
"322 958 LINE",
"158 664 LINE",
"102 565 LINE",
"322 172 LINE",
"514 172 LINE"
);
},
{
closed = 1;
nodes = (
"709 565 LINE",
"938 958 LINE",
"745 958 LINE",
"582 664 LINE",
"526 565 LINE",
"745 172 LINE",
"938 172 LINE"
);
}
);
width = 1040;
},
{
layerId = "5ff15c72-4ade-48a9-9f0f-2c5166e9b845";
paths = (
{
closed = 1;
nodes = (
"354 563 LINE",
"565 969 LINE",
"342 969 LINE",
"82 600 LINE",
"82 526 LINE",
"338 156 LINE",
"567 156 LINE"
);
},
{
closed = 1;
nodes = (
"795 563 LINE",
"1006 969 LINE",
"782 969 LINE",
"522 600 LINE",
"522 526 LINE",
"778 156 LINE",
"1008 156 LINE"
);
}
);
width = 1038;
}
);
unicode = 00AB;
},
{
glyphname = guillemotright;
layers = (
{
layerId = "5bc31741-97d3-4d5f-bc2e-c74aacfe0c49";
paths = (
{
closed = 1;
nodes = (
"332 565 LINE",
"102 958 LINE",
"295 958 LINE",
"459 664 LINE",
"514 565 LINE",
"295 172 LINE",
"102 172 LINE"
);
},
{
closed = 1;
nodes = (
"756 565 LINE",
"526 958 LINE",
"719 958 LINE",
"883 664 LINE",
"938 565 LINE",
"719 172 LINE",
"526 172 LINE"
);
}
);
width = 1040;
},
{
layerId = "5ff15c72-4ade-48a9-9f0f-2c5166e9b845";
paths = (
{
closed = 1;
nodes = (
"244 563 LINE",
"33 969 LINE",
"256 969 LINE",
"516 600 LINE",
"516 526 LINE",
"260 156 LINE",
"31 156 LINE"
);
},
{
closed = 1;
nodes = (
"684 563 LINE",
"473 969 LINE",
"696 969 LINE",
"956 600 LINE",
"956 526 LINE",
"700 156 LINE",
"471 156 LINE"
);
}
);
width = 1034;
}
);
unicode = 00BB;
},
{
glyphname = ellipsis;
layers = (
{
layerId = "5bc31741-97d3-4d5f-bc2e-c74aacfe0c49";
paths = (
{
closed = 1;
nodes = (
"205 43 OFFCURVE",
"272 -25 OFFCURVE",
"352 -25 CURVE SMOOTH",
"434 -25 OFFCURVE",
"502 43 OFFCURVE",
"502 123 CURVE SMOOTH",
"502 203 OFFCURVE",
"434 270 OFFCURVE",
"352 270 CURVE SMOOTH",
"272 270 OFFCURVE",
"205 203 OFFCURVE",
"205 123 CURVE"
);
},
{
closed = 1;
nodes = (
"877 43 OFFCURVE",
"944 -25 OFFCURVE",
"1024 -25 CURVE SMOOTH",
"1106 -25 OFFCURVE",
"1174 43 OFFCURVE",
"1174 123 CURVE SMOOTH",
"1174 203 OFFCURVE",
"1106 270 OFFCURVE",
"1024 270 CURVE SMOOTH",
"944 270 OFFCURVE",
"877 203 OFFCURVE",
"877 123 CURVE"
);
},
{
closed = 1;
nodes = (
"1548 43 OFFCURVE",
"1616 -25 OFFCURVE",
"1696 -25 CURVE SMOOTH",
"1778 -25 OFFCURVE",
"1845 43 OFFCURVE",
"1845 123 CURVE SMOOTH",
"1845 203 OFFCURVE",
"1778 270 OFFCURVE",
"1696 270 CURVE SMOOTH",
"1616 270 OFFCURVE",
"1548 203 OFFCURVE",
"1548 123 CURVE"
);
}
);
width = 2048;
},
{
layerId = "5ff15c72-4ade-48a9-9f0f-2c5166e9b845";
paths = (
{
closed = 1;
nodes = (
"31 51 OFFCURVE",
"115 -31 OFFCURVE",
"217 -31 CURVE SMOOTH",
"317 -31 OFFCURVE",
"408 51 OFFCURVE",
"408 143 CURVE SMOOTH",
"408 242 OFFCURVE",
"317 317 OFFCURVE",
"217 317 CURVE SMOOTH",
"115 317 OFFCURVE",
"31 242 OFFCURVE",
"31 143 CURVE"
);
},
{
closed = 1;
nodes = (
"469 51 OFFCURVE",
"553 -31 OFFCURVE",
"655 -31 CURVE SMOOTH",
"756 -31 OFFCURVE",
"846 51 OFFCURVE",
"846 143 CURVE SMOOTH",
"846 242 OFFCURVE",
"756 317 OFFCURVE",
"655 317 CURVE SMOOTH",
"553 317 OFFCURVE",
"469 242 OFFCURVE",
"469 143 CURVE"
);
},
{
closed = 1;
nodes = (
"907 51 OFFCURVE",
"991 -31 OFFCURVE",
"1094 -31 CURVE SMOOTH",
"1194 -31 OFFCURVE",
"1284 51 OFFCURVE",
"1284 143 CURVE SMOOTH",
"1284 242 OFFCURVE",
"1194 317 OFFCURVE",
"1094 317 CURVE SMOOTH",
"991 317 OFFCURVE",
"907 242 OFFCURVE",
"907 143 CURVE"
);
}
);
width = 1315;
}
);
unicode = 2026;
},
{
glyphname = endash;
layers = (
{
layerId = "5bc31741-97d3-4d5f-bc2e-c74aacfe0c49";
paths = (
{
closed = 1;
nodes = (
"0 485 LINE",
"1024 485 LINE",
"1024 647 LINE",
"0 647 LINE"
);
}
);
width = 1024;
},
{
layerId = "5ff15c72-4ade-48a9-9f0f-2c5166e9b845";
paths = (
{
closed = 1;
nodes = (
"102 459 LINE",
"1126 459 LINE",
"1126 733 LINE",
"102 733 LINE"
);
}
);
width = 1229;
}
);
unicode = 2013;
},
{
glyphname = emdash;
layers = (
{
layerId = "5bc31741-97d3-4d5f-bc2e-c74aacfe0c49";
paths = (
{
closed = 1;
nodes = (
"0 485 LINE",
"2048 485 LINE",
"2048 647 LINE",
"0 647 LINE"
);
}
);
width = 2048;
},
{
layerId = "5ff15c72-4ade-48a9-9f0f-2c5166e9b845";
paths = (
{
closed = 1;
nodes = (
"0 459 LINE",
"1843 459 LINE",
"1843 733 LINE",
"0 733 LINE"
);
}
);
width = 1843;
}
);
unicode = 2014;
},
{
glyphname = quotedblleft;
layers = (
{
layerId = "5bc31741-97d3-4d5f-bc2e-c74aacfe0c49";
paths = (
{
closed = 1;
nodes = (
"555 1057 LINE",
"745 979 LINE",
"936 1493 LINE",
"805 1556 LINE"
);
},
{
closed = 1;
nodes = (
"129 1057 LINE",
"319 979 LINE",
"510 1493 LINE",
"379 1556 LINE"
);
}
);
width = 1065;
},
{
layerId = "5ff15c72-4ade-48a9-9f0f-2c5166e9b845";
paths = (
{
closed = 1;
nodes = (
"459 1096 LINE",
"743 989 LINE",
"958 1573 LINE",
"737 1657 LINE"
);
},
{
closed = 1;
nodes = (
"-31 1106 LINE",
"254 999 LINE",
"496 1571 LINE",
"274 1663 LINE"
);
}
);
width = 938;
}
);
unicode = 201C;
},
{
glyphname = quotedblright;
layers = (
{
layerId = "5bc31741-97d3-4d5f-bc2e-c74aacfe0c49";
paths = (
{
closed = 1;
nodes = (
"473 1479 LINE",
"283 1556 LINE",
"92 1042 LINE",
"223 979 LINE"
);
},
{
closed = 1;
nodes = (
"899 1479 LINE",
"709 1556 LINE",
"518 1042 LINE",
"649 979 LINE"
);
}
);
width = 1028;
},
{
layerId = "5ff15c72-4ade-48a9-9f0f-2c5166e9b845";
paths = (
{
closed = 1;
nodes = (
"494 1556 LINE",
"209 1663 LINE",
"-6 1079 LINE",
"215 995 LINE"
);
},
{
closed = 1;
nodes = (
"983 1546 LINE",
"698 1653 LINE",
"457 1081 LINE",
"678 989 LINE"
);
}
);
width = 981;
}
);
unicode = 201D;
},
{
glyphname = quoteleft;
layers = (
{
layerId = "5bc31741-97d3-4d5f-bc2e-c74aacfe0c49";
paths = (
{
closed = 1;
nodes = (
"113 1057 LINE",
"303 979 LINE",
"494 1493 LINE",
"362 1556 LINE"
);
}
);
width = 606;
},
{
layerId = "5ff15c72-4ade-48a9-9f0f-2c5166e9b845";
paths = (
{
closed = 1;
nodes = (
"20 1110 LINE",
"326 1004 LINE",
"510 1573 LINE",
"305 1651 LINE"
);
}
);
width = 530;
}
);
unicode = 2018;
},
{
glyphname = quoteright;
layers = (
{
layerId = "5bc31741-97d3-4d5f-bc2e-c74aacfe0c49";
paths = (
{
closed = 1;
nodes = (
"92 995 LINE",
"236 942 LINE",
"496 1479 LINE",
"276 1565 LINE"
);
}
);
width = 606;
},
{
layerId = "5ff15c72-4ade-48a9-9f0f-2c5166e9b845";
paths = (
{
closed = 1;
nodes = (
"20 1065 LINE",
"225 987 LINE",
"510 1528 LINE",
"205 1634 LINE"
);
}
);
width = 532;
}
);
unicode = 2019;
},
{
glyphname = guilsinglleft;
layers = (
{
layerId = "5bc31741-97d3-4d5f-bc2e-c74aacfe0c49";
paths = (
{
closed = 1;
nodes = (
"285 565 LINE",
"514 958 LINE",
"322 958 LINE",
"158 664 LINE",
"102 565 LINE",
"322 172 LINE",
"514 172 LINE"
);
}
);
width = 616;
},
{
layerId = "5ff15c72-4ade-48a9-9f0f-2c5166e9b845";
paths = (
{
closed = 1;
nodes = (
"354 686 LINE",
"565 1092 LINE",
"342 1092 LINE",
"82 723 LINE",
"82 649 LINE",
"338 279 LINE",
"567 279 LINE"
);
}
);
width = 598;
}
);
unicode = 2039;
},
{
glyphname = guilsinglright;
layers = (
{
layerId = "5bc31741-97d3-4d5f-bc2e-c74aacfe0c49";
paths = (
{
closed = 1;
nodes = (
"332 565 LINE",
"102 958 LINE",
"295 958 LINE",
"459 664 LINE",
"514 565 LINE",
"295 172 LINE",
"102 172 LINE"
);
}
);
width = 616;
},
{
layerId = "5ff15c72-4ade-48a9-9f0f-2c5166e9b845";
paths = (
{
closed = 1;
nodes = (
"244 686 LINE",
"33 1092 LINE",
"256 1092 LINE",
"516 723 LINE",
"516 649 LINE",
"260 279 LINE",
"31 279 LINE"
);
}
);
width = 594;
}
);
unicode = 203A;
},
{
glyphname = plusminus;
layers = (
{
associatedMasterId = "5ff15c72-4ade-48a9-9f0f-2c5166e9b845";
components = (
{
alignment = -1;
name = minus;
transform = "{1, 0, 0, 1, 0, -459}";
}
);
layerId = "5f0a847c-3ecf-40d8-833d-a0a2a194d8a6";
name = img;
width = 0;
},
{
components = (
{
alignment = -1;
name = minus;
transform = "{1, 0, 0, 1, 102, -406}";
}
);
layerId = "5bc31741-97d3-4d5f-bc2e-c74aacfe0c49";
paths = (
{
closed = 1;
nodes = (
"102 711 LINE",
"522 711 LINE",
"522 309 LINE",
"705 309 LINE",
"705 711 LINE",
"1126 711 LINE",
"1126 893 LINE",
"705 893 LINE",
"705 1313 LINE",
"522 1313 LINE",
"522 893 LINE",
"102 893 LINE"
);
}
);
width = 1229;
},
{
components = (
{
alignment = -1;
name = minus;
transform = "{1, 0, 0, 1, 0, -459}";
}
);
layerId = "5ff15c72-4ade-48a9-9f0f-2c5166e9b845";
paths = (
{
closed = 1;
nodes = (
"102 651 LINE",
"465 651 LINE",
"465 328 LINE",
"762 328 LINE",
"762 651 LINE",
"1126 651 LINE",
"1126 948 LINE",
"762 948 LINE",
"762 1311 LINE",
"465 1311 LINE",
"465 948 LINE",
"102 948 LINE"
);
}
);
width = 1229;
}
);
unicode = 00B1;
},
{
glyphname = minus;
layers = (
{
layerId = "5bc31741-97d3-4d5f-bc2e-c74aacfe0c49";
paths = (
{
closed = 1;
nodes = (
"0 485 LINE",
"1024 485 LINE",
"1024 647 LINE",
"0 647 LINE"
);
}
);
width = 1024;
},
{
layerId = "5ff15c72-4ade-48a9-9f0f-2c5166e9b845";
paths = (
{
closed = 1;
nodes = (
"102 459 LINE",
"1126 459 LINE",
"1126 733 LINE",
"102 733 LINE"
);
}
);
width = 1229;
}
);
unicode = 2212;
},
{
glyphname = numbersign;
layers = (
{
layerId = "5bc31741-97d3-4d5f-bc2e-c74aacfe0c49";
paths = (
{
closed = 1;
nodes = (
"129 999 LINE",
"382 999 LINE",
"300 584 LINE",
"61 584 LINE",
"20 389 LINE",
"261 389 LINE",
"184 0 LINE",
"381 0 LINE",
"456 389 LINE",
"807 389 LINE",
"731 0 LINE",
"924 0 LINE",
"999 389 LINE",
"1239 389 LINE",
"1276 584 LINE",
"1037 584 LINE",
"1118 999 LINE",
"1343 999 LINE",
"1382 1198 LINE",
"1157 1198 LINE",
"1219 1516 LINE",
"1028 1516 LINE",
"965 1198 LINE",
"614 1198 LINE",
"676 1516 LINE",
"485 1516 LINE",
"422 1198 LINE",
"170 1198 LINE"
);
},
{
closed = 1;
nodes = (
"575 999 LINE",
"926 999 LINE",
"845 584 LINE",
"494 584 LINE"
);
}
);
width = 1423;
},
{
layerId = "5ff15c72-4ade-48a9-9f0f-2c5166e9b845";
paths = (
{
closed = 1;
nodes = (
"102 915 LINE",
"291 915 LINE",
"221 561 LINE",
"72 561 LINE",
"8 281 LINE",
"166 281 LINE",
"111 0 LINE",
"449 0 LINE",
"503 281 LINE",
"825 281 LINE",
"770 0 LINE",
"1104 0 LINE",
"1158 281 LINE",
"1337 281 LINE",
"1401 561 LINE",
"1213 561 LINE",
"1282 915 LINE",
"1434 915 LINE",
"1497 1198 LINE",
"1337 1198 LINE",
"1399 1516 LINE",
"1067 1516 LINE",
"1005 1198 LINE",
"679 1198 LINE",
"741 1516 LINE",
"410 1516 LINE",
"347 1198 LINE",
"166 1198 LINE"
);
},
{
closed = 1;
nodes = (
"625 915 LINE",
"949 915 LINE",
"880 561 LINE",
"557 561 LINE"
);
}
);
width = 1538;
}
);
unicode = 0023;
},
{
glyphname = less;
layers = (
{
layerId = "5bc31741-97d3-4d5f-bc2e-c74aacfe0c49";
paths = (
{
closed = 1;
nodes = (
"10 502 LINE",
"801 190 LINE",
"801 332 LINE",
"181 560 LINE",
"801 776 LINE",
"801 920 LINE",
"10 614 LINE"
);
}
);
width = 834;
},
{
layerId = "5ff15c72-4ade-48a9-9f0f-2c5166e9b845";
paths = (
{
closed = 1;
nodes = (
"31 451 LINE",
"786 164 LINE",
"786 414 LINE",
"338 558 LINE",
"786 692 LINE",
"786 948 LINE",
"31 674 LINE"
);
}
);
width = 868;
}
);
unicode = 003C;
},
{
glyphname = equal;
layers = (
{
layerId = "5bc31741-97d3-4d5f-bc2e-c74aacfe0c49";
paths = (
{
closed = 1;
nodes = (
"86 305 LINE",
"836 305 LINE",
"836 446 LINE",
"86 446 LINE"
);
},
{
closed = 1;
nodes = (
"86 643 LINE",
"836 643 LINE",
"836 784 LINE",
"86 784 LINE"
);
}
);
width = 922;
},
{
layerId = "5ff15c72-4ade-48a9-9f0f-2c5166e9b845";
paths = (
{
closed = 1;
nodes = (
"61 281 LINE",
"934 281 LINE",
"934 567 LINE",
"61 567 LINE"
);
},
{
closed = 1;
nodes = (
"61 711 LINE",
"934 711 LINE",
"934 997 LINE",
"61 997 LINE"
);
}
);
width = 995;
}
);
unicode = 003D;
},
{
glyphname = greater;
layers = (
{
layerId = "5bc31741-97d3-4d5f-bc2e-c74aacfe0c49";
paths = (
{
closed = 1;
nodes = (
"844 608 LINE",
"53 920 LINE",
"53 776 LINE",
"673 555 LINE",
"53 332 LINE",
"53 190 LINE",
"844 496 LINE"
);
}
);
width = 854;
},
{
layerId = "5ff15c72-4ade-48a9-9f0f-2c5166e9b845";
paths = (
{
closed = 1;
nodes = (
"797 674 LINE",
"41 948 LINE",
"41 692 LINE",
"489 558 LINE",
"41 414 LINE",
"41 164 LINE",
"797 451 LINE"
);
}
);
width = 827;
}
);
unicode = 003E;
},
{
glyphname = question;
layers = (
{
components = (
{
alignment = -1;
name = dotaccent;
transform = "{1, 0, 0, 1, 164, -1282}";
}
);
layerId = "5bc31741-97d3-4d5f-bc2e-c74aacfe0c49";
paths = (
{
closed = 1;
nodes = (
"561 336 LINE",
"561 639 OFFCURVE",
"600 694 OFFCURVE",
"788 825 CURVE",
"924 920 OFFCURVE",
"995 1036 OFFCURVE",
"995 1171 CURVE SMOOTH",
"995 1382 OFFCURVE",
"848 1571 OFFCURVE",
"580 1571 CURVE SMOOTH",
"317 1571 OFFCURVE",
"135 1380 OFFCURVE",
"121 1157 CURVE",
"297 1145 LINE",
"297 1229 OFFCURVE",
"365 1399 OFFCURVE",
"580 1399 CURVE SMOOTH",
"705 1399 OFFCURVE",
"807 1284 OFFCURVE",
"807 1165 CURVE SMOOTH",
"807 1026 OFFCURVE",
"713 987 OFFCURVE",
"571 866 CURVE",
"414 733 OFFCURVE",
"381 614 OFFCURVE",
"381 336 CURVE"
);
}
);
width = 1065;
},
{
components = (
{
alignment = -1;
name = dotaccent;
transform = "{1, 0, 0, 1, 209, -1225}";
}
);
layerId = "5ff15c72-4ade-48a9-9f0f-2c5166e9b845";
paths = (
{
closed = 1;
nodes = (
"637 391 LINE",
"637 590 OFFCURVE",
"678 649 OFFCURVE",
"819 750 CURVE",
"956 858 OFFCURVE",
"1022 977 OFFCURVE",
"1022 1122 CURVE SMOOTH",
"1022 1399 OFFCURVE",
"821 1552 OFFCURVE",
"567 1552 CURVE SMOOTH",
"295 1552 OFFCURVE",
"96 1411 OFFCURVE",
"90 1118 CURVE",
"408 1087 LINE",
"408 1225 OFFCURVE",
"473 1257 OFFCURVE",
"555 1257 CURVE SMOOTH",
"621 1257 OFFCURVE",
"664 1202 OFFCURVE",
"664 1124 CURVE SMOOTH",
"664 1014 OFFCURVE",
"633 956 OFFCURVE",
"510 854 CURVE",
"340 735 OFFCURVE",
"324 670 OFFCURVE",
"324 391 CURVE"
);
}
);
width = 1192;
}
);
unicode = 003F;
},
{
glyphname = dollar;
layers = (
{
associatedMasterId = "5ff15c72-4ade-48a9-9f0f-2c5166e9b845";
layerId = "5f0a847c-3ecf-40d8-833d-a0a2a194d8a6";
name = img;
width = 0;
},
{
layerId = "5bc31741-97d3-4d5f-bc2e-c74aacfe0c49";
paths = (
{
closed = 1;
nodes = (
"150 303 LINE",
"269 303 LINE",
"313 222 OFFCURVE",
"384 158 OFFCURVE",
"516 136 CURVE",
"516 -186 LINE",
"713 -186 LINE",
"713 136 LINE",
"908 167 OFFCURVE",
"1041 294 OFFCURVE",
"1041 459 CURVE SMOOTH",
"1041 678 OFFCURVE",
"857 719 OFFCURVE",
"584 803 CURVE SMOOTH",
"502 828 OFFCURVE",
"393 839 OFFCURVE",
"393 952 CURVE SMOOTH",
"393 1034 OFFCURVE",
"472 1085 OFFCURVE",
"617 1085 CURVE SMOOTH",
"736 1085 OFFCURVE",
"815 1026 OFFCURVE",
"828 940 CURVE",
"828 918 LINE",
"830 918 LINE",
"830 915 LINE",
"838 916 OFFCURVE",
"845 917 OFFCURVE",
"853 918 CURVE",
"1061 918 LINE",
"1061 1090 LINE",
"960 1090 LINE",
"909 1161 OFFCURVE",
"825 1217 OFFCURVE",
"713 1237 CURVE",
"713 1580 LINE",
"516 1580 LINE",
"516 1238 LINE",
"318 1210 OFFCURVE",
"203 1099 OFFCURVE",
"203 944 CURVE SMOOTH",
"203 772 OFFCURVE",
"311 686 OFFCURVE",
"463 645 CURVE SMOOTH",
"522 629 OFFCURVE",
"580 614 OFFCURVE",
"639 598 CURVE SMOOTH",
"727 575 OFFCURVE",
"842 549 OFFCURVE",
"842 449 CURVE SMOOTH",
"842 353 OFFCURVE",
"757 299 OFFCURVE",
"625 299 CURVE SMOOTH",
"479 299 OFFCURVE",
"404 358 OFFCURVE",
"404 465 CURVE",
"403 465 OFFCURVE",
"403 464 OFFCURVE",
"402 464 CURVE",
"402 468 OFFCURVE",
"402 471 OFFCURVE",
"402 475 CURVE",
"150 475 LINE"
);
}
);
width = 1210;
},
{
layerId = "5ff15c72-4ade-48a9-9f0f-2c5166e9b845";
paths = (
{
closed = 1;
nodes = (
"102 240 LINE",
"278 240 LINE",
"326 190 OFFCURVE",
"390 155 OFFCURVE",
"461 134 CURVE",
"461 -188 LINE",
"793 -188 LINE",
"793 133 LINE",
"971 183 OFFCURVE",
"1085 311 OFFCURVE",
"1085 481 CURVE SMOOTH",
"1085 709 OFFCURVE",
"940 757 OFFCURVE",
"645 852 CURVE SMOOTH",
"567 877 OFFCURVE",
"504 901 OFFCURVE",
"504 948 CURVE SMOOTH",
"504 991 OFFCURVE",
"541 1016 OFFCURVE",
"606 1016 CURVE SMOOTH",
"710 1016 OFFCURVE",
"767 955 OFFCURVE",
"770 872 CURVE",
"770 872 LINE",
"770 866 LINE",
"770 866 LINE",
"816 866 OFFCURVE",
"861 866 OFFCURVE",
"907 866 CURVE SMOOTH",
"1112 866 LINE",
"1112 1167 LINE",
"932 1167 LINE",
"896 1195 OFFCURVE",
"848 1220 OFFCURVE",
"793 1238 CURVE",
"793 1580 LINE",
"461 1580 LINE",
"461 1255 LINE",
"284 1220 OFFCURVE",
"160 1114 OFFCURVE",
"160 926 CURVE SMOOTH",
"160 737 OFFCURVE",
"283 645 OFFCURVE",
"432 600 CURVE SMOOTH",
"494 581 OFFCURVE",
"556 562 OFFCURVE",
"618 543 CURVE SMOOTH",
"672 526 OFFCURVE",
"731 498 OFFCURVE",
"731 455 CURVE SMOOTH",
"731 410 OFFCURVE",
"694 379 OFFCURVE",
"625 379 CURVE",
"625 379 OFFCURVE",
"625 379 OFFCURVE",
"625 379 CURVE",
"625 379 OFFCURVE",
"625 379 OFFCURVE",
"625 379 CURVE",
"508 379 OFFCURVE",
"444 446 OFFCURVE",
"444 541 CURVE",
"102 541 LINE"
);
}
);
width = 1245;
}
);
unicode = 0024;
},
{
glyphname = braceleft;
layers = (
{
layerId = "5bc31741-97d3-4d5f-bc2e-c74aacfe0c49";
paths = (
{
closed = 1;
nodes = (
"133 526 LINE",
"244 526 OFFCURVE",
"301 393 OFFCURVE",
"301 260 CURVE SMOOTH",
"301 -113 LINE SMOOTH",
"301 -281 OFFCURVE",
"408 -377 OFFCURVE",
"512 -377 CURVE SMOOTH",
"558 -377 OFFCURVE",
"603 -377 OFFCURVE",
"649 -377 CURVE",
"649 -250 LINE",
"580 -250 LINE",
"509 -250 OFFCURVE",
"485 -177 OFFCURVE",
"485 -51 CURVE SMOOTH",
"485 297 LINE SMOOTH",
"485 459 OFFCURVE",
"412 553 OFFCURVE",
"317 588 CURVE",
"317 592 LINE",
"412 627 OFFCURVE",
"485 719 OFFCURVE",
"485 883 CURVE SMOOTH",
"485 1231 LINE SMOOTH",
"485 1356 OFFCURVE",
"508 1430 OFFCURVE",
"580 1430 CURVE",
"649 1430 LINE",
"649 1556 LINE",
"603 1556 OFFCURVE",
"558 1556 OFFCURVE",
"512 1556 CURVE SMOOTH",
"408 1556 OFFCURVE",
"301 1460 OFFCURVE",
"301 1292 CURVE SMOOTH",
"301 1267 OFFCURVE",
"301 1243 OFFCURVE",
"301 1218 CURVE SMOOTH",
"301 920 LINE SMOOTH",
"301 786 OFFCURVE",
"244 653 OFFCURVE",
"133 653 CURVE"
);
}
);
width = 721;
},
{
layerId = "5ff15c72-4ade-48a9-9f0f-2c5166e9b845";
paths = (
{
closed = 1;
nodes = (
"102 606 LINE",
"245 584 OFFCURVE",
"340 635 OFFCURVE",
"340 378 CURVE SMOOTH",
"340 -18 LINE SMOOTH",
"340 -279 OFFCURVE",
"442 -367 OFFCURVE",
"641 -367 CURVE SMOOTH",
"766 -367 OFFCURVE",
"836 -358 OFFCURVE",
"836 -358 CURVE",
"836 -195 LINE",
"836 -31 LINE",
"711 -25 OFFCURVE",
"690 -4 OFFCURVE",
"690 133 CURVE SMOOTH",
"690 356 LINE SMOOTH",
"690 477 OFFCURVE",
"723 643 OFFCURVE",
"578 704 CURVE",
"578 704 LINE",
"672 748 OFFCURVE",
"690 805 OFFCURVE",
"690 893 CURVE SMOOTH",
"690 1303 LINE SMOOTH",
"690 1421 OFFCURVE",
"711 1452 OFFCURVE",
"836 1456 CURVE",
"836 1609 LINE",
"836 1763 LINE",
"836 1763 OFFCURVE",
"766 1772 OFFCURVE",
"641 1772 CURVE SMOOTH",
"475 1772 OFFCURVE",
"376 1710 OFFCURVE",
"348 1539 CURVE SMOOTH",
"342 1505 OFFCURVE",
"340 1466 OFFCURVE",
"340 1423 CURVE SMOOTH",
"340 1102 LINE SMOOTH",
"340 758 OFFCURVE",
"271 823 OFFCURVE",
"102 797 CURVE"
);
}
);
width = 897;
}
);
unicode = 007B;
},
{
glyphname = bar;
layers = (
{
layerId = "5bc31741-97d3-4d5f-bc2e-c74aacfe0c49";
paths = (
{
closed = 1;
nodes = (
"152 -270 LINE",
"307 -270 LINE",
"307 1726 LINE",
"152 1726 LINE"
);
}
);
width = 455;
},
{
layerId = "5ff15c72-4ade-48a9-9f0f-2c5166e9b845";
paths = (
{
closed = 1;
nodes = (
"123 -270 LINE",
"375 -270 LINE",
"375 1729 LINE",
"123 1729 LINE"
);
}
);
width = 594;
}
);
unicode = 007C;
},
{
glyphname = braceright;
layers = (
{
layerId = "5bc31741-97d3-4d5f-bc2e-c74aacfe0c49";
paths = (
{
closed = 1;
nodes = (
"72 -250 LINE",
"141 -250 LINE",
"212 -250 OFFCURVE",
"236 -177 OFFCURVE",
"236 -51 CURVE SMOOTH",
"236 297 LINE SMOOTH",
"236 461 OFFCURVE",
"309 553 OFFCURVE",
"403 588 CURVE",
"403 592 LINE",
"309 627 OFFCURVE",
"236 719 OFFCURVE",
"236 883 CURVE SMOOTH",
"236 1231 LINE SMOOTH",
"236 1356 OFFCURVE",
"213 1430 OFFCURVE",
"141 1430 CURVE",
"72 1430 LINE",
"72 1556 LINE",
"118 1556 OFFCURVE",
"163 1556 OFFCURVE",
"209 1556 CURVE SMOOTH",
"313 1556 OFFCURVE",
"420 1460 OFFCURVE",
"420 1292 CURVE SMOOTH",
"420 1267 OFFCURVE",
"420 1243 OFFCURVE",
"420 1218 CURVE SMOOTH",
"420 920 LINE SMOOTH",
"420 786 OFFCURVE",
"477 653 OFFCURVE",
"588 653 CURVE",
"588 526 LINE",
"477 526 OFFCURVE",
"420 393 OFFCURVE",
"420 260 CURVE SMOOTH",
"420 -38 LINE SMOOTH",
"420 -63 OFFCURVE",
"420 -88 OFFCURVE",
"420 -113 CURVE SMOOTH",
"420 -281 OFFCURVE",
"313 -377 OFFCURVE",
"209 -377 CURVE SMOOTH",
"163 -377 OFFCURVE",
"118 -377 OFFCURVE",
"72 -377 CURVE"
);
}
);
width = 721;
},
{
layerId = "5ff15c72-4ade-48a9-9f0f-2c5166e9b845";
paths = (
{
closed = 1;
nodes = (
"61 -195 LINE",
"61 -31 LINE",
"186 -25 OFFCURVE",
"207 -4 OFFCURVE",
"207 133 CURVE SMOOTH",
"207 504 LINE SMOOTH",
"207 587 OFFCURVE",
"224 664 OFFCURVE",
"319 704 CURVE",
"319 704 LINE",
"225 748 OFFCURVE",
"207 805 OFFCURVE",
"207 893 CURVE SMOOTH",
"207 1303 LINE SMOOTH",
"207 1421 OFFCURVE",
"186 1452 OFFCURVE",
"61 1456 CURVE",
"61 1609 LINE",
"61 1763 LINE",
"61 1763 OFFCURVE",
"131 1772 OFFCURVE",
"256 1772 CURVE SMOOTH",
"422 1772 OFFCURVE",
"520 1710 OFFCURVE",
"549 1540 CURVE SMOOTH",
"555 1505 OFFCURVE",
"557 1466 OFFCURVE",
"557 1423 CURVE SMOOTH",
"557 1102 LINE SMOOTH",
"557 760 OFFCURVE",
"627 823 OFFCURVE",
"795 797 CURVE",
"795 606 LINE",
"626 580 OFFCURVE",
"557 646 OFFCURVE",
"557 299 CURVE SMOOTH",
"557 -18 LINE SMOOTH",
"557 -62 OFFCURVE",
"555 -101 OFFCURVE",
"549 -135 CURVE SMOOTH",
"520 -305 OFFCURVE",
"422 -367 OFFCURVE",
"256 -367 CURVE SMOOTH",
"131 -367 OFFCURVE",
"61 -358 OFFCURVE",
"61 -358 CURVE"
);
}
);
width = 897;
}
);
unicode = 007D;
},
{
glyphname = asciitilde;
layers = (
{
layerId = "5bc31741-97d3-4d5f-bc2e-c74aacfe0c49";
paths = (
{
closed = 1;
nodes = (
"215 369 LINE",
"281 479 OFFCURVE",
"338 520 OFFCURVE",
"395 520 CURVE SMOOTH",
"496 520 OFFCURVE",
"676 377 OFFCURVE",
"831 377 CURVE SMOOTH",
"950 377 OFFCURVE",
"1028 442 OFFCURVE",
"1087 553 CURVE",
"1014 668 LINE",
"948 557 OFFCURVE",
"891 516 OFFCURVE",
"834 516 CURVE SMOOTH",
"733 516 OFFCURVE",
"553 659 OFFCURVE",
"397 659 CURVE SMOOTH",
"279 659 OFFCURVE",
"201 594 OFFCURVE",
"141 483 CURVE"
);
}
);
width = 1229;
},
{
layerId = "5ff15c72-4ade-48a9-9f0f-2c5166e9b845";
paths = (
{
closed = 1;
nodes = (
"164 475 LINE",
"166 563 OFFCURVE",
"209 590 OFFCURVE",
"260 590 CURVE SMOOTH",
"348 590 OFFCURVE",
"489 449 OFFCURVE",
"635 449 CURVE SMOOTH",
"874 449 OFFCURVE",
"930 651 OFFCURVE",
"930 770 CURVE",
"745 811 LINE",
"735 731 OFFCURVE",
"707 694 OFFCURVE",
"645 694 CURVE SMOOTH",
"559 694 OFFCURVE",
"360 840 OFFCURVE",
"264 840 CURVE SMOOTH",
"43 840 OFFCURVE",
"-8 633 OFFCURVE",
"-8 512 CURVE"
);
}
);
width = 905;
}
);
unicode = 007E;
},
{
glyphname = sterling;
layers = (
{
layerId = "5bc31741-97d3-4d5f-bc2e-c74aacfe0c49";
paths = (
{
closed = 1;
nodes = (
"33 662 LINE",
"285 662 LINE",
"290 647 OFFCURVE",
"296 633 OFFCURVE",
"301 618 CURVE",
"364 436 OFFCURVE",
"335 265 OFFCURVE",
"171 172 CURVE",
"61 172 LINE",
"61 4 LINE",
"860 4 LINE",
"860 172 LINE",
"374 172 LINE",
"493 260 OFFCURVE",
"539 409 OFFCURVE",
"516 510 CURVE SMOOTH",
"506 553 OFFCURVE",
"491 605 OFFCURVE",
"473 662 CURVE",
"707 662 LINE",
"707 807 LINE",
"428 807 LINE",
"382 959 OFFCURVE",
"351 1065 OFFCURVE",
"356 1135 CURVE SMOOTH",
"363 1223 OFFCURVE",
"421 1294 OFFCURVE",
"537 1294 CURVE SMOOTH",
"639 1294 OFFCURVE",
"694 1196 OFFCURVE",
"696 1094 CURVE",
"751 1097 OFFCURVE",
"807 1101 OFFCURVE",
"862 1104 CURVE",
"874 1309 OFFCURVE",
"733 1458 OFFCURVE",
"535 1458 CURVE SMOOTH",
"315 1458 OFFCURVE",
"164 1311 OFFCURVE",
"164 1104 CURVE SMOOTH",
"164 1077 OFFCURVE",
"166 1051 OFFCURVE",
"169 1025 CURVE SMOOTH",
"179 948 OFFCURVE",
"202 876 OFFCURVE",
"228 807 CURVE",
"33 807 LINE"
);
}
);
width = 932;
},
{
layerId = "5ff15c72-4ade-48a9-9f0f-2c5166e9b845";
paths = (
{
closed = 1;
nodes = (
"41 584 LINE",
"224 584 LINE",
"234 559 OFFCURVE",
"242 534 OFFCURVE",
"250 510 CURVE",
"271 439 OFFCURVE",
"266 345 OFFCURVE",
"246 274 CURVE",
"86 274 LINE",
"86 0 LINE",
"985 0 LINE",
"985 274 LINE",
"565 274 LINE",
"592 332 OFFCURVE",
"609 419 OFFCURVE",
"607 503 CURVE SMOOTH",
"606 531 OFFCURVE",
"604 558 OFFCURVE",
"599 584 CURVE",
"772 584 LINE",
"772 829 LINE",
"503 829 LINE",
"469 925 OFFCURVE",
"457 973 OFFCURVE",
"457 1026 CURVE SMOOTH",
"457 1124 OFFCURVE",
"508 1165 OFFCURVE",
"569 1165 CURVE SMOOTH",
"637 1165 OFFCURVE",
"684 1112 OFFCURVE",
"688 1006 CURVE",
"800 1010 OFFCURVE",
"912 1014 OFFCURVE",
"1024 1018 CURVE",
"1001 1310 OFFCURVE",
"842 1458 OFFCURVE",
"563 1458 CURVE SMOOTH",
"349 1458 OFFCURVE",
"171 1329 OFFCURVE",
"130 1119 CURVE SMOOTH",
"124 1089 OFFCURVE",
"121 1057 OFFCURVE",
"121 1024 CURVE SMOOTH",
"121 949 OFFCURVE",
"129 886 OFFCURVE",
"141 829 CURVE",
"41 829 LINE"
);
}
);
width = 1065;
}
);
unicode = 00A3;
},
{
glyphname = cent;
layers = (
{
associatedMasterId = "5ff15c72-4ade-48a9-9f0f-2c5166e9b845";
components = (
{
alignment = -1;
name = c;
transform = "{1, 0, 0, 1, 0, 164}";
}
);
layerId = "5f0a847c-3ecf-40d8-833d-a0a2a194d8a6";
name = img;
width = 0;
},
{
components = (
{
alignment = -1;
name = c;
transform = "{1, 0, 0, 1, 20, 164}";
}
);
layerId = "5bc31741-97d3-4d5f-bc2e-c74aacfe0c49";
paths = (
{
closed = 1;
nodes = (
"713 -186 LINE",
"713 204 LINE",
"516 204 LINE",
"516 -186 LINE"
);
},
{
closed = 1;
nodes = (
"713 1190 LINE",
"713 1580 LINE",
"516 1580 LINE",
"516 1190 LINE"
);
}
);
width = 1210;
},
{
components = (
{
alignment = -1;
name = c;
transform = "{1, 0, 0, 1, 0, 164}";
}
);
layerId = "5ff15c72-4ade-48a9-9f0f-2c5166e9b845";
paths = (
{
closed = 1;
nodes = (
"793 -188 LINE",
"793 184 LINE",
"461 184 LINE",
"461 -188 LINE"
);
},
{
closed = 1;
nodes = (
"793 1208 LINE",
"793 1580 LINE",
"461 1580 LINE",
"461 1208 LINE"
);
}
);
width = 1245;
}
);
unicode = 00A2;
},
{
glyphname = multiply;
layers = (
{
layerId = "5bc31741-97d3-4d5f-bc2e-c74aacfe0c49";
paths = (
{
closed = 1;
nodes = (
"133 207 LINE",
"299 96 LINE",
"654 522 LINE",
"1004 102 LINE",
"1155 221 LINE",
"778 671 LINE",
"1151 1118 LINE",
"991 1233 LINE",
"650 825 LINE",
"297 1247 LINE",
"152 1124 LINE",
"525 676 LINE"
);
}
);
width = 1303;
},
{
layerId = "5ff15c72-4ade-48a9-9f0f-2c5166e9b845";
paths = (
{
closed = 1;
nodes = (
"74 293 LINE",
"295 94 LINE",
"619 446 LINE",
"944 94 LINE",
"1165 293 LINE",
"822 666 LINE",
"1178 1053 LINE",
"956 1253 LINE",
"619 887 LINE",
"283 1253 LINE",
"61 1053 LINE",
"417 666 LINE"
);
}
);
width = 1239;
}
);
unicode = 00D7;
},
{
glyphname = circumflex;
layers = (
{
anchors = (
{
name = _top;
position = "{475, 1036}";
}
);
layerId = "5bc31741-97d3-4d5f-bc2e-c74aacfe0c49";
paths = (
{
closed = 1;
nodes = (
"217 1176 LINE",
"467 1489 LINE",
"530 1489 LINE",
"782 1176 LINE",
"633 1176 LINE",
"500 1331 LINE",
"365 1176 LINE"
);
}
);
width = 860;
},
{
anchors = (
{
name = _top;
position = "{442, 1036}";
}
);
layerId = "5ff15c72-4ade-48a9-9f0f-2c5166e9b845";
paths = (
{
closed = 1;
nodes = (
"86 1176 LINE",
"358 1501 LINE",
"598 1501 LINE",
"872 1176 LINE",
"627 1176 LINE",
"479 1329 LINE",
"334 1176 LINE"
);
}
);
width = 827;
}
);
unicode = 02C6;
},
{
glyphname = tilde;
layers = (
{
anchors = (
{
name = _top;
position = "{442, 1036}";
}
);
guideLines = (
{
angle = 90;
position = "{309, 0}";
},
{
angle = 90;
position = "{594, 0}";
}
);
layerId = "5bc31741-97d3-4d5f-bc2e-c74aacfe0c49";
paths = (
{
closed = 1;
nodes = (
"221 1415 OFFCURVE",
"123 1376 OFFCURVE",
"88 1251 CURVE",
"197 1198 LINE",
"217 1272 OFFCURVE",
"266 1276 OFFCURVE",
"305 1276 CURVE SMOOTH",
"393 1276 OFFCURVE",
"444 1178 OFFCURVE",
"592 1178 CURVE SMOOTH",
"700 1178 OFFCURVE",
"782 1243 OFFCURVE",
"809 1356 CURVE",
"690 1391 LINE",
"678 1335 OFFCURVE",
"637 1311 OFFCURVE",
"600 1311 CURVE SMOOTH",
"496 1311 OFFCURVE",
"446 1415 OFFCURVE",
"313 1415 CURVE SMOOTH"
);
}
);
width = 903;
},
{
anchors = (
{
name = _top;
position = "{463, 1036}";
}
);
guideLines = (
{
angle = 90;
position = "{309, 0}";
},
{
angle = 90;
position = "{594, 0}";
}
);
layerId = "5ff15c72-4ade-48a9-9f0f-2c5166e9b845";
paths = (
{
closed = 1;
nodes = (
"203 1479 OFFCURVE",
"47 1407 OFFCURVE",
"10 1264 CURVE",
"162 1194 LINE",
"188 1229 OFFCURVE",
"229 1257 OFFCURVE",
"289 1257 CURVE SMOOTH",
"395 1257 OFFCURVE",
"473 1169 OFFCURVE",
"612 1169 CURVE SMOOTH",
"737 1169 OFFCURVE",
"846 1264 OFFCURVE",
"887 1384 CURVE",
"729 1454 LINE",
"694 1403 OFFCURVE",
"651 1386 OFFCURVE",
"596 1386 CURVE SMOOTH",
"504 1386 OFFCURVE",
"406 1479 OFFCURVE",
"295 1479 CURVE SMOOTH"
);
}
);
width = 903;
}
);
unicode = 02DC;
},
{
glyphname = macron;
layers = (
{
anchors = (
{
name = _top;
position = "{442, 1036}";
}
);
layerId = "5bc31741-97d3-4d5f-bc2e-c74aacfe0c49";
paths = (
{
closed = 1;
nodes = (
"797 1346 LINE",
"39 1346 LINE",
"39 1229 LINE",
"797 1229 LINE"
);
}
);
width = 797;
},
{
anchors = (
{
name = _top;
position = "{422, 1036}";
}
);
layerId = "5ff15c72-4ade-48a9-9f0f-2c5166e9b845";
paths = (
{
closed = 1;
nodes = (
"770 1391 LINE",
"82 1391 LINE",
"82 1176 LINE",
"770 1176 LINE"
);
}
);
width = 831;
}
);
unicode = 00AF;
},
{
glyphname = breve;
layers = (
{
anchors = (
{
name = _top;
position = "{475, 1036}";
}
);
layerId = "5bc31741-97d3-4d5f-bc2e-c74aacfe0c49";
paths = (
{
closed = 1;
nodes = (
"688 1149 OFFCURVE",
"848 1290 OFFCURVE",
"856 1479 CURVE",
"735 1479 LINE",
"731 1362 OFFCURVE",
"627 1264 OFFCURVE",
"487 1264 CURVE SMOOTH",
"348 1264 OFFCURVE",
"242 1364 OFFCURVE",
"240 1479 CURVE",
"119 1479 LINE",
"127 1290 OFFCURVE",
"285 1149 OFFCURVE",
"487 1149 CURVE SMOOTH"
);
}
);
width = 1008;
},
{
anchors = (
{
name = _top;
position = "{479, 1036}";
}
);
layerId = "5ff15c72-4ade-48a9-9f0f-2c5166e9b845";
paths = (
{
closed = 1;
nodes = (
"733 1157 OFFCURVE",
"864 1276 OFFCURVE",
"922 1481 CURVE",
"672 1481 LINE",
"639 1395 OFFCURVE",
"578 1358 OFFCURVE",
"483 1358 CURVE SMOOTH",
"383 1358 OFFCURVE",
"319 1401 OFFCURVE",
"293 1481 CURVE",
"41 1481 LINE",
"106 1274 OFFCURVE",
"229 1157 OFFCURVE",
"483 1157 CURVE SMOOTH"
);
}
);
width = 987;
}
);
unicode = 02D8;
},
{
glyphname = cedilla;
layers = (
{
anchors = (
{
name = _bottom;
position = "{455, 0}";
}
);
layerId = "5bc31741-97d3-4d5f-bc2e-c74aacfe0c49";
paths = (
{
closed = 1;
nodes = (
"193 -432 LINE",
"385 -432 OFFCURVE",
"545 -317 OFFCURVE",
"594 -123 CURVE",
"444 -78 LINE",
"422 -201 OFFCURVE",
"328 -299 OFFCURVE",
"182 -303 CURVE"
);
}
);
width = 940;
},
{
anchors = (
{
name = _bottom;
position = "{500, 0}";
}
);
layerId = "5ff15c72-4ade-48a9-9f0f-2c5166e9b845";
paths = (
{
closed = 1;
nodes = (
"207 -455 LINE",
"420 -451 OFFCURVE",
"590 -350 OFFCURVE",
"651 -139 CURVE",
"408 -53 LINE",
"381 -205 OFFCURVE",
"291 -285 OFFCURVE",
"182 -293 CURVE"
);
}
);
width = 926;
}
);
unicode = 00B8;
},
{
glyphname = hungarumlaut;
layers = (
{
layerId = "5bc31741-97d3-4d5f-bc2e-c74aacfe0c49";
paths = (
{
closed = 1;
nodes = (
"988 1781 OFFCURVE",
"908 1656 OFFCURVE",
"829 1530 CURVE",
"928 1485 LINE",
"1010 1610 OFFCURVE",
"1092 1735 OFFCURVE",
"1174 1860 CURVE",
"1138 1876 OFFCURVE",
"1103 1891 OFFCURVE",
"1067 1907 CURVE"
);
},
{
closed = 1;
nodes = (
"667 1781 OFFCURVE",
"590 1656 OFFCURVE",
"512 1530 CURVE",
"545 1515 OFFCURVE",
"577 1500 OFFCURVE",
"610 1485 CURVE",
"691 1610 OFFCURVE",
"771 1735 OFFCURVE",
"852 1860 CURVE",
"816 1876 OFFCURVE",
"781 1891 OFFCURVE",
"745 1907 CURVE"
);
}
);
width = 1341;
},
{
layerId = "5ff15c72-4ade-48a9-9f0f-2c5166e9b845";
paths = (
{
closed = 1;
nodes = (
"708 1675 OFFCURVE",
"639 1569 OFFCURVE",
"569 1462 CURVE",
"758 1462 LINE",
"851 1569 OFFCURVE",
"945 1675 OFFCURVE",
"1038 1782 CURVE",
"951 1782 OFFCURVE",
"865 1782 OFFCURVE",
"778 1782 CURVE"
);
},
{
closed = 1;
nodes = (
"322 1675 OFFCURVE",
"260 1569 OFFCURVE",
"199 1462 CURVE",
"261 1462 OFFCURVE",
"323 1462 OFFCURVE",
"385 1462 CURVE",
"470 1569 OFFCURVE",
"556 1675 OFFCURVE",
"641 1782 CURVE",
"555 1782 OFFCURVE",
"469 1782 OFFCURVE",
"383 1782 CURVE"
);
}
);
width = 1317;
}
);
unicode = 02DD;
},
{
glyphname = ogonek;
layers = (
{
layerId = "5bc31741-97d3-4d5f-bc2e-c74aacfe0c49";
paths = (
{
closed = 1;
nodes = (
"383 106 LINE",
"266 76 OFFCURVE",
"29 -45 OFFCURVE",
"29 -250 CURVE SMOOTH",
"29 -385 OFFCURVE",
"147 -457 OFFCURVE",
"309 -457 CURVE SMOOTH",
"371 -457 OFFCURVE",
"459 -432 OFFCURVE",
"487 -416 CURVE",
"438 -250 LINE",
"412 -262 OFFCURVE",
"377 -272 OFFCURVE",
"326 -272 CURVE SMOOTH",
"279 -272 OFFCURVE",
"233 -256 OFFCURVE",
"233 -205 CURVE SMOOTH",
"233 -115 OFFCURVE",
"293 -47 OFFCURVE",
"469 29 CURVE"
);
}
);
width = 539;
},
{
layerId = "5ff15c72-4ade-48a9-9f0f-2c5166e9b845";
paths = (
{
closed = 1;
nodes = (
"383 106 LINE",
"266 76 OFFCURVE",
"29 -45 OFFCURVE",
"29 -250 CURVE SMOOTH",
"29 -385 OFFCURVE",
"147 -457 OFFCURVE",
"309 -457 CURVE SMOOTH",
"371 -457 OFFCURVE",
"459 -432 OFFCURVE",
"487 -416 CURVE",
"438 -250 LINE",
"412 -262 OFFCURVE",
"377 -272 OFFCURVE",
"326 -272 CURVE SMOOTH",
"279 -272 OFFCURVE",
"233 -256 OFFCURVE",
"233 -205 CURVE SMOOTH",
"233 -115 OFFCURVE",
"293 -47 OFFCURVE",
"469 29 CURVE"
);
}
);
width = 0;
}
);
unicode = 02DB;
},
{
glyphname = caron;
layers = (
{
anchors = (
{
name = _top;
position = "{483, 1036}";
}
);
layerId = "5bc31741-97d3-4d5f-bc2e-c74aacfe0c49";
paths = (
{
closed = 1;
nodes = (
"776 1468 LINE",
"524 1135 LINE",
"475 1135 LINE",
"223 1468 LINE",
"367 1468 LINE",
"500 1292 LINE",
"635 1468 LINE"
);
}
);
width = 860;
},
{
anchors = (
{
name = _top;
position = "{475, 1036}";
}
);
layerId = "5ff15c72-4ade-48a9-9f0f-2c5166e9b845";
paths = (
{
closed = 1;
nodes = (
"872 1462 LINE",
"600 1137 LINE",
"360 1137 LINE",
"86 1462 LINE",
"332 1462 LINE",
"479 1309 LINE",
"625 1462 LINE"
);
}
);
width = 827;
}
);
unicode = 02C7;
},
{
glyphname = degree;
layers = (
{
layerId = "5bc31741-97d3-4d5f-bc2e-c74aacfe0c49";
paths = (
{
closed = 1;
nodes = (
"471 1737 OFFCURVE",
"580 1628 OFFCURVE",
"580 1497 CURVE SMOOTH",
"580 1366 OFFCURVE",
"471 1260 OFFCURVE",
"340 1260 CURVE SMOOTH",
"209 1260 OFFCURVE",
"102 1366 OFFCURVE",
"102 1497 CURVE SMOOTH",
"102 1628 OFFCURVE",
"209 1737 OFFCURVE",
"340 1737 CURVE SMOOTH"
);
},
{
closed = 1;
nodes = (
"205 1423 OFFCURVE",
"266 1362 OFFCURVE",
"340 1362 CURVE SMOOTH",
"414 1362 OFFCURVE",
"477 1423 OFFCURVE",
"477 1497 CURVE SMOOTH",
"477 1571 OFFCURVE",
"414 1634 OFFCURVE",
"340 1634 CURVE SMOOTH",
"266 1634 OFFCURVE",
"205 1571 OFFCURVE",
"205 1497 CURVE SMOOTH"
);
}
);
width = 682;
},
{
layerId = "5ff15c72-4ade-48a9-9f0f-2c5166e9b845";
paths = (
{
closed = 1;
nodes = (
"582 1706 OFFCURVE",
"715 1573 OFFCURVE",
"715 1395 CURVE SMOOTH",
"715 1223 OFFCURVE",
"582 1083 OFFCURVE",
"410 1083 CURVE SMOOTH",
"236 1083 OFFCURVE",
"102 1223 OFFCURVE",
"102 1397 CURVE SMOOTH",
"102 1567 OFFCURVE",
"240 1706 OFFCURVE",
"410 1706 CURVE SMOOTH"
);
},
{
closed = 1;
nodes = (
"258 1311 OFFCURVE",
"326 1241 OFFCURVE",
"403 1241 CURVE SMOOTH",
"494 1241 OFFCURVE",
"557 1303 OFFCURVE",
"557 1393 CURVE SMOOTH",
"557 1485 OFFCURVE",
"494 1548 OFFCURVE",
"408 1548 CURVE SMOOTH",
"324 1548 OFFCURVE",
"258 1479 OFFCURVE",
"258 1389 CURVE SMOOTH"
);
}
);
width = 815;
}
);
unicode = 00B0;
},
{
glyphname = grave;
layers = (
{
anchors = (
{
name = _top;
position = "{543, 1036}";
}
);
layerId = "5bc31741-97d3-4d5f-bc2e-c74aacfe0c49";
paths = (
{
closed = 1;
nodes = (
"471 1178 LINE",
"184 1460 LINE",
"184 1477 LINE",
"432 1477 LINE",
"616 1178 LINE"
);
}
);
width = 676;
},
{
anchors = (
{
name = _top;
position = "{543, 1036}";
}
);
layerId = "5ff15c72-4ade-48a9-9f0f-2c5166e9b845";
paths = (
{
closed = 1;
nodes = (
"461 1178 LINE",
"168 1464 LINE",
"168 1489 LINE",
"494 1489 LINE",
"690 1178 LINE"
);
}
);
width = 774;
}
);
unicode = 0060;
},
{
glyphname = acute;
layers = (
{
anchors = (
{
name = _top;
position = "{223, 1036}";
}
);
layerId = "5bc31741-97d3-4d5f-bc2e-c74aacfe0c49";
paths = (
{
closed = 1;
nodes = (
"84 1178 LINE",
"238 1178 LINE",
"537 1460 LINE",
"537 1477 LINE",
"297 1477 LINE"
);
}
);
width = 645;
},
{
anchors = (
{
name = _top;
position = "{143, 1036}";
}
);
layerId = "5ff15c72-4ade-48a9-9f0f-2c5166e9b845";
paths = (
{
closed = 1;
nodes = (
"41 1178 LINE",
"276 1178 LINE",
"582 1464 LINE",
"582 1489 LINE",
"256 1489 LINE"
);
}
);
width = 680;
}
);
unicode = 00B4;
},
{
glyphname = ring;
layers = (
{
anchors = (
{
name = _top;
position = "{606, 913}";
}
);
layerId = "5bc31741-97d3-4d5f-bc2e-c74aacfe0c49";
paths = (
{
closed = 1;
nodes = (
"506 1268 OFFCURVE",
"555 1317 OFFCURVE",
"610 1317 CURVE SMOOTH",
"666 1317 OFFCURVE",
"715 1268 OFFCURVE",
"715 1212 CURVE SMOOTH",
"715 1157 OFFCURVE",
"666 1108 OFFCURVE",
"610 1108 CURVE SMOOTH",
"555 1108 OFFCURVE",
"506 1157 OFFCURVE",
"506 1212 CURVE SMOOTH"
);
},
{
closed = 1;
nodes = (
"471 1468 OFFCURVE",
"354 1352 OFFCURVE",
"354 1212 CURVE SMOOTH",
"354 1073 OFFCURVE",
"471 956 OFFCURVE",
"610 956 CURVE SMOOTH",
"750 956 OFFCURVE",
"866 1073 OFFCURVE",
"866 1212 CURVE SMOOTH",
"866 1352 OFFCURVE",
"750 1468 OFFCURVE",
"610 1468 CURVE SMOOTH"
);
}
);
width = 1200;
},
{
anchors = (
{
name = _top;
position = "{602, 913}";
}
);
layerId = "5ff15c72-4ade-48a9-9f0f-2c5166e9b845";
paths = (
{
closed = 1;
nodes = (
"481 1298 OFFCURVE",
"537 1352 OFFCURVE",
"606 1352 CURVE SMOOTH",
"676 1352 OFFCURVE",
"729 1298 OFFCURVE",
"729 1229 CURVE SMOOTH",
"729 1159 OFFCURVE",
"676 1104 OFFCURVE",
"606 1104 CURVE SMOOTH",
"537 1104 OFFCURVE",
"481 1159 OFFCURVE",
"481 1229 CURVE SMOOTH"
);
},
{
closed = 1;
nodes = (
"432 1546 OFFCURVE",
"289 1403 OFFCURVE",
"289 1229 CURVE SMOOTH",
"289 1055 OFFCURVE",
"432 911 OFFCURVE",
"606 911 CURVE SMOOTH",
"780 911 OFFCURVE",
"924 1055 OFFCURVE",
"924 1229 CURVE SMOOTH",
"924 1403 OFFCURVE",
"780 1546 OFFCURVE",
"606 1546 CURVE SMOOTH"
);
}
);
width = 1200;
}
);
unicode = 02DA;
},
{
glyphname = dotaccent;
layers = (
{
anchors = (
{
name = _top;
position = "{285, 1036}";
}
);
layerId = "5bc31741-97d3-4d5f-bc2e-c74aacfe0c49";
paths = (
{
closed = 1;
nodes = (
"174 1331 OFFCURVE",
"233 1270 OFFCURVE",
"305 1270 CURVE SMOOTH",
"375 1270 OFFCURVE",
"434 1331 OFFCURVE",
"434 1403 CURVE SMOOTH",
"434 1473 OFFCURVE",
"375 1532 OFFCURVE",
"305 1532 CURVE SMOOTH",
"233 1532 OFFCURVE",
"174 1473 OFFCURVE",
"174 1403 CURVE"
);
}
);
width = 612;
},
{
anchors = (
{
name = _top;
position = "{268, 1036}";
}
);
layerId = "5ff15c72-4ade-48a9-9f0f-2c5166e9b845";
paths = (
{
closed = 1;
nodes = (
"92 1272 OFFCURVE",
"170 1192 OFFCURVE",
"270 1192 CURVE SMOOTH",
"367 1192 OFFCURVE",
"446 1272 OFFCURVE",
"446 1370 CURVE SMOOTH",
"446 1468 OFFCURVE",
"367 1548 OFFCURVE",
"270 1548 CURVE SMOOTH",
"170 1548 OFFCURVE",
"92 1468 OFFCURVE",
"92 1370 CURVE"
);
}
);
width = 539;
}
);
unicode = 02D9;
},
{
glyphname = dotlessi;
layers = (
{
anchors = (
{
name = top;
position = "{305, 1036}";
}
);
guideLines = (
{
angle = 90;
position = "{51, 0}";
}
);
layerId = "5bc31741-97d3-4d5f-bc2e-c74aacfe0c49";
paths = (
{
closed = 1;
nodes = (
"59 865 LINE",
"209 865 LINE",
"209 172 LINE",
"61 172 LINE",
"61 0 LINE",
"553 0 LINE",
"553 172 LINE",
"397 172 LINE",
"397 1036 LINE",
"389 1036 LINE",
"389 1037 LINE",
"59 1037 LINE"
);
}
);
width = 612;
},
{
anchors = (
{
name = top;
position = "{416, 1036}";
}
);
guideLines = (
{
angle = 90;
position = "{61, 0}";
}
);
layerId = "5ff15c72-4ade-48a9-9f0f-2c5166e9b845";
paths = (
{
closed = 1;
nodes = (
"60 762 LINE",
"217 762 LINE",
"217 274 LINE",
"61 274 LINE",
"61 0 LINE",
"669 0 LINE",
"669 274 LINE",
"527 274 LINE",
"527 1036 LINE",
"520 1036 LINE",
"520 1037 LINE",
"60 1037 LINE"
);
}
);
width = 721;
}
);
unicode = 0131;
},
{
glyphname = AE;
layers = (
{
layerId = "5bc31741-97d3-4d5f-bc2e-c74aacfe0c49";
paths = (
{
closed = 1;
nodes = (
"-2 0 LINE",
"490 0 LINE",
"490 172 LINE",
"326 172 LINE",
"375 257 OFFCURVE",
"425 341 OFFCURVE",
"474 426 CURVE",
"991 426 LINE",
"991 172 LINE",
"866 172 LINE",
"866 0 LINE",
"1858 0 LINE",
"1858 428 LINE",
"1653 428 LINE",
"1653 172 LINE",
"1188 172 LINE",
"1188 690 LINE",
"1567 690 LINE",
"1567 862 LINE",
"1188 862 LINE",
"1188 1343 LINE",
"1653 1343 LINE",
"1653 1087 LINE",
"1858 1087 LINE",
"1858 1516 LINE",
"920 1516 LINE",
"648 1068 OFFCURVE",
"376 620 OFFCURVE",
"104 172 CURVE",
"-2 172 LINE"
);
},
{
closed = 1;
nodes = (
"575 598 LINE",
"714 836 OFFCURVE",
"852 1074 OFFCURVE",
"991 1312 CURVE",
"991 1133 LINE",
"991 598 LINE"
);
}
);
width = 1915;
},
{
layerId = "5ff15c72-4ade-48a9-9f0f-2c5166e9b845";
paths = (
{
closed = 1;
nodes = (
"-34 0 LINE",
"540 0 LINE",
"540 274 LINE",
"424 274 LINE",
"452 320 OFFCURVE",
"479 366 OFFCURVE",
"507 412 CURVE",
"1004 412 LINE",
"1004 274 LINE",
"883 274 LINE",
"883 0 LINE",
"2032 0 LINE",
"2032 543 LINE",
"1706 543 LINE",
"1706 274 LINE",
"1336 274 LINE",
"1336 635 LINE",
"1626 635 LINE",
"1626 909 LINE",
"1336 909 LINE",
"1336 1214 LINE",
"1706 1214 LINE",
"1706 999 LINE",
"2032 999 LINE",
"2032 1516 LINE",
"883 1516 LINE",
"619 1102 OFFCURVE",
"356 688 OFFCURVE",
"92 274 CURVE",
"-34 274 LINE"
);
},
{
closed = 1;
nodes = (
"671 686 LINE",
"777 862 OFFCURVE",
"882 1038 OFFCURVE",
"988 1214 CURVE",
"1004 1214 LINE",
"1004 686 LINE"
);
}
);
width = 2093;
}
);
unicode = 00C6;
},
{
glyphname = ae;
layers = (
{
associatedMasterId = "5ff15c72-4ade-48a9-9f0f-2c5166e9b845";
components = (
{
alignment = -1;
name = e;
transform = "{1, 0, 0, 1, 657, 0}";
}
);
layerId = "5f0a847c-3ecf-40d8-833d-a0a2a194d8a6";
name = img;
width = 0;
},
{
components = (
{
alignment = -1;
name = e;
transform = "{1, 0, 0, 1, 598, 0}";
}
);
layerId = "5bc31741-97d3-4d5f-bc2e-c74aacfe0c49";
paths = (
{
closed = 1;
nodes = (
"784 336 LINE",
"725 215 OFFCURVE",
"604 127 OFFCURVE",
"438 127 CURVE SMOOTH",
"315 127 OFFCURVE",
"231 184 OFFCURVE",
"231 295 CURVE SMOOTH",
"231 412 OFFCURVE",
"332 477 OFFCURVE",
"475 477 CURVE SMOOTH",
"707 477 LINE",
"710 502 LINE",
"874 410 LINE",
"874 639 OFFCURVE",
"877 461 OFFCURVE",
"877 690 CURVE SMOOTH",
"877 948 OFFCURVE",
"729 1059 OFFCURVE",
"489 1059 CURVE SMOOTH",
"358 1059 OFFCURVE",
"215 1012 OFFCURVE",
"117 948 CURVE",
"178 819 LINE",
"238 858 OFFCURVE",
"346 895 OFFCURVE",
"471 895 CURVE SMOOTH",
"604 895 OFFCURVE",
"696 827 OFFCURVE",
"694 680 CURVE SMOOTH",
"693 585 LINE",
"640 599 OFFCURVE",
"570 606 OFFCURVE",
"481 606 CURVE SMOOTH",
"301 606 OFFCURVE",
"51 535 OFFCURVE",
"51 274 CURVE SMOOTH",
"51 109 OFFCURVE",
"195 -29 OFFCURVE",
"418 -29 CURVE SMOOTH",
"590 -29 OFFCURVE",
"768 61 OFFCURVE",
"836 199 CURVE"
);
}
);
width = 1784;
},
{
components = (
{
alignment = -1;
name = e;
transform = "{1, 0, 0, 1, 657, 0}";
}
);
layerId = "5ff15c72-4ade-48a9-9f0f-2c5166e9b845";
paths = (
{
closed = 1;
nodes = (
"768 322 LINE",
"698 256 OFFCURVE",
"612 211 OFFCURVE",
"489 211 CURVE SMOOTH",
"399 211 OFFCURVE",
"354 258 OFFCURVE",
"354 319 CURVE SMOOTH",
"354 385 OFFCURVE",
"416 422 OFFCURVE",
"477 422 CURVE SMOOTH",
"723 422 LINE",
"724 454 LINE",
"1001 512 LINE",
"1001 562 OFFCURVE",
"1001 601 OFFCURVE",
"1001 651 CURVE SMOOTH",
"1001 950 OFFCURVE",
"823 1059 OFFCURVE",
"563 1059 CURVE SMOOTH",
"397 1059 OFFCURVE",
"248 1008 OFFCURVE",
"113 915 CURVE",
"209 721 LINE",
"297 768 OFFCURVE",
"387 793 OFFCURVE",
"512 793 CURVE SMOOTH",
"633 793 OFFCURVE",
"711 748 OFFCURVE",
"711 643 CURVE SMOOTH",
"711 613 LINE",
"646 627 OFFCURVE",
"570 637 OFFCURVE",
"479 637 CURVE SMOOTH",
"221 637 OFFCURVE",
"72 500 OFFCURVE",
"72 307 CURVE SMOOTH",
"72 119 OFFCURVE",
"219 -25 OFFCURVE",
"467 -25 CURVE SMOOTH",
"659 -25 OFFCURVE",
"782 59 OFFCURVE",
"862 145 CURVE"
);
}
);
width = 1851;
}
);
unicode = 00E6;
},
{
glyphname = thorn;
layers = (
{
guideLines = (
{
angle = 90;
position = "{57, 0}";
}
);
layerId = "5bc31741-97d3-4d5f-bc2e-c74aacfe0c49";
paths = (
{
closed = 1;
nodes = (
"57 1405 LINE",
"199 1405 LINE",
"199 -299 LINE",
"55 -299 LINE",
"55 -471 LINE",
"547 -471 LINE",
"547 -299 LINE",
"385 -299 LINE",
"385 65 LINE",
"448 16 OFFCURVE",
"543 -16 OFFCURVE",
"645 -16 CURVE SMOOTH",
"940 -16 OFFCURVE",
"1153 205 OFFCURVE",
"1153 537 CURVE SMOOTH",
"1153 848 OFFCURVE",
"961 1061 OFFCURVE",
"690 1061 CURVE SMOOTH",
"580 1061 OFFCURVE",
"473 1017 OFFCURVE",
"385 950 CURVE",
"385 1405 LINE",
"387 1405 LINE",
"387 1577 LINE",
"57 1577 LINE"
);
},
{
closed = 1;
nodes = (
"817 897 OFFCURVE",
"961 764 OFFCURVE",
"961 530 CURVE SMOOTH",
"961 274 OFFCURVE",
"807 145 OFFCURVE",
"635 145 CURVE SMOOTH",
"511 145 OFFCURVE",
"428 185 OFFCURVE",
"385 229 CURVE",
"385 786 LINE",
"450 854 OFFCURVE",
"544 897 OFFCURVE",
"641 897 CURVE SMOOTH"
);
}
);
width = 1243;
},
{
guideLines = (
{
angle = 90;
position = "{27, 0}";
}
);
layerId = "5ff15c72-4ade-48a9-9f0f-2c5166e9b845";
paths = (
{
closed = 1;
nodes = (
"28 1302 LINE",
"172 1302 LINE",
"172 -197 LINE",
"28 -197 LINE",
"28 -471 LINE",
"704 -471 LINE",
"704 -197 LINE",
"479 -197 LINE",
"479 30 LINE",
"547 0 OFFCURVE",
"623 -16 OFFCURVE",
"707 -16 CURVE SMOOTH",
"1018 -16 OFFCURVE",
"1241 229 OFFCURVE",
"1241 530 CURVE SMOOTH",
"1241 829 OFFCURVE",
"1014 1077 OFFCURVE",
"696 1077 CURVE SMOOTH",
"626 1077 OFFCURVE",
"550 1054 OFFCURVE",
"479 1018 CURVE",
"479 1302 LINE",
"481 1302 LINE",
"481 1577 LINE",
"28 1577 LINE"
);
},
{
closed = 1;
nodes = (
"823 786 OFFCURVE",
"936 686 OFFCURVE",
"936 528 CURVE SMOOTH",
"936 373 OFFCURVE",
"821 264 OFFCURVE",
"684 264 CURVE SMOOTH",
"596 264 OFFCURVE",
"521 307 OFFCURVE",
"479 371 CURVE",
"479 678 LINE",
"528 746 OFFCURVE",
"603 786 OFFCURVE",
"686 786 CURVE SMOOTH"
);
}
);
width = 1198;
}
);
unicode = 00FE;
},
{
glyphname = Thorn;
layers = (
{
anchors = (
{
name = top;
position = "{430, 1516}";
}
);
associatedMasterId = "5ff15c72-4ade-48a9-9f0f-2c5166e9b845";
layerId = "5f0a847c-3ecf-40d8-833d-a0a2a194d8a6";
name = img;
width = 0;
},
{
anchors = (
{
name = top;
position = "{346, 1516}";
}
);
guideLines = (
{
angle = 90;
position = "{82, 0}";
},
{
angle = 90;
position = "{676, 0}";
},
{
angle = 90;
position = "{379, 0}";
}
);
layerId = "5bc31741-97d3-4d5f-bc2e-c74aacfe0c49";
paths = (
{
closed = 1;
nodes = (
"107 1344 LINE",
"244 1344 LINE",
"244 172 LINE",
"104 172 LINE",
"104 0 LINE",
"596 0 LINE",
"596 172 LINE",
"441 172 LINE",
"441 395 LINE",
"764 395 LINE SMOOTH",
"1047 395 OFFCURVE",
"1235 578 OFFCURVE",
"1235 799 CURVE SMOOTH",
"1235 1067 OFFCURVE",
"1038 1208 OFFCURVE",
"768 1208 CURVE",
"441 1209 LINE",
"441 1344 LINE",
"599 1344 LINE",
"599 1516 LINE",
"107 1516 LINE"
);
},
{
closed = 1;
nodes = (
"743 1036 LINE",
"942 1036 OFFCURVE",
"1028 948 OFFCURVE",
"1028 799 CURVE SMOOTH",
"1028 641 OFFCURVE",
"920 559 OFFCURVE",
"768 559 CURVE SMOOTH",
"441 559 LINE",
"441 1036 LINE"
);
}
);
width = 1323;
},
{
anchors = (
{
name = top;
position = "{430, 1516}";
}
);
guideLines = (
{
angle = 90;
position = "{80, 0}";
},
{
angle = 90;
position = "{674, 0}";
},
{
angle = 90;
position = "{377, 0}";
}
);
layerId = "5ff15c72-4ade-48a9-9f0f-2c5166e9b845";
paths = (
{
closed = 1;
nodes = (
"112 1241 LINE",
"271 1241 LINE",
"271 274 LINE",
"112 274 LINE",
"112 0 LINE",
"761 0 LINE",
"761 274 LINE",
"603 274 LINE",
"603 324 LINE",
"813 324 LINE SMOOTH",
"1182 324 OFFCURVE",
"1348 530 OFFCURVE",
"1348 756 CURVE SMOOTH",
"1348 1004 OFFCURVE",
"1124 1194 OFFCURVE",
"813 1194 CURVE SMOOTH",
"603 1194 LINE",
"603 1241 LINE",
"761 1241 LINE",
"761 1516 LINE",
"112 1516 LINE"
);
},
{
closed = 1;
nodes = (
"739 920 LINE",
"901 920 OFFCURVE",
"987 858 OFFCURVE",
"987 754 CURVE SMOOTH",
"987 643 OFFCURVE",
"891 594 OFFCURVE",
"739 594 CURVE SMOOTH",
"603 594 LINE",
"603 920 LINE"
);
}
);
width = 874;
}
);
unicode = 00DE;
},
{
glyphname = onesuperior;
layers = (
{
layerId = "5bc31741-97d3-4d5f-bc2e-c74aacfe0c49";
paths = (
{
closed = 1;
nodes = (
"92 840 LINE",
"389 840 LINE",
"389 952 LINE",
"309 952 LINE",
"309 1579 LINE",
"250 1579 LINE",
"33 1460 LINE",
"33 1321 LINE",
"174 1397 LINE",
"174 952 LINE",
"92 952 LINE"
);
}
);
width = 436;
},
{
layerId = "5ff15c72-4ade-48a9-9f0f-2c5166e9b845";
paths = (
{
closed = 1;
nodes = (
"51 840 LINE",
"512 840 LINE",
"512 1034 LINE",
"391 1034 LINE",
"391 1577 LINE",
"279 1577 LINE",
"41 1450 LINE",
"41 1217 LINE",
"182 1284 LINE",
"182 1034 LINE",
"51 1034 LINE"
);
}
);
width = 539;
}
);
unicode = 00B9;
},
{
glyphname = twosuperior;
layers = (
{
layerId = "5bc31741-97d3-4d5f-bc2e-c74aacfe0c49";
paths = (
{
closed = 1;
nodes = (
"55 842 LINE",
"543 842 LINE",
"543 963 LINE",
"230 963 LINE",
"465 1198 LINE SMOOTH",
"520 1253 OFFCURVE",
"545 1311 OFFCURVE",
"545 1362 CURVE SMOOTH",
"545 1495 OFFCURVE",
"438 1579 OFFCURVE",
"299 1579 CURVE SMOOTH",
"166 1579 OFFCURVE",
"53 1489 OFFCURVE",
"53 1350 CURVE",
"178 1350 LINE",
"180 1413 OFFCURVE",
"227 1458 OFFCURVE",
"297 1458 CURVE SMOOTH",
"367 1458 OFFCURVE",
"412 1413 OFFCURVE",
"412 1362 CURVE SMOOTH",
"412 1311 OFFCURVE",
"371 1264 OFFCURVE",
"330 1221 CURVE",
"55 944 LINE"
);
}
);
width = 592;
},
{
layerId = "5ff15c72-4ade-48a9-9f0f-2c5166e9b845";
paths = (
{
closed = 1;
nodes = (
"86 842 LINE",
"659 842 LINE",
"659 1047 LINE",
"410 1047 LINE",
"569 1180 LINE SMOOTH",
"623 1225 OFFCURVE",
"659 1266 OFFCURVE",
"659 1346 CURVE SMOOTH",
"659 1505 OFFCURVE",
"510 1579 OFFCURVE",
"377 1579 CURVE SMOOTH",
"207 1579 OFFCURVE",
"78 1493 OFFCURVE",
"80 1303 CURVE",
"305 1303 LINE",
"305 1319 OFFCURVE",
"309 1366 OFFCURVE",
"362 1366 CURVE SMOOTH",
"397 1366 OFFCURVE",
"414 1348 OFFCURVE",
"414 1325 CURVE SMOOTH",
"414 1307 OFFCURVE",
"414 1280 OFFCURVE",
"356 1235 CURVE",
"86 1034 LINE"
);
}
);
width = 721;
}
);
unicode = 00B2;
},
{
glyphname = threesuperior;
layers = (
{
layerId = "5bc31741-97d3-4d5f-bc2e-c74aacfe0c49";
paths = (
{
closed = 1;
nodes = (
"428 1309 OFFCURVE",
"382 1268 OFFCURVE",
"307 1268 CURVE SMOOTH",
"252 1268 LINE",
"252 1161 LINE",
"309 1161 LINE SMOOTH",
"386 1161 OFFCURVE",
"438 1119 OFFCURVE",
"438 1055 CURVE SMOOTH",
"438 995 OFFCURVE",
"381 952 OFFCURVE",
"313 952 CURVE SMOOTH",
"242 952 OFFCURVE",
"195 987 OFFCURVE",
"184 1051 CURVE",
"51 1051 LINE",
"51 911 OFFCURVE",
"178 831 OFFCURVE",
"307 831 CURVE SMOOTH",
"455 831 OFFCURVE",
"569 928 OFFCURVE",
"569 1057 CURVE SMOOTH",
"569 1135 OFFCURVE",
"522 1193 OFFCURVE",
"467 1218 CURVE",
"528 1251 OFFCURVE",
"559 1307 OFFCURVE",
"559 1370 CURVE SMOOTH",
"559 1481 OFFCURVE",
"455 1581 OFFCURVE",
"305 1581 CURVE SMOOTH",
"168 1581 OFFCURVE",
"68 1481 OFFCURVE",
"61 1364 CURVE",
"193 1364 LINE",
"193 1434 OFFCURVE",
"264 1462 OFFCURVE",
"307 1462 CURVE SMOOTH",
"385 1462 OFFCURVE",
"428 1407 OFFCURVE",
"428 1364 CURVE SMOOTH"
);
}
);
width = 631;
},
{
layerId = "5ff15c72-4ade-48a9-9f0f-2c5166e9b845";
paths = (
{
closed = 1;
nodes = (
"414 1298 OFFCURVE",
"403 1270 OFFCURVE",
"371 1270 CURVE SMOOTH",
"258 1270 LINE",
"258 1137 LINE",
"360 1137 LINE SMOOTH",
"416 1137 OFFCURVE",
"428 1108 OFFCURVE",
"428 1085 CURVE SMOOTH",
"428 1059 OFFCURVE",
"403 1020 OFFCURVE",
"356 1020 CURVE SMOOTH",
"307 1020 OFFCURVE",
"281 1063 OFFCURVE",
"281 1102 CURVE",
"61 1102 LINE",
"61 950 OFFCURVE",
"166 834 OFFCURVE",
"362 834 CURVE SMOOTH",
"535 834 OFFCURVE",
"659 952 OFFCURVE",
"659 1075 CURVE SMOOTH",
"659 1131 OFFCURVE",
"633 1195 OFFCURVE",
"599 1222 CURVE",
"620 1246 OFFCURVE",
"645 1286 OFFCURVE",
"645 1343 CURVE SMOOTH",
"645 1477 OFFCURVE",
"512 1581 OFFCURVE",
"365 1581 CURVE SMOOTH",
"170 1581 OFFCURVE",
"72 1464 OFFCURVE",
"78 1311 CURVE",
"297 1311 LINE",
"297 1364 OFFCURVE",
"326 1382 OFFCURVE",
"365 1382 CURVE SMOOTH",
"403 1382 OFFCURVE",
"414 1356 OFFCURVE",
"414 1329 CURVE SMOOTH"
);
}
);
width = 721;
}
);
unicode = 00B3;
},
{
glyphname = ordmasculine;
layers = (
{
anchors = (
{
name = bottom;
position = "{592, -440}";
},
{
name = top;
position = "{590, 831}";
}
);
guideLines = (
{
position = "{0, 346}";
},
{
position = "{0, 864}";
},
{
position = "{0, 1659}";
},
{
angle = 90;
position = "{78, 0}";
},
{
angle = 90;
position = "{0, 0}";
},
{
angle = 90;
position = "{0, 0}";
}
);
layerId = "5bc31741-97d3-4d5f-bc2e-c74aacfe0c49";
paths = (
{
closed = 1;
nodes = (
"102 1090 OFFCURVE",
"248 940 OFFCURVE",
"467 940 CURVE SMOOTH",
"686 940 OFFCURVE",
"831 1090 OFFCURVE",
"831 1303 CURVE SMOOTH",
"831 1513 OFFCURVE",
"682 1663 OFFCURVE",
"467 1663 CURVE SMOOTH",
"252 1663 OFFCURVE",
"102 1509 OFFCURVE",
"102 1300 CURVE SMOOTH"
);
},
{
closed = 1;
nodes = (
"254 1448 OFFCURVE",
"350 1528 OFFCURVE",
"467 1528 CURVE SMOOTH",
"588 1528 OFFCURVE",
"680 1448 OFFCURVE",
"680 1300 CURVE SMOOTH",
"680 1161 OFFCURVE",
"588 1073 OFFCURVE",
"467 1073 CURVE SMOOTH",
"350 1073 OFFCURVE",
"254 1161 OFFCURVE",
"254 1300 CURVE SMOOTH"
);
}
);
width = 934;
},
{
anchors = (
{
name = bottom;
position = "{549, -440}";
},
{
name = top;
position = "{547, 831}";
}
);
guideLines = (
{
position = "{0, 350}";
},
{
position = "{0, 961}";
},
{
position = "{0, 1659}";
},
{
angle = 90;
position = "{35, 0}";
},
{
angle = 90;
position = "{0, 0}";
},
{
angle = 90;
position = "{0, 0}";
}
);
layerId = "5ff15c72-4ade-48a9-9f0f-2c5166e9b845";
paths = (
{
closed = 1;
nodes = (
"61 1016 OFFCURVE",
"213 842 OFFCURVE",
"442 842 CURVE SMOOTH",
"668 842 OFFCURVE",
"821 1016 OFFCURVE",
"821 1210 CURVE SMOOTH",
"821 1403 OFFCURVE",
"662 1577 OFFCURVE",
"442 1577 CURVE SMOOTH",
"221 1577 OFFCURVE",
"61 1405 OFFCURVE",
"61 1210 CURVE SMOOTH"
);
},
{
closed = 1;
nodes = (
"287 1284 OFFCURVE",
"356 1346 OFFCURVE",
"442 1346 CURVE SMOOTH",
"528 1346 OFFCURVE",
"594 1284 OFFCURVE",
"594 1210 CURVE SMOOTH",
"594 1143 OFFCURVE",
"528 1071 OFFCURVE",
"442 1071 CURVE SMOOTH",
"356 1071 OFFCURVE",
"287 1143 OFFCURVE",
"287 1210 CURVE SMOOTH"
);
}
);
width = 883;
}
);
unicode = 00BA;
},
{
glyphname = ordfeminine;
layers = (
{
anchors = (
{
name = top;
position = "{500, 1036}";
}
);
guideLines = (
{
position = "{0, 1659}";
},
{
angle = 90;
position = "{0, 0}";
},
{
angle = 90;
position = "{0, 0}";
}
);
layerId = "5bc31741-97d3-4d5f-bc2e-c74aacfe0c49";
paths = (
{
closed = 1;
nodes = (
"551 963 LINE",
"778 963 LINE",
"778 1094 LINE",
"696 1094 LINE",
"696 1407 LINE SMOOTH",
"696 1583 OFFCURVE",
"588 1657 OFFCURVE",
"416 1657 CURVE SMOOTH",
"319 1657 OFFCURVE",
"219 1626 OFFCURVE",
"143 1579 CURVE",
"193 1483 LINE",
"240 1509 OFFCURVE",
"311 1530 OFFCURVE",
"397 1530 CURVE SMOOTH",
"489 1530 OFFCURVE",
"551 1491 OFFCURVE",
"551 1401 CURVE SMOOTH",
"551 1352 LINE",
"511 1360 OFFCURVE",
"463 1366 OFFCURVE",
"401 1366 CURVE SMOOTH",
"262 1366 OFFCURVE",
"102 1305 OFFCURVE",
"102 1149 CURVE SMOOTH",
"102 1036 OFFCURVE",
"203 944 OFFCURVE",
"350 944 CURVE SMOOTH",
"433 944 OFFCURVE",
"495 974 OFFCURVE",
"551 1019 CURVE"
);
},
{
closed = 1;
nodes = (
"295 1061 OFFCURVE",
"244 1096 OFFCURVE",
"244 1161 CURVE SMOOTH",
"244 1227 OFFCURVE",
"309 1264 OFFCURVE",
"395 1264 CURVE SMOOTH",
"551 1264 LINE",
"551 1128 LINE",
"515 1092 OFFCURVE",
"446 1061 OFFCURVE",
"375 1061 CURVE SMOOTH"
);
}
);
width = 838;
},
{
anchors = (
{
name = top;
position = "{520, 1036}";
}
);
guideLines = (
{
position = "{0, 1659}";
},
{
angle = 90;
position = "{0, 0}";
},
{
angle = 90;
position = "{0, 0}";
}
);
layerId = "5ff15c72-4ade-48a9-9f0f-2c5166e9b845";
paths = (
{
closed = 1;
nodes = (
"571 840 LINE",
"885 840 LINE",
"885 1042 LINE",
"791 1042 LINE",
"791 1317 LINE SMOOTH",
"791 1509 OFFCURVE",
"659 1575 OFFCURVE",
"485 1575 CURVE SMOOTH",
"369 1575 OFFCURVE",
"272 1542 OFFCURVE",
"174 1477 CURVE",
"246 1335 LINE",
"311 1368 OFFCURVE",
"365 1376 OFFCURVE",
"442 1376 CURVE SMOOTH",
"516 1376 OFFCURVE",
"569 1360 OFFCURVE",
"569 1311 CURVE SMOOTH",
"569 1258 LINE",
"522 1266 OFFCURVE",
"470 1274 OFFCURVE",
"410 1274 CURVE SMOOTH",
"221 1274 OFFCURVE",
"156 1157 OFFCURVE",
"156 1057 CURVE SMOOTH",
"156 924 OFFCURVE",
"252 825 OFFCURVE",
"408 825 CURVE SMOOTH",
"472 825 OFFCURVE",
"517 836 OFFCURVE",
"571 863 CURVE"
);
},
{
closed = 1;
nodes = (
"389 997 OFFCURVE",
"369 1024 OFFCURVE",
"369 1055 CURVE SMOOTH",
"369 1092 OFFCURVE",
"395 1112 OFFCURVE",
"436 1112 CURVE SMOOTH",
"570 1112 LINE",
"570 1031 LINE",
"536 1010 OFFCURVE",
"489 997 OFFCURVE",
"432 997 CURVE SMOOTH"
);
}
);
width = 1006;
}
);
unicode = 00AA;
},
{
glyphname = currency;
layers = (
{
associatedMasterId = "5ff15c72-4ade-48a9-9f0f-2c5166e9b845";
layerId = "5f0a847c-3ecf-40d8-833d-a0a2a194d8a6";
name = img;
width = 0;
},
{
guideLines = (
{
position = "{0, 743}";
},
{
angle = 90;
position = "{573, 0}";
}
);
layerId = "5bc31741-97d3-4d5f-bc2e-c74aacfe0c49";
paths = (
{
closed = 1;
nodes = (
"125 641 OFFCURVE",
"159 547 OFFCURVE",
"216 472 CURVE",
"55 281 LINE",
"221 170 LINE",
"366 345 LINE",
"428 313 OFFCURVE",
"498 295 OFFCURVE",
"573 295 CURVE SMOOTH",
"649 295 OFFCURVE",
"720 314 OFFCURVE",
"783 347 CURVE",
"926 176 LINE",
"1077 295 LINE",
"930 471 LINE",
"988 546 OFFCURVE",
"1022 641 OFFCURVE",
"1022 743 CURVE SMOOTH",
"1022 846 OFFCURVE",
"987 942 OFFCURVE",
"928 1018 CURVE",
"1073 1192 LINE",
"913 1307 LINE",
"776 1143 LINE",
"715 1174 OFFCURVE",
"646 1192 OFFCURVE",
"573 1192 CURVE SMOOTH",
"499 1192 OFFCURVE",
"429 1174 OFFCURVE",
"368 1142 CURVE",
"219 1321 LINE",
"74 1198 LINE",
"221 1021 LINE",
"161 945 OFFCURVE",
"125 848 OFFCURVE",
"125 743 CURVE SMOOTH"
);
},
{
closed = 1;
nodes = (
"295 903 OFFCURVE",
"420 1028 OFFCURVE",
"575 1028 CURVE SMOOTH",
"731 1028 OFFCURVE",
"856 903 OFFCURVE",
"856 748 CURVE SMOOTH",
"856 592 OFFCURVE",
"731 467 OFFCURVE",
"575 467 CURVE SMOOTH",
"420 467 OFFCURVE",
"295 592 OFFCURVE",
"295 748 CURVE SMOOTH"
);
}
);
width = 1128;
},
{
guideLines = (
{
position = "{0, 743}";
},
{
angle = 90;
position = "{721, 0}";
}
);
layerId = "5ff15c72-4ade-48a9-9f0f-2c5166e9b845";
paths = (
{
closed = 1;
nodes = (
"182 650 OFFCURVE",
"205 565 OFFCURVE",
"244 490 CURVE",
"66 295 LINE",
"330 55 LINE",
"506 248 LINE",
"572 219 OFFCURVE",
"645 203 OFFCURVE",
"721 203 CURVE SMOOTH",
"796 203 OFFCURVE",
"867 218 OFFCURVE",
"932 246 CURVE",
"1110 55 LINE",
"1374 295 LINE",
"1195 486 LINE",
"1236 562 OFFCURVE",
"1260 649 OFFCURVE",
"1260 741 CURVE SMOOTH",
"1260 833 OFFCURVE",
"1236 919 OFFCURVE",
"1195 995 CURVE",
"1389 1206 LINE",
"1124 1448 LINE",
"931 1237 LINE",
"867 1264 OFFCURVE",
"795 1280 OFFCURVE",
"721 1280 CURVE SMOOTH",
"646 1280 OFFCURVE",
"574 1264 OFFCURVE",
"509 1236 CURVE",
"315 1448 LINE",
"51 1206 LINE",
"246 994 LINE",
"205 919 OFFCURVE",
"182 832 OFFCURVE",
"182 741 CURVE SMOOTH"
);
},
{
closed = 1;
nodes = (
"469 889 OFFCURVE",
"580 1001 OFFCURVE",
"721 1001 CURVE SMOOTH",
"860 1001 OFFCURVE",
"973 891 OFFCURVE",
"973 750 CURVE SMOOTH",
"973 608 OFFCURVE",
"860 498 OFFCURVE",
"721 498 CURVE SMOOTH",
"580 498 OFFCURVE",
"469 608 OFFCURVE",
"469 750 CURVE SMOOTH"
);
}
);
width = 1438;
}
);
unicode = 00A4;
},
{
glyphname = logicalnot;
layers = (
{
anchors = (
{
name = top;
position = "{774, 1434}";
}
);
associatedMasterId = "5ff15c72-4ade-48a9-9f0f-2c5166e9b845";
layerId = "5f0a847c-3ecf-40d8-833d-a0a2a194d8a6";
name = img;
width = 0;
},
{
anchors = (
{
name = top;
position = "{522, 1434}";
}
);
layerId = "5bc31741-97d3-4d5f-bc2e-c74aacfe0c49";
paths = (
{
closed = 1;
nodes = (
"1143 999 LINE",
"1143 432 LINE",
"961 432 LINE",
"961 815 LINE",
"49 815 LINE",
"49 999 LINE"
);
}
);
width = 1214;
},
{
anchors = (
{
name = top;
position = "{774, 1434}";
}
);
layerId = "5ff15c72-4ade-48a9-9f0f-2c5166e9b845";
paths = (
{
closed = 1;
nodes = (
"1526 1036 LINE",
"1526 248 LINE",
"1239 248 LINE",
"1239 782 LINE",
"51 782 LINE",
"51 1036 LINE"
);
}
);
width = 1597;
}
);
unicode = 00AC;
},
{
glyphname = mu;
layers = (
{
anchors = (
{
name = top;
position = "{575, 1036}";
}
);
layerId = "5bc31741-97d3-4d5f-bc2e-c74aacfe0c49";
paths = (
{
closed = 1;
nodes = (
"1018 1036 LINE",
"824 1036 LINE",
"824 234 LINE",
"745 181 OFFCURVE",
"649 150 OFFCURVE",
"568 150 CURVE SMOOTH",
"431 150 OFFCURVE",
"355 233 OFFCURVE",
"355 391 CURVE SMOOTH",
"355 1036 LINE",
"160 1035 LINE",
"158 1035 LINE",
"158 -471 LINE",
"355 -471 LINE",
"355 6 LINE",
"398 -10 OFFCURVE",
"447 -18 OFFCURVE",
"502 -18 CURVE SMOOTH",
"627 -18 OFFCURVE",
"739 25 OFFCURVE",
"832 96 CURVE",
"832 0 LINE",
"1132 0 LINE",
"1132 172 LINE",
"1018 172 LINE"
);
}
);
width = 1198;
},
{
anchors = (
{
name = top;
position = "{641, 1036}";
}
);
layerId = "5ff15c72-4ade-48a9-9f0f-2c5166e9b845";
paths = (
{
closed = 1;
nodes = (
"1183 1036 LINE",
"860 1036 LINE",
"860 356 LINE",
"831 273 OFFCURVE",
"759 219 OFFCURVE",
"679 219 CURVE SMOOTH",
"567 219 OFFCURVE",
"489 287 OFFCURVE",
"489 426 CURVE SMOOTH",
"489 1036 LINE",
"486 1039 LINE",
"154 1039 LINE",
"154 -471 LINE",
"486 -471 LINE",
"486 -3 LINE",
"516 -9 OFFCURVE",
"548 -12 OFFCURVE",
"581 -12 CURVE SMOOTH",
"704 -12 OFFCURVE",
"800 24 OFFCURVE",
"870 88 CURVE",
"870 0 LINE",
"1308 0 LINE",
"1308 274 LINE",
"1183 274 LINE"
);
}
);
width = 1350;
}
);
unicode = 00B5;
},
{
glyphname = exclamdown;
layers = (
{
components = (
{
alignment = -1;
name = dotaccent;
transform = "{1, 0, 0, 1, 37, -393}";
}
);
guideLines = (
{
angle = 90;
position = "{174, 0}";
},
{
angle = 90;
position = "{459, 0}";
}
);
layerId = "5bc31741-97d3-4d5f-bc2e-c74aacfe0c49";
paths = (
{
closed = 1;
nodes = (
"252 696 LINE",
"430 696 LINE",
"471 -471 LINE",
"211 -471 LINE"
);
}
);
width = 682;
},
{
components = (
{
alignment = -1;
name = dotaccent;
transform = "{1, 0, 0, 1, 47, -385}";
}
);
guideLines = (
{
angle = 90;
position = "{174, 0}";
},
{
angle = 90;
position = "{459, 0}";
}
);
layerId = "5ff15c72-4ade-48a9-9f0f-2c5166e9b845";
paths = (
{
closed = 1;
nodes = (
"180 596 LINE",
"467 596 LINE",
"508 -471 LINE",
"139 -471 LINE"
);
}
);
width = 696;
}
);
unicode = 00A1;
},
{
glyphname = questiondown;
layers = (
{
components = (
{
alignment = -1;
name = dotaccent;
transform = "{1, 0, 0, 1, 231, -381}";
}
);
layerId = "5bc31741-97d3-4d5f-bc2e-c74aacfe0c49";
paths = (
{
closed = 1;
nodes = (
"443 780 LINE",
"443 477 OFFCURVE",
"404 422 OFFCURVE",
"216 291 CURVE",
"80 196 OFFCURVE",
"9 80 OFFCURVE",
"9 -55 CURVE SMOOTH",
"9 -266 OFFCURVE",
"156 -455 OFFCURVE",
"424 -455 CURVE SMOOTH",
"687 -455 OFFCURVE",
"869 -264 OFFCURVE",
"883 -41 CURVE",
"707 -29 LINE",
"707 -113 OFFCURVE",
"639 -283 OFFCURVE",
"424 -283 CURVE SMOOTH",
"299 -283 OFFCURVE",
"197 -168 OFFCURVE",
"197 -49 CURVE SMOOTH",
"197 90 OFFCURVE",
"291 129 OFFCURVE",
"433 250 CURVE",
"590 383 OFFCURVE",
"623 502 OFFCURVE",
"623 780 CURVE"
);
}
);
width = 1065;
},
{
components = (
{
alignment = -1;
name = dotaccent;
transform = "{1, 0, 0, 1, 209, -406}";
}
);
layerId = "5ff15c72-4ade-48a9-9f0f-2c5166e9b845";
paths = (
{
closed = 1;
nodes = (
"356 709 LINE",
"356 510 OFFCURVE",
"315 451 OFFCURVE",
"174 350 CURVE",
"37 242 OFFCURVE",
"-29 123 OFFCURVE",
"-29 -22 CURVE SMOOTH",
"-29 -299 OFFCURVE",
"172 -452 OFFCURVE",
"426 -452 CURVE SMOOTH",
"698 -452 OFFCURVE",
"897 -311 OFFCURVE",
"903 -18 CURVE",
"585 13 LINE",
"585 -125 OFFCURVE",
"520 -157 OFFCURVE",
"438 -157 CURVE SMOOTH",
"372 -157 OFFCURVE",
"329 -102 OFFCURVE",
"329 -24 CURVE SMOOTH",
"329 86 OFFCURVE",
"360 144 OFFCURVE",
"483 246 CURVE",
"653 365 OFFCURVE",
"669 430 OFFCURVE",
"669 709 CURVE"
);
}
);
width = 1192;
}
);
unicode = 00BF;
},
{
glyphname = asciicircum;
layers = (
{
hints = (
{
horizontal = 1;
place = "{1341, 162}";
type = Stem;
},
{
place = "{109, 1011}";
type = Stem;
}
);
layerId = "5bc31741-97d3-4d5f-bc2e-c74aacfe0c49";
paths = (
{
closed = 1;
nodes = (
"559 1513 LINE",
"156 723 LINE",
"297 723 LINE",
"617 1349 LINE",
"932 723 LINE",
"1075 723 LINE",
"672 1513 LINE"
);
}
);
width = 1229;
},
{
hints = (
{
horizontal = 1;
place = "{1341, 162}";
type = Stem;
},
{
place = "{109, 1011}";
type = Stem;
}
);
layerId = "5ff15c72-4ade-48a9-9f0f-2c5166e9b845";
paths = (
{
closed = 1;
nodes = (
"508 1513 LINE",
"92 723 LINE",
"342 723 LINE",
"616 1251 LINE",
"879 723 LINE",
"1135 723 LINE",
"731 1513 LINE"
);
}
);
width = 1229;
}
);
unicode = 005E;
},
{
glyphname = brokenbar;
layers = (
{
layerId = "5bc31741-97d3-4d5f-bc2e-c74aacfe0c49";
paths = (
{
closed = 1;
nodes = (
"152 979 LINE",
"307 979 LINE",
"307 1729 LINE",
"152 1729 LINE"
);
},
{
closed = 1;
nodes = (
"152 -268 LINE",
"307 -268 LINE",
"307 481 LINE",
"152 481 LINE"
);
}
);
width = 512;
},
{
layerId = "5ff15c72-4ade-48a9-9f0f-2c5166e9b845";
paths = (
{
closed = 1;
nodes = (
"123 971 LINE",
"375 971 LINE",
"375 1729 LINE",
"123 1729 LINE"
);
},
{
closed = 1;
nodes = (
"123 -270 LINE",
"375 -270 LINE",
"375 487 LINE",
"123 487 LINE"
);
}
);
width = 594;
}
);
unicode = 00A6;
},
{
glyphname = fraction;
layers = (
{
guideLines = (
{
angle = 90;
position = "{-1356, 0}";
}
);
layerId = "5bc31741-97d3-4d5f-bc2e-c74aacfe0c49";
paths = (
{
closed = 1;
nodes = (
"-203 -61 LINE",
"-4 -61 LINE",
"1272 1577 LINE",
"1073 1577 LINE"
);
}
);
width = 369;
},
{
guideLines = (
{
angle = 45;
position = "{-844, 0}";
}
);
layerId = "5ff15c72-4ade-48a9-9f0f-2c5166e9b845";
paths = (
{
closed = 1;
nodes = (
"-209 -61 LINE",
"53 -61 LINE",
"1298 1577 LINE",
"1042 1577 LINE"
);
}
);
width = 369;
}
);
unicode = 2044;
},
{
color = (166,255,153,255);
glyphname = Eth;
layers = (
{
anchors = (
{
name = top;
position = "{713, 1434}";
}
);
associatedMasterId = "5ff15c72-4ade-48a9-9f0f-2c5166e9b845";
components = (
{
alignment = -1;
name = hyphen;
transform = "{1, 0, 0, 1, 4, 172}";
}
);
layerId = "5f0a847c-3ecf-40d8-833d-a0a2a194d8a6";
name = img;
width = 0;
},
{
anchors = (
{
name = top;
position = "{713, 1434}";
}
);
components = (
{
alignment = -1;
name = hyphen;
transform = "{1, 0, 0, 1, 33, 180}";
}
);
guideLines = (
{
angle = 90;
position = "{139, 0}";
}
);
layerId = "5bc31741-97d3-4d5f-bc2e-c74aacfe0c49";
paths = (
{
closed = 1;
nodes = (
"139 1343 LINE",
"295 1343 LINE",
"295 172 LINE",
"139 172 LINE",
"139 0 LINE",
"715 0 LINE SMOOTH",
"1130 0 OFFCURVE",
"1444 340 OFFCURVE",
"1444 762 CURVE SMOOTH",
"1444 1180 OFFCURVE",
"1130 1516 OFFCURVE",
"715 1516 CURVE SMOOTH",
"139 1516 LINE"
);
},
{
closed = 1;
nodes = (
"727 1343 LINE",
"1008 1343 OFFCURVE",
"1235 1087 OFFCURVE",
"1235 762 CURVE SMOOTH",
"1235 432 OFFCURVE",
"1008 172 OFFCURVE",
"727 172 CURVE SMOOTH",
"492 172 LINE",
"492 1343 LINE"
);
}
);
width = 1516;
},
{
anchors = (
{
name = top;
position = "{713, 1434}";
}
);
components = (
{
alignment = -1;
name = hyphen;
transform = "{1, 0, 0, 1, 4, 172}";
}
);
guideLines = (
{
angle = 90;
position = "{80, 0}";
}
);
layerId = "5ff15c72-4ade-48a9-9f0f-2c5166e9b845";
paths = (
{
closed = 1;
nodes = (
"82 1241 LINE",
"203 1241 LINE",
"203 274 LINE",
"82 274 LINE",
"82 0 LINE",
"664 0 LINE SMOOTH",
"1079 0 OFFCURVE",
"1407 340 OFFCURVE",
"1407 760 CURVE SMOOTH",
"1407 1180 OFFCURVE",
"1079 1516 OFFCURVE",
"664 1516 CURVE SMOOTH",
"82 1516 LINE"
);
},
{
closed = 1;
nodes = (
"662 1241 LINE",
"879 1241 OFFCURVE",
"1055 1030 OFFCURVE",
"1055 760 CURVE SMOOTH",
"1055 489 OFFCURVE",
"879 274 OFFCURVE",
"662 274 CURVE SMOOTH",
"535 274 LINE",
"535 1241 LINE"
);
}
);
width = 1468;
}
);
unicode = 00D0;
},
{
color = (166,255,153,255);
glyphname = eth;
layers = (
{
associatedMasterId = "5ff15c72-4ade-48a9-9f0f-2c5166e9b845";
components = (
{
alignment = -1;
name = nine;
transform = "{1, 0, 0, -1, 0, 1532}";
}
);
layerId = "5f0a847c-3ecf-40d8-833d-a0a2a194d8a6";
name = img;
width = 0;
},
{
components = (
{
alignment = -1;
name = nine;
transform = "{1, 0, 0, -1, 0, 1524}";
}
);
layerId = "5bc31741-97d3-4d5f-bc2e-c74aacfe0c49";
paths = (
{
closed = 1;
nodes = (
"967 1174 LINE",
"475 1174 LINE",
"475 1346 LINE",
"967 1346 LINE"
);
}
);
width = 1270;
},
{
components = (
{
alignment = -1;
name = nine;
transform = "{1, 0, 0, -1, 0, 1532}";
}
);
layerId = "5ff15c72-4ade-48a9-9f0f-2c5166e9b845";
paths = (
{
closed = 1;
nodes = (
"973 1112 LINE",
"297 1112 LINE",
"297 1387 LINE",
"973 1387 LINE"
);
}
);
width = 1151;
}
);
unicode = 00F0;
},
